G75*
%MOIN*%
%OFA0B0*%
%FSLAX25Y25*%
%IPPOS*%
%LPD*%
%AMOC8*
5,1,8,0,0,1.08239X$1,22.5*
%
%ADD10C,0.00600*%
%ADD11C,0.00787*%
%ADD12C,0.00400*%
%ADD13C,0.00800*%
%ADD14C,0.00300*%
%ADD15C,0.00500*%
%ADD16C,0.00100*%
D10*
X0067752Y0046000D02*
X0067752Y0057000D01*
X0067754Y0057060D01*
X0067759Y0057121D01*
X0067768Y0057180D01*
X0067781Y0057239D01*
X0067797Y0057298D01*
X0067817Y0057355D01*
X0067840Y0057410D01*
X0067867Y0057465D01*
X0067896Y0057517D01*
X0067929Y0057568D01*
X0067965Y0057617D01*
X0068003Y0057663D01*
X0068045Y0057707D01*
X0068089Y0057749D01*
X0068135Y0057787D01*
X0068184Y0057823D01*
X0068235Y0057856D01*
X0068287Y0057885D01*
X0068342Y0057912D01*
X0068397Y0057935D01*
X0068454Y0057955D01*
X0068513Y0057971D01*
X0068572Y0057984D01*
X0068631Y0057993D01*
X0068692Y0057998D01*
X0068752Y0058000D01*
X0074752Y0058000D01*
X0074812Y0057998D01*
X0074873Y0057993D01*
X0074932Y0057984D01*
X0074991Y0057971D01*
X0075050Y0057955D01*
X0075107Y0057935D01*
X0075162Y0057912D01*
X0075217Y0057885D01*
X0075269Y0057856D01*
X0075320Y0057823D01*
X0075369Y0057787D01*
X0075415Y0057749D01*
X0075459Y0057707D01*
X0075501Y0057663D01*
X0075539Y0057617D01*
X0075575Y0057568D01*
X0075608Y0057517D01*
X0075637Y0057465D01*
X0075664Y0057410D01*
X0075687Y0057355D01*
X0075707Y0057298D01*
X0075723Y0057239D01*
X0075736Y0057180D01*
X0075745Y0057121D01*
X0075750Y0057060D01*
X0075752Y0057000D01*
X0075752Y0046000D01*
X0075750Y0045940D01*
X0075745Y0045879D01*
X0075736Y0045820D01*
X0075723Y0045761D01*
X0075707Y0045702D01*
X0075687Y0045645D01*
X0075664Y0045590D01*
X0075637Y0045535D01*
X0075608Y0045483D01*
X0075575Y0045432D01*
X0075539Y0045383D01*
X0075501Y0045337D01*
X0075459Y0045293D01*
X0075415Y0045251D01*
X0075369Y0045213D01*
X0075320Y0045177D01*
X0075269Y0045144D01*
X0075217Y0045115D01*
X0075162Y0045088D01*
X0075107Y0045065D01*
X0075050Y0045045D01*
X0074991Y0045029D01*
X0074932Y0045016D01*
X0074873Y0045007D01*
X0074812Y0045002D01*
X0074752Y0045000D01*
X0068752Y0045000D01*
X0068692Y0045002D01*
X0068631Y0045007D01*
X0068572Y0045016D01*
X0068513Y0045029D01*
X0068454Y0045045D01*
X0068397Y0045065D01*
X0068342Y0045088D01*
X0068287Y0045115D01*
X0068235Y0045144D01*
X0068184Y0045177D01*
X0068135Y0045213D01*
X0068089Y0045251D01*
X0068045Y0045293D01*
X0068003Y0045337D01*
X0067965Y0045383D01*
X0067929Y0045432D01*
X0067896Y0045483D01*
X0067867Y0045535D01*
X0067840Y0045590D01*
X0067817Y0045645D01*
X0067797Y0045702D01*
X0067781Y0045761D01*
X0067768Y0045820D01*
X0067759Y0045879D01*
X0067754Y0045940D01*
X0067752Y0046000D01*
X0077752Y0046000D02*
X0077752Y0057000D01*
X0077754Y0057060D01*
X0077759Y0057121D01*
X0077768Y0057180D01*
X0077781Y0057239D01*
X0077797Y0057298D01*
X0077817Y0057355D01*
X0077840Y0057410D01*
X0077867Y0057465D01*
X0077896Y0057517D01*
X0077929Y0057568D01*
X0077965Y0057617D01*
X0078003Y0057663D01*
X0078045Y0057707D01*
X0078089Y0057749D01*
X0078135Y0057787D01*
X0078184Y0057823D01*
X0078235Y0057856D01*
X0078287Y0057885D01*
X0078342Y0057912D01*
X0078397Y0057935D01*
X0078454Y0057955D01*
X0078513Y0057971D01*
X0078572Y0057984D01*
X0078631Y0057993D01*
X0078692Y0057998D01*
X0078752Y0058000D01*
X0084752Y0058000D01*
X0084812Y0057998D01*
X0084873Y0057993D01*
X0084932Y0057984D01*
X0084991Y0057971D01*
X0085050Y0057955D01*
X0085107Y0057935D01*
X0085162Y0057912D01*
X0085217Y0057885D01*
X0085269Y0057856D01*
X0085320Y0057823D01*
X0085369Y0057787D01*
X0085415Y0057749D01*
X0085459Y0057707D01*
X0085501Y0057663D01*
X0085539Y0057617D01*
X0085575Y0057568D01*
X0085608Y0057517D01*
X0085637Y0057465D01*
X0085664Y0057410D01*
X0085687Y0057355D01*
X0085707Y0057298D01*
X0085723Y0057239D01*
X0085736Y0057180D01*
X0085745Y0057121D01*
X0085750Y0057060D01*
X0085752Y0057000D01*
X0085752Y0046000D01*
X0085750Y0045940D01*
X0085745Y0045879D01*
X0085736Y0045820D01*
X0085723Y0045761D01*
X0085707Y0045702D01*
X0085687Y0045645D01*
X0085664Y0045590D01*
X0085637Y0045535D01*
X0085608Y0045483D01*
X0085575Y0045432D01*
X0085539Y0045383D01*
X0085501Y0045337D01*
X0085459Y0045293D01*
X0085415Y0045251D01*
X0085369Y0045213D01*
X0085320Y0045177D01*
X0085269Y0045144D01*
X0085217Y0045115D01*
X0085162Y0045088D01*
X0085107Y0045065D01*
X0085050Y0045045D01*
X0084991Y0045029D01*
X0084932Y0045016D01*
X0084873Y0045007D01*
X0084812Y0045002D01*
X0084752Y0045000D01*
X0078752Y0045000D01*
X0078692Y0045002D01*
X0078631Y0045007D01*
X0078572Y0045016D01*
X0078513Y0045029D01*
X0078454Y0045045D01*
X0078397Y0045065D01*
X0078342Y0045088D01*
X0078287Y0045115D01*
X0078235Y0045144D01*
X0078184Y0045177D01*
X0078135Y0045213D01*
X0078089Y0045251D01*
X0078045Y0045293D01*
X0078003Y0045337D01*
X0077965Y0045383D01*
X0077929Y0045432D01*
X0077896Y0045483D01*
X0077867Y0045535D01*
X0077840Y0045590D01*
X0077817Y0045645D01*
X0077797Y0045702D01*
X0077781Y0045761D01*
X0077768Y0045820D01*
X0077759Y0045879D01*
X0077754Y0045940D01*
X0077752Y0046000D01*
X0087752Y0046000D02*
X0087752Y0057000D01*
X0087754Y0057060D01*
X0087759Y0057121D01*
X0087768Y0057180D01*
X0087781Y0057239D01*
X0087797Y0057298D01*
X0087817Y0057355D01*
X0087840Y0057410D01*
X0087867Y0057465D01*
X0087896Y0057517D01*
X0087929Y0057568D01*
X0087965Y0057617D01*
X0088003Y0057663D01*
X0088045Y0057707D01*
X0088089Y0057749D01*
X0088135Y0057787D01*
X0088184Y0057823D01*
X0088235Y0057856D01*
X0088287Y0057885D01*
X0088342Y0057912D01*
X0088397Y0057935D01*
X0088454Y0057955D01*
X0088513Y0057971D01*
X0088572Y0057984D01*
X0088631Y0057993D01*
X0088692Y0057998D01*
X0088752Y0058000D01*
X0094752Y0058000D01*
X0094812Y0057998D01*
X0094873Y0057993D01*
X0094932Y0057984D01*
X0094991Y0057971D01*
X0095050Y0057955D01*
X0095107Y0057935D01*
X0095162Y0057912D01*
X0095217Y0057885D01*
X0095269Y0057856D01*
X0095320Y0057823D01*
X0095369Y0057787D01*
X0095415Y0057749D01*
X0095459Y0057707D01*
X0095501Y0057663D01*
X0095539Y0057617D01*
X0095575Y0057568D01*
X0095608Y0057517D01*
X0095637Y0057465D01*
X0095664Y0057410D01*
X0095687Y0057355D01*
X0095707Y0057298D01*
X0095723Y0057239D01*
X0095736Y0057180D01*
X0095745Y0057121D01*
X0095750Y0057060D01*
X0095752Y0057000D01*
X0095752Y0046000D01*
X0095750Y0045940D01*
X0095745Y0045879D01*
X0095736Y0045820D01*
X0095723Y0045761D01*
X0095707Y0045702D01*
X0095687Y0045645D01*
X0095664Y0045590D01*
X0095637Y0045535D01*
X0095608Y0045483D01*
X0095575Y0045432D01*
X0095539Y0045383D01*
X0095501Y0045337D01*
X0095459Y0045293D01*
X0095415Y0045251D01*
X0095369Y0045213D01*
X0095320Y0045177D01*
X0095269Y0045144D01*
X0095217Y0045115D01*
X0095162Y0045088D01*
X0095107Y0045065D01*
X0095050Y0045045D01*
X0094991Y0045029D01*
X0094932Y0045016D01*
X0094873Y0045007D01*
X0094812Y0045002D01*
X0094752Y0045000D01*
X0088752Y0045000D01*
X0088692Y0045002D01*
X0088631Y0045007D01*
X0088572Y0045016D01*
X0088513Y0045029D01*
X0088454Y0045045D01*
X0088397Y0045065D01*
X0088342Y0045088D01*
X0088287Y0045115D01*
X0088235Y0045144D01*
X0088184Y0045177D01*
X0088135Y0045213D01*
X0088089Y0045251D01*
X0088045Y0045293D01*
X0088003Y0045337D01*
X0087965Y0045383D01*
X0087929Y0045432D01*
X0087896Y0045483D01*
X0087867Y0045535D01*
X0087840Y0045590D01*
X0087817Y0045645D01*
X0087797Y0045702D01*
X0087781Y0045761D01*
X0087768Y0045820D01*
X0087759Y0045879D01*
X0087754Y0045940D01*
X0087752Y0046000D01*
X0049827Y0479902D02*
X0043678Y0479902D01*
X0043678Y0491102D02*
X0049827Y0491102D01*
D11*
X0048721Y0490028D03*
D12*
X0049251Y0492401D02*
X0048650Y0493001D01*
X0048650Y0496004D01*
X0047369Y0494803D02*
X0046168Y0496004D01*
X0046168Y0492401D01*
X0047369Y0492401D02*
X0044967Y0492401D01*
X0043686Y0493001D02*
X0043086Y0492401D01*
X0041885Y0492401D01*
X0041284Y0493001D01*
X0041284Y0494202D01*
X0041885Y0494803D01*
X0042485Y0494803D01*
X0043686Y0494202D01*
X0043686Y0496004D01*
X0041284Y0496004D01*
X0037852Y0498000D02*
X0055652Y0498000D01*
X0051052Y0496004D02*
X0051052Y0493001D01*
X0050452Y0492401D01*
X0049251Y0492401D01*
X0060720Y0475665D02*
X0059952Y0474898D01*
X0059952Y0473363D01*
X0060720Y0472596D01*
X0063789Y0475665D01*
X0060720Y0475665D01*
X0060720Y0472596D02*
X0063789Y0472596D01*
X0064556Y0473363D01*
X0064556Y0474898D01*
X0063789Y0475665D01*
X0062254Y0471061D02*
X0062254Y0467992D01*
X0064556Y0470294D01*
X0059952Y0470294D01*
X0059952Y0466457D02*
X0061487Y0464923D01*
X0061487Y0465690D02*
X0061487Y0463388D01*
X0059952Y0463388D02*
X0064556Y0463388D01*
X0064556Y0465690D01*
X0063789Y0466457D01*
X0062254Y0466457D01*
X0061487Y0465690D01*
X0068952Y0466457D02*
X0070487Y0464923D01*
X0070487Y0465690D02*
X0070487Y0463388D01*
X0068952Y0463388D02*
X0073556Y0463388D01*
X0073556Y0465690D01*
X0072789Y0466457D01*
X0071254Y0466457D01*
X0070487Y0465690D01*
X0071254Y0467992D02*
X0071254Y0471061D01*
X0072022Y0472596D02*
X0073556Y0474131D01*
X0068952Y0474131D01*
X0068952Y0475665D02*
X0068952Y0472596D01*
X0068952Y0470294D02*
X0073556Y0470294D01*
X0071254Y0467992D01*
X0077952Y0480388D02*
X0082556Y0480388D01*
X0082556Y0482690D01*
X0081789Y0483457D01*
X0080254Y0483457D01*
X0079487Y0482690D01*
X0079487Y0480388D01*
X0079487Y0481923D02*
X0077952Y0483457D01*
X0078720Y0484992D02*
X0077952Y0485759D01*
X0077952Y0487294D01*
X0078720Y0488061D01*
X0079487Y0488061D01*
X0080254Y0487294D01*
X0080254Y0486527D01*
X0080254Y0487294D02*
X0081022Y0488061D01*
X0081789Y0488061D01*
X0082556Y0487294D01*
X0082556Y0485759D01*
X0081789Y0484992D01*
X0081789Y0489596D02*
X0081022Y0489596D01*
X0080254Y0490363D01*
X0080254Y0492665D01*
X0078720Y0492665D02*
X0081789Y0492665D01*
X0082556Y0491898D01*
X0082556Y0490363D01*
X0081789Y0489596D01*
X0078720Y0489596D02*
X0077952Y0490363D01*
X0077952Y0491898D01*
X0078720Y0492665D01*
X0055652Y0513000D02*
X0037852Y0513000D01*
X0031056Y0507898D02*
X0030289Y0508665D01*
X0029522Y0508665D01*
X0028754Y0507898D01*
X0028754Y0506363D01*
X0029522Y0505596D01*
X0030289Y0505596D01*
X0031056Y0506363D01*
X0031056Y0507898D01*
X0028754Y0507898D02*
X0027987Y0508665D01*
X0027220Y0508665D01*
X0026452Y0507898D01*
X0026452Y0506363D01*
X0027220Y0505596D01*
X0027987Y0505596D01*
X0028754Y0506363D01*
X0027220Y0504061D02*
X0030289Y0504061D01*
X0031056Y0503294D01*
X0031056Y0500992D01*
X0026452Y0500992D01*
X0026452Y0503294D01*
X0027220Y0504061D01*
X0032122Y0460304D02*
X0032122Y0455700D01*
X0033656Y0455700D02*
X0030587Y0455700D01*
X0033656Y0458769D02*
X0032122Y0460304D01*
X0035191Y0455700D02*
X0038260Y0455700D01*
X0038260Y0460304D01*
D13*
X0045993Y0501563D02*
X0045993Y0509437D01*
X0050020Y0505500D01*
X0045993Y0501563D01*
X0124941Y0483587D02*
X0124941Y0452878D01*
X0148563Y0452878D01*
X0148563Y0483587D01*
X0144626Y0483587D01*
X0144626Y0476500D01*
X0128878Y0476500D02*
X0128878Y0483587D01*
X0124941Y0483587D01*
D14*
X0094161Y0483155D02*
X0093544Y0482538D01*
X0091075Y0482538D01*
X0090458Y0483155D01*
X0090458Y0484389D01*
X0091075Y0485006D01*
X0090458Y0486221D02*
X0090458Y0488689D01*
X0090458Y0487455D02*
X0094161Y0487455D01*
X0092926Y0486221D01*
X0093544Y0485006D02*
X0094161Y0484389D01*
X0094161Y0483155D01*
X0088161Y0483155D02*
X0087544Y0482538D01*
X0085075Y0482538D01*
X0084458Y0483155D01*
X0084458Y0484389D01*
X0085075Y0485006D01*
X0084458Y0486221D02*
X0084458Y0488689D01*
X0084458Y0487455D02*
X0088161Y0487455D01*
X0086926Y0486221D01*
X0087544Y0485006D02*
X0088161Y0484389D01*
X0088161Y0483155D01*
X0087544Y0489904D02*
X0086926Y0489904D01*
X0086309Y0490521D01*
X0086309Y0491755D01*
X0085692Y0492373D01*
X0085075Y0492373D01*
X0084458Y0491755D01*
X0084458Y0490521D01*
X0085075Y0489904D01*
X0085692Y0489904D01*
X0086309Y0490521D01*
X0086309Y0491755D02*
X0086926Y0492373D01*
X0087544Y0492373D01*
X0088161Y0491755D01*
X0088161Y0490521D01*
X0087544Y0489904D01*
X0090458Y0490521D02*
X0090458Y0491755D01*
X0091075Y0492373D01*
X0093544Y0492373D01*
X0094161Y0491755D01*
X0094161Y0490521D01*
X0093544Y0489904D01*
X0092926Y0489904D01*
X0092309Y0490521D01*
X0092309Y0492373D01*
X0090458Y0490521D02*
X0091075Y0489904D01*
X0037715Y0482291D02*
X0037715Y0479822D01*
X0037098Y0479205D01*
X0035863Y0479205D01*
X0035246Y0479822D01*
X0034032Y0479205D02*
X0031563Y0481674D01*
X0031563Y0482291D01*
X0032180Y0482908D01*
X0033415Y0482908D01*
X0034032Y0482291D01*
X0035246Y0482291D02*
X0035863Y0482908D01*
X0037098Y0482908D01*
X0037715Y0482291D01*
X0034032Y0479205D02*
X0031563Y0479205D01*
X0030349Y0479822D02*
X0027880Y0482291D01*
X0027880Y0479822D01*
X0028497Y0479205D01*
X0029731Y0479205D01*
X0030349Y0479822D01*
X0030349Y0482291D01*
X0029731Y0482908D01*
X0028497Y0482908D01*
X0027880Y0482291D01*
X0025715Y0482291D02*
X0025715Y0479822D01*
X0025098Y0479205D01*
X0023863Y0479205D01*
X0023246Y0479822D01*
X0022032Y0479205D02*
X0019563Y0481674D01*
X0019563Y0482291D01*
X0020180Y0482908D01*
X0021415Y0482908D01*
X0022032Y0482291D01*
X0023246Y0482291D02*
X0023863Y0482908D01*
X0025098Y0482908D01*
X0025715Y0482291D01*
X0022032Y0479205D02*
X0019563Y0479205D01*
X0018349Y0479205D02*
X0015880Y0479205D01*
X0017114Y0479205D02*
X0017114Y0482908D01*
X0018349Y0481674D01*
D15*
X0061502Y0046001D02*
X0062253Y0045250D01*
X0061502Y0046001D02*
X0061502Y0047502D01*
X0062253Y0048253D01*
X0063004Y0048253D01*
X0063754Y0047502D01*
X0063754Y0046001D01*
X0064505Y0045250D01*
X0065256Y0045250D01*
X0066006Y0046001D01*
X0066006Y0047502D01*
X0065256Y0048253D01*
X0066006Y0051355D02*
X0066006Y0052856D01*
X0066006Y0052106D02*
X0062253Y0052106D01*
X0061502Y0051355D01*
X0061502Y0050605D01*
X0062253Y0049854D01*
X0062253Y0054458D02*
X0061502Y0055208D01*
X0061502Y0056710D01*
X0062253Y0057460D01*
X0063004Y0057460D01*
X0063754Y0056710D01*
X0063754Y0055959D01*
X0063754Y0056710D02*
X0064505Y0057460D01*
X0065256Y0057460D01*
X0066006Y0056710D01*
X0066006Y0055208D01*
X0065256Y0054458D01*
X0100502Y0054458D02*
X0103505Y0057460D01*
X0104256Y0057460D01*
X0105006Y0056710D01*
X0105006Y0055208D01*
X0104256Y0054458D01*
X0105006Y0052856D02*
X0105006Y0051355D01*
X0105006Y0052106D02*
X0101253Y0052106D01*
X0100502Y0051355D01*
X0100502Y0050605D01*
X0101253Y0049854D01*
X0101253Y0048253D02*
X0100502Y0047502D01*
X0100502Y0046001D01*
X0101253Y0045250D01*
X0102754Y0046001D02*
X0102754Y0047502D01*
X0102004Y0048253D01*
X0101253Y0048253D01*
X0102754Y0046001D02*
X0103505Y0045250D01*
X0104256Y0045250D01*
X0105006Y0046001D01*
X0105006Y0047502D01*
X0104256Y0048253D01*
X0107502Y0048502D02*
X0107502Y0047001D01*
X0108253Y0046250D01*
X0109754Y0047001D02*
X0109754Y0048502D01*
X0109004Y0049253D01*
X0108253Y0049253D01*
X0107502Y0048502D01*
X0108253Y0050854D02*
X0107502Y0051605D01*
X0107502Y0052355D01*
X0108253Y0053106D01*
X0112006Y0053106D01*
X0112006Y0053856D02*
X0112006Y0052355D01*
X0111256Y0049253D02*
X0112006Y0048502D01*
X0112006Y0047001D01*
X0111256Y0046250D01*
X0110505Y0046250D01*
X0109754Y0047001D01*
X0110505Y0055458D02*
X0112006Y0056959D01*
X0107502Y0056959D01*
X0107502Y0055458D02*
X0107502Y0058460D01*
X0100502Y0057460D02*
X0100502Y0054458D01*
D16*
X0132425Y0454202D02*
X0132425Y0455703D01*
X0133176Y0454953D01*
X0132175Y0454953D01*
X0133648Y0454953D02*
X0133898Y0454702D01*
X0134649Y0454702D01*
X0134649Y0454202D02*
X0134649Y0455703D01*
X0133898Y0455703D01*
X0133648Y0455453D01*
X0133648Y0454953D01*
X0135121Y0455703D02*
X0135622Y0455703D01*
X0135372Y0455703D02*
X0135372Y0454452D01*
X0135622Y0454202D01*
X0135872Y0454202D01*
X0136122Y0454452D01*
M02*
