%
M48
M72
T01C0.0197
T02C0.0276
T03C0.0320
T04C0.0394
T05C0.0400
T06C0.0433
T07C0.0591
T08C0.1260
%
T01
X2175Y3150
X2175Y4150
X2175Y5150
X2175Y6150
X2175Y7150
X2175Y8150
X2175Y9150
X2175Y10150
X2175Y11150
X2175Y12150
X2175Y13150
X2175Y14150
X2175Y15150
X2175Y16150
X2175Y17150
X2175Y18150
X2175Y19150
X2175Y20150
X2175Y21150
X2175Y22150
X2175Y23150
X2175Y24150
X2175Y25150
X2175Y26150
X2175Y27150
X2175Y28150
X2175Y29150
X2175Y30150
X2175Y31150
X2175Y32150
X2175Y33150
X2175Y34150
X2175Y35150
X2175Y36050
X3175Y35150
X3175Y34150
X3175Y33150
X3175Y32150
X3175Y31150
X3175Y30150
X3175Y29150
X3175Y26150
X3175Y25150
X3175Y24150
X3175Y23150
X3175Y22150
X3175Y21150
X3175Y20150
X3175Y19150
X3575Y18750
X3175Y18150
X3175Y17150
X3175Y16150
X3175Y15150
X3175Y14150
X3175Y13150
X3175Y12150
X3175Y11150
X3175Y10150
X3175Y9150
X3175Y8150
X3175Y7150
X3175Y6150
X3175Y5150
X3175Y4150
X3175Y3150
X4175Y3150
X4175Y2150
X4175Y1150
X5175Y1150
X5175Y2150
X5175Y2650
X6175Y2150
X6175Y1150
X7175Y1150
X8175Y1150
X9175Y1150
X10175Y1150
X11175Y1150
X12175Y1150
X13175Y1150
X14175Y1150
X15175Y1150
X16175Y1150
X17175Y1150
X18175Y1150
X19175Y1150
X20175Y1150
X20175Y2150
X19175Y3150
X18175Y3150
X18175Y4150
X16175Y4150
X16175Y3150
X15175Y3150
X14175Y3150
X13675Y3650
X13375Y5150
X12175Y5550
X11675Y4650
X12175Y4350
X9775Y4650
X10075Y5650
X10175Y7650
X11175Y7650
X9675Y9850
X8675Y10550
X8275Y10250
X7975Y9850
X7175Y10150
X6175Y10650
X5675Y9650
X4175Y10150
X4175Y8150
X4175Y7150
X4175Y5150
X5675Y5150
X6175Y4650
X6175Y5650
X7175Y7650
X8175Y7650
X9175Y7650
X11675Y10150
X13075Y10850
X13675Y10450
X13375Y9950
X14675Y10650
X15075Y9650
X15475Y9350
X15675Y8650
X16075Y7750
X15275Y7250
X13375Y7750
X15675Y10150
X15675Y12150
X16075Y13650
X17275Y13950
X18175Y13750
X19675Y13150
X21175Y12450
X21875Y12850
X22175Y13550
X22175Y15650
X22175Y16850
X21975Y17250
X21675Y18650
X21275Y19950
X20175Y18650
X20075Y16850
X18775Y19050
X18175Y18650
X18175Y16850
X15175Y19050
X14675Y18650
X13675Y17650
X12675Y16950
X12375Y16150
X12075Y15750
X10975Y15450
X10275Y16450
X9875Y16750
X9675Y15650
X8675Y17650
X7775Y17250
X6775Y16350
X6775Y15550
X5975Y17650
X6175Y18650
X4175Y15150
X4175Y14150
X4175Y13150
X4175Y12150
X6175Y12650
X10175Y12450
X10675Y13150
X13575Y12750
X14275Y15850
X12675Y18650
X11675Y18150
X10675Y18150
X9975Y19150
X10375Y19450
X9675Y18650
X10175Y21850
X10175Y23550
X9575Y24450
X8675Y24250
X7675Y24750
X6975Y24350
X6975Y26650
X7175Y27150
X6175Y27150
X6175Y28150
X7175Y28150
X8175Y28450
X9375Y28850
X9575Y31050
X9875Y31850
X8375Y31850
X7775Y32350
X6175Y32150
X6175Y33150
X6175Y34150
X4775Y35650
X4275Y36050
X3175Y38150
X2175Y38150
X3975Y39450
X5175Y39750
X5675Y39750
X5875Y38650
X6275Y38350
X6675Y39050
X7975Y38450
X8675Y38650
X9075Y39050
X10175Y38650
X11275Y39150
X11675Y39450
X12275Y38650
X12575Y39250
X12875Y38850
X13275Y39150
X13875Y39750
X14275Y39450
X14275Y38550
X14275Y36850
X15675Y37150
X16175Y36550
X17675Y35650
X17675Y32750
X16875Y32750
X15675Y32750
X13975Y32750
X13675Y28650
X13375Y27650
X14675Y27150
X12675Y23850
X12275Y24250
X11675Y27150
X11175Y27650
X15175Y23550
X12175Y21450
X17275Y29050
X17675Y29650
X18675Y32450
X19675Y32250
X19675Y33050
X20675Y33250
X20675Y32050
X21675Y31850
X22675Y31650
X23175Y31650
X23675Y31450
X24675Y31250
X25675Y31050
X26275Y31450
X25975Y31850
X26675Y30850
X27675Y30650
X28675Y31150
X28675Y32150
X28375Y32850
X28575Y33350
X29175Y33650
X28675Y34650
X27675Y34450
X26675Y34250
X25675Y34050
X24975Y33750
X23675Y33650
X22675Y33450
X23175Y36150
X23175Y38150
X24175Y39050
X24675Y38850
X25275Y39250
X25675Y38650
X26675Y39450
X27675Y39650
X28375Y38950
X28675Y39950
X27675Y40650
X26675Y41150
X25175Y41650
X23575Y43250
X23075Y43450
X21375Y43450
X20675Y44050
X20575Y43550
X19575Y43250
X19175Y43550
X18875Y43950
X18475Y44650
X18075Y44350
X17775Y44750
X17175Y45050
X15675Y46350
X14475Y44950
X14175Y46650
X14175Y48950
X14175Y50150
X13175Y50150
X12575Y49650
X12575Y48950
X11775Y48650
X12575Y47750
X11775Y50750
X9975Y51350
X9175Y49150
X9175Y48150
X9975Y48250
X9775Y45950
X8775Y44950
X8175Y47150
X8175Y48150
X8175Y49150
X6675Y49650
X5675Y49650
X4675Y51150
X2675Y51150
X2675Y50150
X1675Y50050
X2675Y47050
X4175Y46150
X4775Y45650
X4375Y45250
X4975Y44850
X5475Y45050
X5175Y46150
X5175Y47150
X6175Y47150
X6175Y46150
X7175Y46150
X7175Y47150
X7175Y44050
X9675Y41850
X10175Y43150
X10575Y42050
X11675Y41950
X12275Y41850
X12775Y42050
X8975Y36850
X7975Y39750
X2975Y44150
X2675Y44550
X2175Y44150
X2175Y43150
X3175Y45150
X15675Y49150
X15675Y50150
X17175Y50150
X17175Y49150
X18675Y49150
X18675Y50150
X20175Y50150
X20175Y49150
X18975Y46550
X18975Y44850
X21175Y46150
X22175Y49150
X22175Y50150
X23675Y50150
X23675Y49150
X25175Y49150
X25175Y50150
X26675Y50150
X26675Y49150
X28175Y49150
X28175Y50150
X29675Y50150
X29675Y49150
X31175Y49150
X31175Y50150
X32175Y49150
X32175Y48150
X32175Y47150
X32175Y46150
X32175Y45150
X32175Y44150
X32175Y43150
X32175Y42150
X31175Y44150
X31175Y45150
X30175Y44150
X29675Y42750
X30275Y42650
X30875Y42550
X30775Y40050
X30475Y39650
X30175Y39250
X29875Y38850
X29675Y38350
X29975Y36950
X28375Y36650
X27175Y36450
X27175Y37650
X27875Y42650
X27675Y44150
X27475Y44750
X27075Y44450
X26575Y44150
X26075Y43850
X24675Y45650
X27875Y46350
X29175Y46450
X29675Y45950
X33175Y46150
X33175Y45150
X34175Y45150
X34175Y46150
X34175Y47150
X33175Y47150
X34175Y51150
X21675Y39150
X20675Y39450
X17675Y39450
X25975Y28250
X26175Y27650
X26775Y27950
X26475Y28450
X26975Y28650
X27775Y27650
X28175Y26650
X27175Y26650
X26175Y26650
X25675Y24150
X25175Y23250
X23675Y24050
X23175Y21850
X25075Y19850
X25175Y18150
X25875Y16550
X25175Y16150
X25675Y15550
X26675Y15150
X27675Y13650
X28575Y13950
X30175Y13350
X30475Y12950
X30775Y13550
X30975Y14650
X31875Y13650
X33175Y13150
X33175Y12150
X33175Y11150
X33175Y10150
X33175Y9150
X32175Y9150
X32175Y8150
X32175Y7150
X32175Y6150
X32175Y5150
X32175Y4150
X32175Y3150
X32175Y2150
X32175Y1150
X31175Y1150
X31175Y2150
X31175Y3150
X30175Y3150
X30175Y2150
X30175Y1150
X29175Y1150
X29175Y2150
X29175Y3150
X29175Y4150
X29175Y5150
X28175Y5150
X27175Y5150
X28175Y4150
X28175Y3150
X27175Y2150
X27175Y1150
X28175Y1150
X26175Y1150
X26175Y2150
X25175Y2150
X25175Y1150
X24175Y1150
X23175Y1150
X22175Y1150
X22175Y2150
X21175Y2150
X21175Y1150
X23175Y2650
X22675Y4650
X23175Y5650
X23675Y4650
X24175Y7850
X25175Y7850
X24175Y9650
X23675Y10150
X22975Y10250
X24675Y10150
X25475Y10550
X25875Y10050
X26675Y9650
X27675Y9650
X28375Y9950
X29575Y10850
X30675Y9650
X31675Y10650
X31975Y10150
X31175Y8150
X31175Y7150
X31175Y6150
X30175Y6150
X30175Y7150
X30175Y8150
X29275Y8150
X28875Y8350
X28075Y7550
X26175Y5150
X27675Y11650
X26175Y12950
X25175Y13650
X23575Y16350
X23675Y18150
X23175Y18850
X26675Y18150
X27775Y17650
X28075Y18650
X28375Y19050
X27675Y20150
X27175Y20650
X26675Y19650
X28675Y24150
X29675Y23850
X30675Y23650
X31675Y24150
X32775Y24550
X33175Y24150
X33175Y23150
X33175Y22150
X33175Y21150
X33175Y20150
X33175Y19150
X33175Y18150
X33175Y17150
X33175Y16150
X33175Y15150
X33175Y14150
X34175Y14150
X34175Y13150
X34175Y12150
X34175Y11150
X34175Y10150
X34175Y9150
X34175Y8150
X34175Y7150
X34175Y6150
X34175Y5150
X34175Y4150
X34175Y3150
X33175Y3150
X33175Y4150
X33175Y5150
X33175Y6150
X33175Y7150
X33175Y8150
X30675Y12150
X30975Y17150
X31075Y19350
X31975Y21850
X34175Y22150
X34175Y23150
X34175Y24150
X34175Y25150
X34175Y26150
X34175Y27150
X34175Y28150
X34175Y29150
X34175Y30150
X33175Y30150
X33175Y29150
X32275Y29450
X32175Y28650
X31775Y28950
X31575Y28150
X31175Y27250
X29675Y27650
X29175Y26550
X28875Y28250
X28075Y28850
X29975Y30450
X29675Y32150
X27575Y32350
X23075Y26350
X19175Y23550
X18175Y24350
X17675Y10650
X18675Y10650
X19675Y10150
X20175Y10550
X20675Y10250
X18075Y9450
X17275Y7850
X17675Y7050
X15175Y4150
X21175Y5650
X34175Y15150
X34175Y16150
X34175Y17150
X34175Y18150
X34175Y19150
X34175Y20150
X34175Y21150
X33175Y25150
X33175Y26150
X33175Y27150
X33175Y28150
T02
X14069Y47650
X13282Y47650
T03
X13675Y40650
X12675Y40650
X11675Y40650
X10675Y40650
X9675Y40650
X8675Y40650
X7675Y40650
X6675Y40650
X5675Y40650
X4675Y40150
X4675Y38150
X5675Y37650
X6175Y36650
X5675Y35650
X6675Y35650
X7675Y35650
X8675Y35650
X9675Y35650
X10675Y35650
X11675Y35650
X12675Y35650
X13675Y35650
X14675Y35650
X15675Y35650
X16675Y35650
X16675Y37650
X17675Y37650
X18675Y37650
X19675Y37650
X20675Y37650
X21675Y37650
X22675Y37650
X23675Y37650
X24675Y37650
X25675Y37650
X25675Y35650
X26675Y35650
X27675Y35650
X28675Y35650
X29675Y35650
X29675Y29650
X28675Y29650
X27675Y29650
X26675Y29650
X25675Y29650
X24675Y29650
X23675Y29650
X22675Y29650
X21675Y29650
X20675Y29650
X19675Y29650
X18675Y29650
X18675Y27650
X17675Y27650
X16675Y27650
X15675Y27650
X14175Y27650
X13675Y25650
X12675Y25150
X11675Y25650
X10675Y25650
X9675Y25650
X8675Y25650
X7675Y25650
X6675Y25650
X5675Y25650
X4675Y25150
X4675Y23150
X4675Y21650
X4675Y20650
X5675Y21650
X5675Y22650
X6675Y22650
X7675Y22650
X7675Y21650
X7675Y20650
X8675Y20650
X9675Y20650
X10675Y20650
X11675Y20650
X12675Y20650
X13675Y20650
X14675Y20650
X15675Y20650
X16675Y20650
X17675Y20650
X18675Y20650
X19675Y20650
X20675Y20650
X21675Y20650
X22675Y20650
X23675Y20650
X24675Y20650
X25675Y20650
X25675Y22650
X26675Y22650
X27675Y22650
X28675Y22650
X29675Y22650
X30675Y22650
X31675Y22650
X32175Y20650
X32175Y19650
X32175Y18650
X32175Y17650
X32175Y16650
X32175Y15650
X32175Y14650
X31675Y12650
X31175Y11150
X30675Y10400
X30175Y11150
X29675Y9650
X29675Y8650
X29675Y7650
X28675Y7050
X28675Y6250
X29975Y4650
X31375Y4650
X31675Y7650
X31675Y8650
X31675Y9650
X29675Y12650
X28675Y12150
X29175Y14650
X29175Y15650
X29175Y16650
X29175Y17650
X29175Y18650
X29175Y19650
X29175Y20650
X27175Y16650
X27175Y14650
X25675Y14650
X24675Y14650
X23675Y14650
X22675Y14650
X21675Y14650
X20675Y14650
X19675Y14650
X18675Y14650
X17675Y14650
X16675Y14650
X15675Y14650
X14675Y14650
X13675Y14650
X12675Y14650
X11675Y14650
X10675Y14650
X9675Y14650
X8675Y14650
X7675Y14650
X6675Y14650
X6675Y13150
X6675Y11650
X5675Y11650
X4675Y11150
X4675Y9150
X5675Y8650
X6675Y8650
X7675Y8650
X8675Y8650
X9675Y8650
X10675Y8650
X11675Y8650
X12675Y8650
X13675Y8650
X14675Y8650
X14175Y6650
X15175Y6650
X16175Y6650
X17175Y6650
X18175Y6650
X19675Y6150
X20675Y6650
X21675Y6650
X22675Y6650
X23675Y6650
X24675Y6650
X25675Y6650
X26675Y6650
X26675Y8650
X25675Y8650
X24675Y8650
X23675Y8650
X22675Y8650
X21675Y8650
X20675Y8650
X19675Y8650
X18675Y8650
X17675Y8650
X16675Y9150
X16675Y11150
X17675Y11650
X17675Y13150
X18675Y13150
X18675Y11650
X19675Y11650
X20675Y11650
X21675Y11650
X20675Y13150
X22675Y11650
X23675Y11650
X24675Y11650
X25675Y11650
X26675Y11650
X28675Y9150
X26675Y3650
X25675Y3650
X24675Y3650
X23675Y3650
X22675Y3650
X21675Y3650
X20675Y3650
X19675Y4150
X18675Y2150
X16675Y2150
X15675Y2150
X14175Y4650
X12675Y3650
X12675Y2150
X13675Y2150
X11675Y3650
X10675Y3650
X10675Y2150
X9675Y2150
X9675Y3650
X8675Y3650
X7675Y3650
X7675Y2150
X6675Y3650
X5675Y3650
X4675Y4150
X4675Y6150
X5675Y6650
X6675Y6650
X7675Y6650
X8675Y6650
X9675Y6650
X10675Y6650
X11675Y6650
X12675Y6650
X12675Y11650
X13675Y11650
X12675Y13150
X11675Y13150
X11675Y11650
X10675Y11650
X9675Y11650
X9675Y13150
X8675Y13150
X8675Y11650
X7675Y11650
X5175Y13650
X5175Y15650
X6675Y20650
X8675Y22650
X9675Y22650
X10675Y22650
X11675Y22650
X12675Y23150
X13675Y22650
X14675Y22650
X15675Y22650
X16675Y22650
X17675Y22650
X18675Y22650
X19675Y22650
X20675Y22650
X21675Y22650
X22675Y22650
X23675Y23150
X24675Y22650
X23675Y25150
X22675Y25650
X21675Y25650
X20675Y25650
X19675Y25650
X18675Y25650
X17675Y25650
X16675Y25650
X15675Y25650
X14675Y25650
X12175Y27650
X11675Y29650
X10675Y29650
X9675Y29650
X8675Y29650
X7675Y29650
X6675Y29650
X5675Y29650
X3675Y28350
X3675Y26950
X4175Y36650
X6675Y37650
X7675Y37650
X8675Y37650
X9675Y37650
X10675Y37650
X11675Y37650
X12675Y37650
X13675Y37650
X14675Y37650
X15675Y38150
X15675Y40150
X14675Y40650
X16675Y40650
X17675Y40650
X18675Y40650
X19675Y40650
X20675Y40650
X21675Y40650
X22675Y40650
X23675Y40650
X24675Y40650
X25675Y40650
X24675Y35650
X23675Y35650
X22675Y35650
X21675Y35650
X20675Y35650
X19675Y35650
X18675Y35650
X16675Y29650
X15675Y29650
X14675Y29650
X13675Y29650
X12675Y29650
X19675Y27650
X20675Y27650
X21675Y27650
X22675Y27650
X23675Y27650
X24675Y25650
X25675Y25650
X26675Y25650
X27675Y25650
X28675Y25650
X29675Y25650
X30675Y25650
X31675Y25650
X33426Y48150
X33426Y49150
X33426Y50150
X34725Y50150
X34725Y49150
X34725Y48150
X15675Y13150
X14675Y13150
X14675Y11650
T04
X2175Y37264
X2175Y39036
X1852Y45394
X1852Y50906
X10908Y50906
X10908Y49650
X10908Y46650
X10908Y45394
T05
X10675Y43650
X10675Y42650
X9675Y42650
X9675Y43650
X8675Y43650
X8675Y42650
X7675Y42650
X7675Y43650
X6675Y43650
X6675Y42650
X5675Y42650
X5675Y43650
X4675Y43650
X4675Y42650
X3675Y42650
X3675Y43650
X11675Y43650
X11675Y42650
X12675Y42650
X12675Y43650
X13675Y43650
X13675Y42650
X14675Y42650
X14675Y43650
X15675Y43650
X15675Y42650
X16675Y42650
X16675Y43650
X16675Y47150
X16675Y48150
X17675Y48150
X17675Y47150
X18675Y47150
X18675Y48150
X19675Y48150
X19675Y47150
X20675Y47150
X20675Y48150
X21675Y48150
X21675Y47150
X22675Y47150
X22675Y48150
X23675Y48150
X23675Y47150
X24675Y47150
X24675Y48150
X25675Y48150
X25675Y47150
X26675Y47150
X26675Y48150
X27675Y48150
X27675Y47150
X28675Y47150
X28675Y48150
X29675Y48150
X29675Y47150
X30675Y47150
X30675Y48150
X15675Y48150
X15675Y47150
T06
X17675Y5634
X17675Y3666
T07
X3159Y36772
X3159Y39528
T08
X2675Y1650
X33675Y1650
X33675Y43150
M30
