G75*
%MOIN*%
%OFA0B0*%
%FSLAX25Y25*%
%IPPOS*%
%LPD*%
%AMOC8*
5,1,8,0,0,1.08239X$1,22.5*
%
%ADD10C,0.01000*%
%ADD11C,0.00000*%
D10*
X0011752Y0001500D02*
X0011752Y0518500D01*
X0351752Y0518500D01*
X0351752Y0001500D01*
X0011752Y0001500D01*
D11*
X0020453Y0016500D02*
X0020455Y0016658D01*
X0020461Y0016816D01*
X0020471Y0016974D01*
X0020485Y0017132D01*
X0020503Y0017289D01*
X0020524Y0017446D01*
X0020550Y0017602D01*
X0020580Y0017758D01*
X0020613Y0017913D01*
X0020651Y0018066D01*
X0020692Y0018219D01*
X0020737Y0018371D01*
X0020786Y0018522D01*
X0020839Y0018671D01*
X0020895Y0018819D01*
X0020955Y0018965D01*
X0021019Y0019110D01*
X0021087Y0019253D01*
X0021158Y0019395D01*
X0021232Y0019535D01*
X0021310Y0019672D01*
X0021392Y0019808D01*
X0021476Y0019942D01*
X0021565Y0020073D01*
X0021656Y0020202D01*
X0021751Y0020329D01*
X0021848Y0020454D01*
X0021949Y0020576D01*
X0022053Y0020695D01*
X0022160Y0020812D01*
X0022270Y0020926D01*
X0022383Y0021037D01*
X0022498Y0021146D01*
X0022616Y0021251D01*
X0022737Y0021353D01*
X0022860Y0021453D01*
X0022986Y0021549D01*
X0023114Y0021642D01*
X0023244Y0021732D01*
X0023377Y0021818D01*
X0023512Y0021902D01*
X0023648Y0021981D01*
X0023787Y0022058D01*
X0023928Y0022130D01*
X0024070Y0022200D01*
X0024214Y0022265D01*
X0024360Y0022327D01*
X0024507Y0022385D01*
X0024656Y0022440D01*
X0024806Y0022491D01*
X0024957Y0022538D01*
X0025109Y0022581D01*
X0025262Y0022620D01*
X0025417Y0022656D01*
X0025572Y0022687D01*
X0025728Y0022715D01*
X0025884Y0022739D01*
X0026041Y0022759D01*
X0026199Y0022775D01*
X0026356Y0022787D01*
X0026515Y0022795D01*
X0026673Y0022799D01*
X0026831Y0022799D01*
X0026989Y0022795D01*
X0027148Y0022787D01*
X0027305Y0022775D01*
X0027463Y0022759D01*
X0027620Y0022739D01*
X0027776Y0022715D01*
X0027932Y0022687D01*
X0028087Y0022656D01*
X0028242Y0022620D01*
X0028395Y0022581D01*
X0028547Y0022538D01*
X0028698Y0022491D01*
X0028848Y0022440D01*
X0028997Y0022385D01*
X0029144Y0022327D01*
X0029290Y0022265D01*
X0029434Y0022200D01*
X0029576Y0022130D01*
X0029717Y0022058D01*
X0029856Y0021981D01*
X0029992Y0021902D01*
X0030127Y0021818D01*
X0030260Y0021732D01*
X0030390Y0021642D01*
X0030518Y0021549D01*
X0030644Y0021453D01*
X0030767Y0021353D01*
X0030888Y0021251D01*
X0031006Y0021146D01*
X0031121Y0021037D01*
X0031234Y0020926D01*
X0031344Y0020812D01*
X0031451Y0020695D01*
X0031555Y0020576D01*
X0031656Y0020454D01*
X0031753Y0020329D01*
X0031848Y0020202D01*
X0031939Y0020073D01*
X0032028Y0019942D01*
X0032112Y0019808D01*
X0032194Y0019672D01*
X0032272Y0019535D01*
X0032346Y0019395D01*
X0032417Y0019253D01*
X0032485Y0019110D01*
X0032549Y0018965D01*
X0032609Y0018819D01*
X0032665Y0018671D01*
X0032718Y0018522D01*
X0032767Y0018371D01*
X0032812Y0018219D01*
X0032853Y0018066D01*
X0032891Y0017913D01*
X0032924Y0017758D01*
X0032954Y0017602D01*
X0032980Y0017446D01*
X0033001Y0017289D01*
X0033019Y0017132D01*
X0033033Y0016974D01*
X0033043Y0016816D01*
X0033049Y0016658D01*
X0033051Y0016500D01*
X0033049Y0016342D01*
X0033043Y0016184D01*
X0033033Y0016026D01*
X0033019Y0015868D01*
X0033001Y0015711D01*
X0032980Y0015554D01*
X0032954Y0015398D01*
X0032924Y0015242D01*
X0032891Y0015087D01*
X0032853Y0014934D01*
X0032812Y0014781D01*
X0032767Y0014629D01*
X0032718Y0014478D01*
X0032665Y0014329D01*
X0032609Y0014181D01*
X0032549Y0014035D01*
X0032485Y0013890D01*
X0032417Y0013747D01*
X0032346Y0013605D01*
X0032272Y0013465D01*
X0032194Y0013328D01*
X0032112Y0013192D01*
X0032028Y0013058D01*
X0031939Y0012927D01*
X0031848Y0012798D01*
X0031753Y0012671D01*
X0031656Y0012546D01*
X0031555Y0012424D01*
X0031451Y0012305D01*
X0031344Y0012188D01*
X0031234Y0012074D01*
X0031121Y0011963D01*
X0031006Y0011854D01*
X0030888Y0011749D01*
X0030767Y0011647D01*
X0030644Y0011547D01*
X0030518Y0011451D01*
X0030390Y0011358D01*
X0030260Y0011268D01*
X0030127Y0011182D01*
X0029992Y0011098D01*
X0029856Y0011019D01*
X0029717Y0010942D01*
X0029576Y0010870D01*
X0029434Y0010800D01*
X0029290Y0010735D01*
X0029144Y0010673D01*
X0028997Y0010615D01*
X0028848Y0010560D01*
X0028698Y0010509D01*
X0028547Y0010462D01*
X0028395Y0010419D01*
X0028242Y0010380D01*
X0028087Y0010344D01*
X0027932Y0010313D01*
X0027776Y0010285D01*
X0027620Y0010261D01*
X0027463Y0010241D01*
X0027305Y0010225D01*
X0027148Y0010213D01*
X0026989Y0010205D01*
X0026831Y0010201D01*
X0026673Y0010201D01*
X0026515Y0010205D01*
X0026356Y0010213D01*
X0026199Y0010225D01*
X0026041Y0010241D01*
X0025884Y0010261D01*
X0025728Y0010285D01*
X0025572Y0010313D01*
X0025417Y0010344D01*
X0025262Y0010380D01*
X0025109Y0010419D01*
X0024957Y0010462D01*
X0024806Y0010509D01*
X0024656Y0010560D01*
X0024507Y0010615D01*
X0024360Y0010673D01*
X0024214Y0010735D01*
X0024070Y0010800D01*
X0023928Y0010870D01*
X0023787Y0010942D01*
X0023648Y0011019D01*
X0023512Y0011098D01*
X0023377Y0011182D01*
X0023244Y0011268D01*
X0023114Y0011358D01*
X0022986Y0011451D01*
X0022860Y0011547D01*
X0022737Y0011647D01*
X0022616Y0011749D01*
X0022498Y0011854D01*
X0022383Y0011963D01*
X0022270Y0012074D01*
X0022160Y0012188D01*
X0022053Y0012305D01*
X0021949Y0012424D01*
X0021848Y0012546D01*
X0021751Y0012671D01*
X0021656Y0012798D01*
X0021565Y0012927D01*
X0021476Y0013058D01*
X0021392Y0013192D01*
X0021310Y0013328D01*
X0021232Y0013465D01*
X0021158Y0013605D01*
X0021087Y0013747D01*
X0021019Y0013890D01*
X0020955Y0014035D01*
X0020895Y0014181D01*
X0020839Y0014329D01*
X0020786Y0014478D01*
X0020737Y0014629D01*
X0020692Y0014781D01*
X0020651Y0014934D01*
X0020613Y0015087D01*
X0020580Y0015242D01*
X0020550Y0015398D01*
X0020524Y0015554D01*
X0020503Y0015711D01*
X0020485Y0015868D01*
X0020471Y0016026D01*
X0020461Y0016184D01*
X0020455Y0016342D01*
X0020453Y0016500D01*
X0330453Y0016500D02*
X0330455Y0016658D01*
X0330461Y0016816D01*
X0330471Y0016974D01*
X0330485Y0017132D01*
X0330503Y0017289D01*
X0330524Y0017446D01*
X0330550Y0017602D01*
X0330580Y0017758D01*
X0330613Y0017913D01*
X0330651Y0018066D01*
X0330692Y0018219D01*
X0330737Y0018371D01*
X0330786Y0018522D01*
X0330839Y0018671D01*
X0330895Y0018819D01*
X0330955Y0018965D01*
X0331019Y0019110D01*
X0331087Y0019253D01*
X0331158Y0019395D01*
X0331232Y0019535D01*
X0331310Y0019672D01*
X0331392Y0019808D01*
X0331476Y0019942D01*
X0331565Y0020073D01*
X0331656Y0020202D01*
X0331751Y0020329D01*
X0331848Y0020454D01*
X0331949Y0020576D01*
X0332053Y0020695D01*
X0332160Y0020812D01*
X0332270Y0020926D01*
X0332383Y0021037D01*
X0332498Y0021146D01*
X0332616Y0021251D01*
X0332737Y0021353D01*
X0332860Y0021453D01*
X0332986Y0021549D01*
X0333114Y0021642D01*
X0333244Y0021732D01*
X0333377Y0021818D01*
X0333512Y0021902D01*
X0333648Y0021981D01*
X0333787Y0022058D01*
X0333928Y0022130D01*
X0334070Y0022200D01*
X0334214Y0022265D01*
X0334360Y0022327D01*
X0334507Y0022385D01*
X0334656Y0022440D01*
X0334806Y0022491D01*
X0334957Y0022538D01*
X0335109Y0022581D01*
X0335262Y0022620D01*
X0335417Y0022656D01*
X0335572Y0022687D01*
X0335728Y0022715D01*
X0335884Y0022739D01*
X0336041Y0022759D01*
X0336199Y0022775D01*
X0336356Y0022787D01*
X0336515Y0022795D01*
X0336673Y0022799D01*
X0336831Y0022799D01*
X0336989Y0022795D01*
X0337148Y0022787D01*
X0337305Y0022775D01*
X0337463Y0022759D01*
X0337620Y0022739D01*
X0337776Y0022715D01*
X0337932Y0022687D01*
X0338087Y0022656D01*
X0338242Y0022620D01*
X0338395Y0022581D01*
X0338547Y0022538D01*
X0338698Y0022491D01*
X0338848Y0022440D01*
X0338997Y0022385D01*
X0339144Y0022327D01*
X0339290Y0022265D01*
X0339434Y0022200D01*
X0339576Y0022130D01*
X0339717Y0022058D01*
X0339856Y0021981D01*
X0339992Y0021902D01*
X0340127Y0021818D01*
X0340260Y0021732D01*
X0340390Y0021642D01*
X0340518Y0021549D01*
X0340644Y0021453D01*
X0340767Y0021353D01*
X0340888Y0021251D01*
X0341006Y0021146D01*
X0341121Y0021037D01*
X0341234Y0020926D01*
X0341344Y0020812D01*
X0341451Y0020695D01*
X0341555Y0020576D01*
X0341656Y0020454D01*
X0341753Y0020329D01*
X0341848Y0020202D01*
X0341939Y0020073D01*
X0342028Y0019942D01*
X0342112Y0019808D01*
X0342194Y0019672D01*
X0342272Y0019535D01*
X0342346Y0019395D01*
X0342417Y0019253D01*
X0342485Y0019110D01*
X0342549Y0018965D01*
X0342609Y0018819D01*
X0342665Y0018671D01*
X0342718Y0018522D01*
X0342767Y0018371D01*
X0342812Y0018219D01*
X0342853Y0018066D01*
X0342891Y0017913D01*
X0342924Y0017758D01*
X0342954Y0017602D01*
X0342980Y0017446D01*
X0343001Y0017289D01*
X0343019Y0017132D01*
X0343033Y0016974D01*
X0343043Y0016816D01*
X0343049Y0016658D01*
X0343051Y0016500D01*
X0343049Y0016342D01*
X0343043Y0016184D01*
X0343033Y0016026D01*
X0343019Y0015868D01*
X0343001Y0015711D01*
X0342980Y0015554D01*
X0342954Y0015398D01*
X0342924Y0015242D01*
X0342891Y0015087D01*
X0342853Y0014934D01*
X0342812Y0014781D01*
X0342767Y0014629D01*
X0342718Y0014478D01*
X0342665Y0014329D01*
X0342609Y0014181D01*
X0342549Y0014035D01*
X0342485Y0013890D01*
X0342417Y0013747D01*
X0342346Y0013605D01*
X0342272Y0013465D01*
X0342194Y0013328D01*
X0342112Y0013192D01*
X0342028Y0013058D01*
X0341939Y0012927D01*
X0341848Y0012798D01*
X0341753Y0012671D01*
X0341656Y0012546D01*
X0341555Y0012424D01*
X0341451Y0012305D01*
X0341344Y0012188D01*
X0341234Y0012074D01*
X0341121Y0011963D01*
X0341006Y0011854D01*
X0340888Y0011749D01*
X0340767Y0011647D01*
X0340644Y0011547D01*
X0340518Y0011451D01*
X0340390Y0011358D01*
X0340260Y0011268D01*
X0340127Y0011182D01*
X0339992Y0011098D01*
X0339856Y0011019D01*
X0339717Y0010942D01*
X0339576Y0010870D01*
X0339434Y0010800D01*
X0339290Y0010735D01*
X0339144Y0010673D01*
X0338997Y0010615D01*
X0338848Y0010560D01*
X0338698Y0010509D01*
X0338547Y0010462D01*
X0338395Y0010419D01*
X0338242Y0010380D01*
X0338087Y0010344D01*
X0337932Y0010313D01*
X0337776Y0010285D01*
X0337620Y0010261D01*
X0337463Y0010241D01*
X0337305Y0010225D01*
X0337148Y0010213D01*
X0336989Y0010205D01*
X0336831Y0010201D01*
X0336673Y0010201D01*
X0336515Y0010205D01*
X0336356Y0010213D01*
X0336199Y0010225D01*
X0336041Y0010241D01*
X0335884Y0010261D01*
X0335728Y0010285D01*
X0335572Y0010313D01*
X0335417Y0010344D01*
X0335262Y0010380D01*
X0335109Y0010419D01*
X0334957Y0010462D01*
X0334806Y0010509D01*
X0334656Y0010560D01*
X0334507Y0010615D01*
X0334360Y0010673D01*
X0334214Y0010735D01*
X0334070Y0010800D01*
X0333928Y0010870D01*
X0333787Y0010942D01*
X0333648Y0011019D01*
X0333512Y0011098D01*
X0333377Y0011182D01*
X0333244Y0011268D01*
X0333114Y0011358D01*
X0332986Y0011451D01*
X0332860Y0011547D01*
X0332737Y0011647D01*
X0332616Y0011749D01*
X0332498Y0011854D01*
X0332383Y0011963D01*
X0332270Y0012074D01*
X0332160Y0012188D01*
X0332053Y0012305D01*
X0331949Y0012424D01*
X0331848Y0012546D01*
X0331751Y0012671D01*
X0331656Y0012798D01*
X0331565Y0012927D01*
X0331476Y0013058D01*
X0331392Y0013192D01*
X0331310Y0013328D01*
X0331232Y0013465D01*
X0331158Y0013605D01*
X0331087Y0013747D01*
X0331019Y0013890D01*
X0330955Y0014035D01*
X0330895Y0014181D01*
X0330839Y0014329D01*
X0330786Y0014478D01*
X0330737Y0014629D01*
X0330692Y0014781D01*
X0330651Y0014934D01*
X0330613Y0015087D01*
X0330580Y0015242D01*
X0330550Y0015398D01*
X0330524Y0015554D01*
X0330503Y0015711D01*
X0330485Y0015868D01*
X0330471Y0016026D01*
X0330461Y0016184D01*
X0330455Y0016342D01*
X0330453Y0016500D01*
X0330453Y0431500D02*
X0330455Y0431658D01*
X0330461Y0431816D01*
X0330471Y0431974D01*
X0330485Y0432132D01*
X0330503Y0432289D01*
X0330524Y0432446D01*
X0330550Y0432602D01*
X0330580Y0432758D01*
X0330613Y0432913D01*
X0330651Y0433066D01*
X0330692Y0433219D01*
X0330737Y0433371D01*
X0330786Y0433522D01*
X0330839Y0433671D01*
X0330895Y0433819D01*
X0330955Y0433965D01*
X0331019Y0434110D01*
X0331087Y0434253D01*
X0331158Y0434395D01*
X0331232Y0434535D01*
X0331310Y0434672D01*
X0331392Y0434808D01*
X0331476Y0434942D01*
X0331565Y0435073D01*
X0331656Y0435202D01*
X0331751Y0435329D01*
X0331848Y0435454D01*
X0331949Y0435576D01*
X0332053Y0435695D01*
X0332160Y0435812D01*
X0332270Y0435926D01*
X0332383Y0436037D01*
X0332498Y0436146D01*
X0332616Y0436251D01*
X0332737Y0436353D01*
X0332860Y0436453D01*
X0332986Y0436549D01*
X0333114Y0436642D01*
X0333244Y0436732D01*
X0333377Y0436818D01*
X0333512Y0436902D01*
X0333648Y0436981D01*
X0333787Y0437058D01*
X0333928Y0437130D01*
X0334070Y0437200D01*
X0334214Y0437265D01*
X0334360Y0437327D01*
X0334507Y0437385D01*
X0334656Y0437440D01*
X0334806Y0437491D01*
X0334957Y0437538D01*
X0335109Y0437581D01*
X0335262Y0437620D01*
X0335417Y0437656D01*
X0335572Y0437687D01*
X0335728Y0437715D01*
X0335884Y0437739D01*
X0336041Y0437759D01*
X0336199Y0437775D01*
X0336356Y0437787D01*
X0336515Y0437795D01*
X0336673Y0437799D01*
X0336831Y0437799D01*
X0336989Y0437795D01*
X0337148Y0437787D01*
X0337305Y0437775D01*
X0337463Y0437759D01*
X0337620Y0437739D01*
X0337776Y0437715D01*
X0337932Y0437687D01*
X0338087Y0437656D01*
X0338242Y0437620D01*
X0338395Y0437581D01*
X0338547Y0437538D01*
X0338698Y0437491D01*
X0338848Y0437440D01*
X0338997Y0437385D01*
X0339144Y0437327D01*
X0339290Y0437265D01*
X0339434Y0437200D01*
X0339576Y0437130D01*
X0339717Y0437058D01*
X0339856Y0436981D01*
X0339992Y0436902D01*
X0340127Y0436818D01*
X0340260Y0436732D01*
X0340390Y0436642D01*
X0340518Y0436549D01*
X0340644Y0436453D01*
X0340767Y0436353D01*
X0340888Y0436251D01*
X0341006Y0436146D01*
X0341121Y0436037D01*
X0341234Y0435926D01*
X0341344Y0435812D01*
X0341451Y0435695D01*
X0341555Y0435576D01*
X0341656Y0435454D01*
X0341753Y0435329D01*
X0341848Y0435202D01*
X0341939Y0435073D01*
X0342028Y0434942D01*
X0342112Y0434808D01*
X0342194Y0434672D01*
X0342272Y0434535D01*
X0342346Y0434395D01*
X0342417Y0434253D01*
X0342485Y0434110D01*
X0342549Y0433965D01*
X0342609Y0433819D01*
X0342665Y0433671D01*
X0342718Y0433522D01*
X0342767Y0433371D01*
X0342812Y0433219D01*
X0342853Y0433066D01*
X0342891Y0432913D01*
X0342924Y0432758D01*
X0342954Y0432602D01*
X0342980Y0432446D01*
X0343001Y0432289D01*
X0343019Y0432132D01*
X0343033Y0431974D01*
X0343043Y0431816D01*
X0343049Y0431658D01*
X0343051Y0431500D01*
X0343049Y0431342D01*
X0343043Y0431184D01*
X0343033Y0431026D01*
X0343019Y0430868D01*
X0343001Y0430711D01*
X0342980Y0430554D01*
X0342954Y0430398D01*
X0342924Y0430242D01*
X0342891Y0430087D01*
X0342853Y0429934D01*
X0342812Y0429781D01*
X0342767Y0429629D01*
X0342718Y0429478D01*
X0342665Y0429329D01*
X0342609Y0429181D01*
X0342549Y0429035D01*
X0342485Y0428890D01*
X0342417Y0428747D01*
X0342346Y0428605D01*
X0342272Y0428465D01*
X0342194Y0428328D01*
X0342112Y0428192D01*
X0342028Y0428058D01*
X0341939Y0427927D01*
X0341848Y0427798D01*
X0341753Y0427671D01*
X0341656Y0427546D01*
X0341555Y0427424D01*
X0341451Y0427305D01*
X0341344Y0427188D01*
X0341234Y0427074D01*
X0341121Y0426963D01*
X0341006Y0426854D01*
X0340888Y0426749D01*
X0340767Y0426647D01*
X0340644Y0426547D01*
X0340518Y0426451D01*
X0340390Y0426358D01*
X0340260Y0426268D01*
X0340127Y0426182D01*
X0339992Y0426098D01*
X0339856Y0426019D01*
X0339717Y0425942D01*
X0339576Y0425870D01*
X0339434Y0425800D01*
X0339290Y0425735D01*
X0339144Y0425673D01*
X0338997Y0425615D01*
X0338848Y0425560D01*
X0338698Y0425509D01*
X0338547Y0425462D01*
X0338395Y0425419D01*
X0338242Y0425380D01*
X0338087Y0425344D01*
X0337932Y0425313D01*
X0337776Y0425285D01*
X0337620Y0425261D01*
X0337463Y0425241D01*
X0337305Y0425225D01*
X0337148Y0425213D01*
X0336989Y0425205D01*
X0336831Y0425201D01*
X0336673Y0425201D01*
X0336515Y0425205D01*
X0336356Y0425213D01*
X0336199Y0425225D01*
X0336041Y0425241D01*
X0335884Y0425261D01*
X0335728Y0425285D01*
X0335572Y0425313D01*
X0335417Y0425344D01*
X0335262Y0425380D01*
X0335109Y0425419D01*
X0334957Y0425462D01*
X0334806Y0425509D01*
X0334656Y0425560D01*
X0334507Y0425615D01*
X0334360Y0425673D01*
X0334214Y0425735D01*
X0334070Y0425800D01*
X0333928Y0425870D01*
X0333787Y0425942D01*
X0333648Y0426019D01*
X0333512Y0426098D01*
X0333377Y0426182D01*
X0333244Y0426268D01*
X0333114Y0426358D01*
X0332986Y0426451D01*
X0332860Y0426547D01*
X0332737Y0426647D01*
X0332616Y0426749D01*
X0332498Y0426854D01*
X0332383Y0426963D01*
X0332270Y0427074D01*
X0332160Y0427188D01*
X0332053Y0427305D01*
X0331949Y0427424D01*
X0331848Y0427546D01*
X0331751Y0427671D01*
X0331656Y0427798D01*
X0331565Y0427927D01*
X0331476Y0428058D01*
X0331392Y0428192D01*
X0331310Y0428328D01*
X0331232Y0428465D01*
X0331158Y0428605D01*
X0331087Y0428747D01*
X0331019Y0428890D01*
X0330955Y0429035D01*
X0330895Y0429181D01*
X0330839Y0429329D01*
X0330786Y0429478D01*
X0330737Y0429629D01*
X0330692Y0429781D01*
X0330651Y0429934D01*
X0330613Y0430087D01*
X0330580Y0430242D01*
X0330550Y0430398D01*
X0330524Y0430554D01*
X0330503Y0430711D01*
X0330485Y0430868D01*
X0330471Y0431026D01*
X0330461Y0431184D01*
X0330455Y0431342D01*
X0330453Y0431500D01*
M02*
