G75*
%MOIN*%
%OFA0B0*%
%FSLAX25Y25*%
%IPPOS*%
%LPD*%
%AMOC8*
5,1,8,0,0,1.08239X$1,22.5*
%
%ADD10C,0.00000*%
D10*
X0004400Y0001400D02*
X0159900Y0001400D01*
X0159981Y0001402D01*
X0160061Y0001407D01*
X0160142Y0001417D01*
X0160222Y0001430D01*
X0160301Y0001446D01*
X0160379Y0001467D01*
X0160456Y0001491D01*
X0160532Y0001518D01*
X0160607Y0001549D01*
X0160680Y0001583D01*
X0160752Y0001621D01*
X0160821Y0001662D01*
X0160889Y0001706D01*
X0160955Y0001753D01*
X0161018Y0001804D01*
X0161079Y0001857D01*
X0161137Y0001913D01*
X0161193Y0001971D01*
X0161246Y0002032D01*
X0161297Y0002095D01*
X0161344Y0002161D01*
X0161388Y0002229D01*
X0161429Y0002298D01*
X0161467Y0002370D01*
X0161501Y0002443D01*
X0161532Y0002518D01*
X0161559Y0002594D01*
X0161583Y0002671D01*
X0161604Y0002749D01*
X0161620Y0002828D01*
X0161633Y0002908D01*
X0161643Y0002989D01*
X0161648Y0003069D01*
X0161650Y0003150D01*
X0161650Y0076900D01*
X0161668Y0077019D01*
X0161683Y0077138D01*
X0161693Y0077258D01*
X0161700Y0077379D01*
X0161703Y0077499D01*
X0161702Y0077619D01*
X0161697Y0077739D01*
X0161688Y0077859D01*
X0161675Y0077979D01*
X0161658Y0078098D01*
X0161637Y0078217D01*
X0161613Y0078335D01*
X0161584Y0078452D01*
X0161552Y0078568D01*
X0161516Y0078682D01*
X0161476Y0078796D01*
X0161433Y0078908D01*
X0161386Y0079019D01*
X0161335Y0079128D01*
X0161281Y0079236D01*
X0161223Y0079341D01*
X0161162Y0079445D01*
X0161098Y0079547D01*
X0161030Y0079646D01*
X0160959Y0079743D01*
X0160885Y0079838D01*
X0160807Y0079930D01*
X0160727Y0080020D01*
X0160644Y0080107D01*
X0160558Y0080191D01*
X0160470Y0080273D01*
X0160378Y0080351D01*
X0160285Y0080427D01*
X0160189Y0080499D01*
X0160090Y0080569D01*
X0159989Y0080634D01*
X0159887Y0080697D01*
X0159782Y0080756D01*
X0159675Y0080812D01*
X0159567Y0080864D01*
X0159457Y0080913D01*
X0159345Y0080958D01*
X0159232Y0080999D01*
X0159118Y0081037D01*
X0159002Y0081071D01*
X0158886Y0081101D01*
X0158768Y0081127D01*
X0158650Y0081150D01*
X0004400Y0081150D01*
X0004293Y0081148D01*
X0004186Y0081142D01*
X0004079Y0081133D01*
X0003973Y0081119D01*
X0003867Y0081102D01*
X0003762Y0081081D01*
X0003658Y0081057D01*
X0003555Y0081028D01*
X0003453Y0080996D01*
X0003352Y0080961D01*
X0003252Y0080922D01*
X0003154Y0080879D01*
X0003057Y0080833D01*
X0002962Y0080783D01*
X0002869Y0080730D01*
X0002778Y0080674D01*
X0002689Y0080614D01*
X0002602Y0080552D01*
X0002518Y0080486D01*
X0002435Y0080417D01*
X0002356Y0080346D01*
X0002279Y0080271D01*
X0002204Y0080194D01*
X0002133Y0080115D01*
X0002064Y0080032D01*
X0001998Y0079948D01*
X0001936Y0079861D01*
X0001876Y0079772D01*
X0001820Y0079681D01*
X0001767Y0079588D01*
X0001717Y0079493D01*
X0001671Y0079396D01*
X0001628Y0079298D01*
X0001589Y0079198D01*
X0001554Y0079097D01*
X0001522Y0078995D01*
X0001493Y0078892D01*
X0001469Y0078788D01*
X0001448Y0078683D01*
X0001431Y0078577D01*
X0001417Y0078471D01*
X0001408Y0078364D01*
X0001402Y0078257D01*
X0001400Y0078150D01*
X0001400Y0004400D01*
X0001402Y0004293D01*
X0001408Y0004186D01*
X0001417Y0004079D01*
X0001431Y0003973D01*
X0001448Y0003867D01*
X0001469Y0003762D01*
X0001493Y0003658D01*
X0001522Y0003555D01*
X0001554Y0003453D01*
X0001589Y0003352D01*
X0001628Y0003252D01*
X0001671Y0003154D01*
X0001717Y0003057D01*
X0001767Y0002962D01*
X0001820Y0002869D01*
X0001876Y0002778D01*
X0001936Y0002689D01*
X0001998Y0002602D01*
X0002064Y0002518D01*
X0002133Y0002435D01*
X0002204Y0002356D01*
X0002279Y0002279D01*
X0002356Y0002204D01*
X0002435Y0002133D01*
X0002518Y0002064D01*
X0002602Y0001998D01*
X0002689Y0001936D01*
X0002778Y0001876D01*
X0002869Y0001820D01*
X0002962Y0001767D01*
X0003057Y0001717D01*
X0003154Y0001671D01*
X0003252Y0001628D01*
X0003352Y0001589D01*
X0003453Y0001554D01*
X0003555Y0001522D01*
X0003658Y0001493D01*
X0003762Y0001469D01*
X0003867Y0001448D01*
X0003973Y0001431D01*
X0004079Y0001417D01*
X0004186Y0001408D01*
X0004293Y0001402D01*
X0004400Y0001400D01*
M02*
