%
M48
M72
T01C0.0197
T02C0.0400
%
T01
X665Y2515
X2540Y3140
X3915Y4390
X3540Y5015
X2290Y4890
X3665Y6015
X4665Y6390
X2915Y7140
X3915Y7640
X1665Y7765
X2040Y6140
X6415Y4640
X6665Y4265
X6415Y3765
X7415Y4140
X8165Y4515
X8665Y4015
X9165Y4515
X10040Y4765
X12165Y5640
X11665Y6140
X11790Y6640
X12665Y6390
X13165Y5515
X15665Y6265
X15665Y7640
X14540Y7640
X12790Y7515
X11415Y7640
X9040Y6640
X8165Y6390
X7540Y6515
X7665Y5765
X7165Y5640
X6790Y5390
X7540Y5265
X13165Y3515
X15665Y2515
X15165Y1140
X14165Y1140
X13165Y1140
X15665Y4640
T02
X665Y640
X1665Y640
X2665Y640
X3665Y640
X4665Y640
X5665Y640
X6665Y640
X7665Y640
X8665Y640
X9665Y640
X10665Y640
X11665Y640
X12665Y640
X13665Y640
X14665Y640
X15665Y640
X15665Y1640
X14665Y1640
X13665Y1640
X12665Y1640
X11665Y1640
X10665Y1640
X9665Y1640
X8665Y1640
X7665Y1640
X6665Y1640
X5665Y1640
X4665Y1640
X3665Y1640
X2665Y1640
X1665Y1640
X665Y1640
M30
