G75*
%MOIN*%
%OFA0B0*%
%FSLAX25Y25*%
%IPPOS*%
%LPD*%
%AMOC8*
5,1,8,0,0,1.08239X$1,22.5*
%
%ADD10R,0.08661X0.02362*%
%ADD11R,0.02362X0.08661*%
%ADD12OC8,0.06000*%
%ADD13R,0.06299X0.05118*%
%ADD14C,0.00800*%
%ADD15C,0.03569*%
%ADD16C,0.02400*%
D10*
X0054760Y0036400D03*
X0054760Y0041400D03*
X0054760Y0046400D03*
X0054760Y0051400D03*
X0054760Y0056400D03*
X0054760Y0061400D03*
X0054760Y0066400D03*
X0108540Y0066400D03*
X0108540Y0061400D03*
X0108540Y0056400D03*
X0108540Y0051400D03*
X0108540Y0046400D03*
X0108540Y0041400D03*
X0108540Y0036400D03*
D11*
X0101650Y0029510D03*
X0096650Y0029510D03*
X0091650Y0029510D03*
X0086650Y0029510D03*
X0081650Y0029510D03*
X0076650Y0029510D03*
X0071650Y0029510D03*
X0066650Y0029510D03*
X0061650Y0029510D03*
X0061650Y0073290D03*
X0066650Y0073290D03*
X0071650Y0073290D03*
X0076650Y0073290D03*
X0081650Y0073290D03*
X0086650Y0073290D03*
X0091650Y0073290D03*
X0096650Y0073290D03*
X0101650Y0073290D03*
D12*
X0006650Y0006400D03*
X0016650Y0006400D03*
X0026650Y0006400D03*
X0036650Y0006400D03*
X0046650Y0006400D03*
X0056650Y0006400D03*
X0066650Y0006400D03*
X0076650Y0006400D03*
X0086650Y0006400D03*
X0096650Y0006400D03*
X0106650Y0006400D03*
X0116650Y0006400D03*
X0126650Y0006400D03*
X0136650Y0006400D03*
X0146650Y0006400D03*
X0156650Y0006400D03*
X0156650Y0016400D03*
X0146650Y0016400D03*
X0136650Y0016400D03*
X0126650Y0016400D03*
X0116650Y0016400D03*
X0106650Y0016400D03*
X0096650Y0016400D03*
X0086650Y0016400D03*
X0076650Y0016400D03*
X0066650Y0016400D03*
X0056650Y0016400D03*
X0046650Y0016400D03*
X0036650Y0016400D03*
X0026650Y0016400D03*
X0016650Y0016400D03*
X0006650Y0016400D03*
D13*
X0043900Y0049713D03*
X0043900Y0057587D03*
D14*
X0039350Y0054987D02*
X0038696Y0054987D01*
X0037740Y0055383D01*
X0036157Y0056966D01*
X0036017Y0056966D01*
X0034846Y0057451D01*
X0033951Y0058346D01*
X0033466Y0059517D01*
X0033466Y0060783D01*
X0033951Y0061954D01*
X0034846Y0062849D01*
X0036017Y0063334D01*
X0037283Y0063334D01*
X0038454Y0062849D01*
X0039349Y0061954D01*
X0039709Y0061085D01*
X0040170Y0061546D01*
X0044501Y0061546D01*
X0043951Y0062096D01*
X0043466Y0063267D01*
X0043466Y0064533D01*
X0043951Y0065704D01*
X0044846Y0066599D01*
X0046017Y0067084D01*
X0047283Y0067084D01*
X0048454Y0066599D01*
X0049030Y0066024D01*
X0049030Y0068161D01*
X0049850Y0068981D01*
X0059069Y0068981D01*
X0059069Y0078200D01*
X0059889Y0079020D01*
X0063411Y0079020D01*
X0064150Y0078281D01*
X0064889Y0079020D01*
X0068411Y0079020D01*
X0069150Y0078281D01*
X0069889Y0079020D01*
X0073411Y0079020D01*
X0074150Y0078281D01*
X0074889Y0079020D01*
X0078411Y0079020D01*
X0079150Y0078281D01*
X0079889Y0079020D01*
X0083411Y0079020D01*
X0084150Y0078281D01*
X0084889Y0079020D01*
X0088411Y0079020D01*
X0089150Y0078281D01*
X0089889Y0079020D01*
X0093411Y0079020D01*
X0094150Y0078281D01*
X0094889Y0079020D01*
X0098411Y0079020D01*
X0099150Y0078281D01*
X0099889Y0079020D01*
X0103411Y0079020D01*
X0104231Y0078200D01*
X0104231Y0068981D01*
X0113450Y0068981D01*
X0114270Y0068161D01*
X0114270Y0064639D01*
X0113531Y0063900D01*
X0114089Y0063342D01*
X0114846Y0064099D01*
X0115448Y0064349D01*
X0115201Y0064596D01*
X0114716Y0065767D01*
X0114716Y0067033D01*
X0115201Y0068204D01*
X0116096Y0069099D01*
X0117267Y0069584D01*
X0118533Y0069584D01*
X0119704Y0069099D01*
X0120599Y0068204D01*
X0121084Y0067033D01*
X0121084Y0065767D01*
X0121083Y0065763D01*
X0121146Y0065700D01*
X0122200Y0064646D01*
X0122200Y0060896D01*
X0122200Y0059584D01*
X0122283Y0059584D01*
X0123454Y0059099D01*
X0124050Y0058503D01*
X0124050Y0061997D01*
X0123951Y0062096D01*
X0123466Y0063267D01*
X0123466Y0064533D01*
X0123951Y0065704D01*
X0124846Y0066599D01*
X0126017Y0067084D01*
X0127283Y0067084D01*
X0128454Y0066599D01*
X0129349Y0065704D01*
X0129834Y0064533D01*
X0129834Y0063267D01*
X0129349Y0062096D01*
X0129250Y0061997D01*
X0129250Y0029977D01*
X0131477Y0027750D01*
X0148417Y0027750D01*
X0149373Y0027354D01*
X0155927Y0020800D01*
X0158473Y0020800D01*
X0160250Y0019023D01*
X0160250Y0076456D01*
X0160172Y0076566D01*
X0160250Y0077020D01*
X0160250Y0077480D01*
X0160299Y0077529D01*
X0160303Y0077583D01*
X0160107Y0078451D01*
X0159594Y0079177D01*
X0158843Y0079652D01*
X0158486Y0079750D01*
X0004400Y0079750D01*
X0003986Y0079695D01*
X0003269Y0079281D01*
X0002855Y0078564D01*
X0002800Y0078150D01*
X0002800Y0018773D01*
X0004827Y0020800D01*
X0008473Y0020800D01*
X0009850Y0019423D01*
X0009850Y0019646D01*
X0012350Y0022146D01*
X0013404Y0023200D01*
X0027154Y0023200D01*
X0046054Y0042100D01*
X0041851Y0042100D01*
X0041849Y0042096D01*
X0040954Y0041201D01*
X0039783Y0040716D01*
X0038517Y0040716D01*
X0037346Y0041201D01*
X0036451Y0042096D01*
X0035966Y0043267D01*
X0035966Y0044533D01*
X0036451Y0045704D01*
X0037346Y0046599D01*
X0038517Y0047084D01*
X0039350Y0047084D01*
X0039350Y0049313D01*
X0043500Y0049313D01*
X0043500Y0050113D01*
X0039350Y0050113D01*
X0039350Y0052456D01*
X0039446Y0052812D01*
X0039630Y0053132D01*
X0039891Y0053392D01*
X0040210Y0053577D01*
X0040402Y0053628D01*
X0040170Y0053628D01*
X0039350Y0054448D01*
X0039350Y0054987D01*
X0039350Y0054520D02*
X0002800Y0054520D01*
X0002800Y0055318D02*
X0037896Y0055318D01*
X0037006Y0056117D02*
X0002800Y0056117D01*
X0002800Y0056915D02*
X0036208Y0056915D01*
X0034583Y0057714D02*
X0002800Y0057714D01*
X0002800Y0058512D02*
X0033882Y0058512D01*
X0033551Y0059311D02*
X0002800Y0059311D01*
X0002800Y0060109D02*
X0033466Y0060109D01*
X0033517Y0060908D02*
X0002800Y0060908D01*
X0002800Y0061706D02*
X0033848Y0061706D01*
X0034502Y0062505D02*
X0002800Y0062505D01*
X0002800Y0063303D02*
X0035942Y0063303D01*
X0037358Y0063303D02*
X0043466Y0063303D01*
X0043466Y0064102D02*
X0002800Y0064102D01*
X0002800Y0064900D02*
X0043618Y0064900D01*
X0043948Y0065699D02*
X0002800Y0065699D01*
X0002800Y0066497D02*
X0044744Y0066497D01*
X0048556Y0066497D02*
X0049030Y0066497D01*
X0049030Y0067296D02*
X0002800Y0067296D01*
X0002800Y0068094D02*
X0049030Y0068094D01*
X0049761Y0068893D02*
X0002800Y0068893D01*
X0002800Y0069691D02*
X0059069Y0069691D01*
X0059069Y0070490D02*
X0002800Y0070490D01*
X0002800Y0071288D02*
X0059069Y0071288D01*
X0059069Y0072087D02*
X0002800Y0072087D01*
X0002800Y0072885D02*
X0059069Y0072885D01*
X0059069Y0073684D02*
X0002800Y0073684D01*
X0002800Y0074482D02*
X0059069Y0074482D01*
X0059069Y0075281D02*
X0002800Y0075281D01*
X0002800Y0076079D02*
X0059069Y0076079D01*
X0059069Y0076878D02*
X0002800Y0076878D01*
X0002800Y0077676D02*
X0059069Y0077676D01*
X0059343Y0078475D02*
X0002843Y0078475D01*
X0003264Y0079273D02*
X0159441Y0079273D01*
X0160090Y0078475D02*
X0103957Y0078475D01*
X0104231Y0077676D02*
X0160282Y0077676D01*
X0160226Y0076878D02*
X0104231Y0076878D01*
X0104231Y0076079D02*
X0160250Y0076079D01*
X0160250Y0075281D02*
X0104231Y0075281D01*
X0104231Y0074482D02*
X0160250Y0074482D01*
X0160250Y0073684D02*
X0104231Y0073684D01*
X0104231Y0072885D02*
X0160250Y0072885D01*
X0160250Y0072087D02*
X0104231Y0072087D01*
X0104231Y0071288D02*
X0160250Y0071288D01*
X0160250Y0070490D02*
X0104231Y0070490D01*
X0104231Y0069691D02*
X0160250Y0069691D01*
X0160250Y0068893D02*
X0119910Y0068893D01*
X0120645Y0068094D02*
X0160250Y0068094D01*
X0160250Y0067296D02*
X0120976Y0067296D01*
X0121084Y0066497D02*
X0124744Y0066497D01*
X0123948Y0065699D02*
X0121147Y0065699D01*
X0121945Y0064900D02*
X0123618Y0064900D01*
X0123466Y0064102D02*
X0122200Y0064102D01*
X0122200Y0063303D02*
X0123466Y0063303D01*
X0123781Y0062505D02*
X0122200Y0062505D01*
X0122200Y0061706D02*
X0124050Y0061706D01*
X0124050Y0060908D02*
X0122200Y0060908D01*
X0122200Y0060109D02*
X0124050Y0060109D01*
X0124050Y0059311D02*
X0122944Y0059311D01*
X0124041Y0058512D02*
X0124050Y0058512D01*
X0121650Y0056400D02*
X0120400Y0055150D01*
X0120400Y0023900D01*
X0122900Y0021400D01*
X0141650Y0021400D01*
X0146650Y0016400D01*
X0142250Y0016191D02*
X0141050Y0016191D01*
X0141050Y0015393D02*
X0142250Y0015393D01*
X0142250Y0014594D02*
X0141050Y0014594D01*
X0141050Y0014577D02*
X0141050Y0018223D01*
X0139673Y0019600D01*
X0140904Y0019600D01*
X0142266Y0018238D01*
X0142250Y0018223D01*
X0142250Y0014577D01*
X0144827Y0012000D01*
X0148473Y0012000D01*
X0151050Y0014577D01*
X0151050Y0018223D01*
X0148473Y0020800D01*
X0144827Y0020800D01*
X0144812Y0020784D01*
X0143046Y0022550D01*
X0146823Y0022550D01*
X0152250Y0017123D01*
X0152250Y0014577D01*
X0154827Y0012000D01*
X0158473Y0012000D01*
X0160250Y0013777D01*
X0160250Y0009023D01*
X0158473Y0010800D01*
X0157050Y0010800D01*
X0157050Y0006800D01*
X0156250Y0006800D01*
X0156250Y0010800D01*
X0154827Y0010800D01*
X0152250Y0008223D01*
X0152250Y0006800D01*
X0156250Y0006800D01*
X0156250Y0006000D01*
X0152250Y0006000D01*
X0152250Y0004577D01*
X0154027Y0002800D01*
X0149273Y0002800D01*
X0151050Y0004577D01*
X0151050Y0008223D01*
X0148473Y0010800D01*
X0144827Y0010800D01*
X0142250Y0008223D01*
X0142250Y0004577D01*
X0144027Y0002800D01*
X0139273Y0002800D01*
X0141050Y0004577D01*
X0141050Y0008223D01*
X0138473Y0010800D01*
X0134827Y0010800D01*
X0132250Y0008223D01*
X0132250Y0004577D01*
X0134027Y0002800D01*
X0129273Y0002800D01*
X0131050Y0004577D01*
X0131050Y0008223D01*
X0128473Y0010800D01*
X0124827Y0010800D01*
X0124812Y0010784D01*
X0123450Y0012146D01*
X0123450Y0013377D01*
X0124827Y0012000D01*
X0128473Y0012000D01*
X0131050Y0014577D01*
X0131050Y0018223D01*
X0129673Y0019600D01*
X0133627Y0019600D01*
X0132250Y0018223D01*
X0132250Y0014577D01*
X0134827Y0012000D01*
X0138473Y0012000D01*
X0141050Y0014577D01*
X0140268Y0013796D02*
X0143032Y0013796D01*
X0143830Y0012997D02*
X0139470Y0012997D01*
X0138671Y0012199D02*
X0144629Y0012199D01*
X0144629Y0010601D02*
X0138671Y0010601D01*
X0139470Y0009803D02*
X0143830Y0009803D01*
X0143032Y0009004D02*
X0140268Y0009004D01*
X0141050Y0008206D02*
X0142250Y0008206D01*
X0142250Y0007407D02*
X0141050Y0007407D01*
X0141050Y0006609D02*
X0142250Y0006609D01*
X0142250Y0005810D02*
X0141050Y0005810D01*
X0141050Y0005012D02*
X0142250Y0005012D01*
X0142614Y0004213D02*
X0140686Y0004213D01*
X0139887Y0003415D02*
X0143413Y0003415D01*
X0149887Y0003415D02*
X0153413Y0003415D01*
X0152614Y0004213D02*
X0150686Y0004213D01*
X0151050Y0005012D02*
X0152250Y0005012D01*
X0152250Y0005810D02*
X0151050Y0005810D01*
X0151050Y0006609D02*
X0156250Y0006609D01*
X0156250Y0007407D02*
X0157050Y0007407D01*
X0157050Y0008206D02*
X0156250Y0008206D01*
X0156250Y0009004D02*
X0157050Y0009004D01*
X0157050Y0009803D02*
X0156250Y0009803D01*
X0156250Y0010601D02*
X0157050Y0010601D01*
X0158671Y0010601D02*
X0160250Y0010601D01*
X0160250Y0009803D02*
X0159470Y0009803D01*
X0160250Y0011400D02*
X0124196Y0011400D01*
X0124629Y0012199D02*
X0123450Y0012199D01*
X0123450Y0012997D02*
X0123830Y0012997D01*
X0121650Y0011400D02*
X0121650Y0018900D01*
X0117900Y0022650D01*
X0117900Y0057650D01*
X0120400Y0060150D01*
X0120400Y0063900D01*
X0117900Y0066400D01*
X0114716Y0066497D02*
X0114270Y0066497D01*
X0114270Y0065699D02*
X0114744Y0065699D01*
X0115075Y0064900D02*
X0114270Y0064900D01*
X0113733Y0064102D02*
X0114852Y0064102D01*
X0116650Y0061400D02*
X0115400Y0060150D01*
X0115400Y0021400D01*
X0116650Y0020150D01*
X0116650Y0016400D01*
X0111650Y0020150D02*
X0111650Y0011400D01*
X0106650Y0006400D01*
X0096650Y0006400D02*
X0091650Y0011400D01*
X0091650Y0017650D01*
X0094150Y0020150D01*
X0094150Y0035150D01*
X0095400Y0036400D01*
X0095400Y0050150D01*
X0101650Y0056400D01*
X0108540Y0056400D01*
X0103548Y0053900D02*
X0102809Y0053161D01*
X0102809Y0049639D01*
X0103601Y0048847D01*
X0103349Y0048701D01*
X0103089Y0048441D01*
X0102904Y0048121D01*
X0102809Y0047765D01*
X0102809Y0046591D01*
X0108349Y0046591D01*
X0108349Y0046209D01*
X0102809Y0046209D01*
X0102809Y0045035D01*
X0102904Y0044679D01*
X0103089Y0044359D01*
X0103349Y0044099D01*
X0103601Y0043953D01*
X0102848Y0043200D01*
X0100904Y0043200D01*
X0099850Y0042146D01*
X0097350Y0039646D01*
X0097350Y0035241D01*
X0096787Y0035241D01*
X0097200Y0035654D01*
X0097200Y0049404D01*
X0102396Y0054600D01*
X0102848Y0054600D01*
X0103548Y0053900D01*
X0103369Y0053721D02*
X0101517Y0053721D01*
X0102315Y0054520D02*
X0102928Y0054520D01*
X0102809Y0052923D02*
X0100718Y0052923D01*
X0099920Y0052124D02*
X0102809Y0052124D01*
X0102809Y0051326D02*
X0099121Y0051326D01*
X0098323Y0050527D02*
X0102809Y0050527D01*
X0102809Y0049729D02*
X0097524Y0049729D01*
X0097200Y0048930D02*
X0103518Y0048930D01*
X0102910Y0048132D02*
X0097200Y0048132D01*
X0097200Y0047333D02*
X0102809Y0047333D01*
X0102809Y0045736D02*
X0097200Y0045736D01*
X0097200Y0046534D02*
X0108349Y0046534D01*
X0103309Y0044139D02*
X0097200Y0044139D01*
X0097200Y0044937D02*
X0102835Y0044937D01*
X0102989Y0043340D02*
X0097200Y0043340D01*
X0097200Y0042542D02*
X0100246Y0042542D01*
X0099448Y0041743D02*
X0097200Y0041743D01*
X0097200Y0040945D02*
X0098649Y0040945D01*
X0097851Y0040146D02*
X0097200Y0040146D01*
X0097200Y0039348D02*
X0097350Y0039348D01*
X0097350Y0038549D02*
X0097200Y0038549D01*
X0097200Y0037751D02*
X0097350Y0037751D01*
X0097350Y0036952D02*
X0097200Y0036952D01*
X0097200Y0036154D02*
X0097350Y0036154D01*
X0097350Y0035355D02*
X0096901Y0035355D01*
X0092900Y0037650D02*
X0092900Y0043900D01*
X0091650Y0045150D01*
X0087900Y0043900D02*
X0087900Y0047650D01*
X0101650Y0061400D01*
X0108540Y0061400D01*
X0108540Y0066400D02*
X0102900Y0066400D01*
X0085400Y0048900D01*
X0085400Y0043900D01*
X0082900Y0041400D01*
X0082900Y0038900D01*
X0084150Y0037650D01*
X0084150Y0020150D01*
X0081650Y0017650D01*
X0081650Y0011400D01*
X0086650Y0006400D01*
X0076650Y0006400D02*
X0071650Y0011400D01*
X0071650Y0017650D01*
X0074150Y0020150D01*
X0074150Y0035150D01*
X0070400Y0038900D01*
X0070400Y0042650D01*
X0079150Y0051400D01*
X0080400Y0051400D01*
X0096650Y0067650D01*
X0096650Y0073290D01*
X0091650Y0073290D02*
X0091650Y0067650D01*
X0090400Y0066400D01*
X0081650Y0063900D02*
X0081650Y0073290D01*
X0086650Y0073290D02*
X0086650Y0061400D01*
X0079150Y0053900D01*
X0076650Y0053900D01*
X0075400Y0052650D01*
X0071650Y0056400D02*
X0071650Y0073290D01*
X0066650Y0073290D02*
X0066650Y0055150D01*
X0067900Y0053900D01*
X0075400Y0058900D02*
X0076650Y0057650D01*
X0075400Y0058900D02*
X0075400Y0065150D01*
X0064150Y0062650D02*
X0061650Y0065150D01*
X0061650Y0073290D01*
X0063957Y0078475D02*
X0064343Y0078475D01*
X0068957Y0078475D02*
X0069343Y0078475D01*
X0073957Y0078475D02*
X0074343Y0078475D01*
X0078957Y0078475D02*
X0079343Y0078475D01*
X0083957Y0078475D02*
X0084343Y0078475D01*
X0088957Y0078475D02*
X0089343Y0078475D01*
X0093957Y0078475D02*
X0094343Y0078475D01*
X0098957Y0078475D02*
X0099343Y0078475D01*
X0101650Y0073290D02*
X0101650Y0068900D01*
X0081650Y0048900D01*
X0080400Y0048900D01*
X0077900Y0046400D01*
X0077900Y0036400D01*
X0079150Y0035150D01*
X0079150Y0018900D01*
X0076650Y0016400D01*
X0086650Y0016400D02*
X0089150Y0018900D01*
X0089150Y0037650D01*
X0090400Y0038900D01*
X0090400Y0041400D01*
X0087900Y0043900D01*
X0081650Y0045150D02*
X0080400Y0043900D01*
X0080400Y0037650D01*
X0081650Y0036400D01*
X0081650Y0029510D01*
X0076650Y0029510D02*
X0076650Y0035150D01*
X0074150Y0037650D01*
X0074150Y0041400D01*
X0067900Y0041400D02*
X0067900Y0037650D01*
X0071650Y0033900D01*
X0071650Y0029510D01*
X0066650Y0029510D02*
X0066650Y0035150D01*
X0064150Y0037650D01*
X0067900Y0041400D02*
X0066650Y0042650D01*
X0064150Y0046400D02*
X0064150Y0062650D01*
X0054760Y0061400D02*
X0049150Y0061400D01*
X0046650Y0063900D01*
X0044341Y0061706D02*
X0039452Y0061706D01*
X0038798Y0062505D02*
X0043781Y0062505D01*
X0040077Y0053721D02*
X0002800Y0053721D01*
X0002800Y0052923D02*
X0039509Y0052923D01*
X0039350Y0052124D02*
X0002800Y0052124D01*
X0002800Y0051326D02*
X0039350Y0051326D01*
X0039350Y0050527D02*
X0002800Y0050527D01*
X0002800Y0049729D02*
X0043500Y0049729D01*
X0043500Y0049313D02*
X0044300Y0049313D01*
X0044300Y0050113D01*
X0048450Y0050113D01*
X0048450Y0052456D01*
X0048354Y0052812D01*
X0048170Y0053132D01*
X0047909Y0053392D01*
X0047590Y0053577D01*
X0047398Y0053628D01*
X0047630Y0053628D01*
X0047802Y0053800D01*
X0049669Y0053800D01*
X0049030Y0053161D01*
X0049030Y0049639D01*
X0049769Y0048900D01*
X0049069Y0048200D01*
X0048450Y0048200D01*
X0048450Y0049313D01*
X0044300Y0049313D01*
X0044300Y0045754D01*
X0045958Y0045754D01*
X0045904Y0045700D01*
X0041851Y0045700D01*
X0041849Y0045704D01*
X0041799Y0045754D01*
X0043500Y0045754D01*
X0043500Y0049313D01*
X0043500Y0048930D02*
X0044300Y0048930D01*
X0044300Y0048132D02*
X0043500Y0048132D01*
X0043500Y0047333D02*
X0044300Y0047333D01*
X0044300Y0046534D02*
X0043500Y0046534D01*
X0041817Y0045736D02*
X0045940Y0045736D01*
X0046650Y0043900D02*
X0039150Y0043900D01*
X0041497Y0041743D02*
X0045698Y0041743D01*
X0044899Y0040945D02*
X0040337Y0040945D01*
X0037963Y0040945D02*
X0002800Y0040945D01*
X0002800Y0041743D02*
X0036803Y0041743D01*
X0036266Y0042542D02*
X0002800Y0042542D01*
X0002800Y0043340D02*
X0035966Y0043340D01*
X0035966Y0044139D02*
X0002800Y0044139D01*
X0002800Y0044937D02*
X0036133Y0044937D01*
X0036483Y0045736D02*
X0002800Y0045736D01*
X0002800Y0046534D02*
X0037281Y0046534D01*
X0039350Y0047333D02*
X0002800Y0047333D01*
X0002800Y0048132D02*
X0039350Y0048132D01*
X0039350Y0048930D02*
X0002800Y0048930D01*
X0002800Y0040146D02*
X0044101Y0040146D01*
X0043302Y0039348D02*
X0002800Y0039348D01*
X0002800Y0038549D02*
X0042504Y0038549D01*
X0041705Y0037751D02*
X0002800Y0037751D01*
X0002800Y0036952D02*
X0040907Y0036952D01*
X0040108Y0036154D02*
X0002800Y0036154D01*
X0002800Y0035355D02*
X0039310Y0035355D01*
X0038511Y0034557D02*
X0002800Y0034557D01*
X0002800Y0033758D02*
X0037713Y0033758D01*
X0036914Y0032960D02*
X0002800Y0032960D01*
X0002800Y0032161D02*
X0036116Y0032161D01*
X0035317Y0031363D02*
X0002800Y0031363D01*
X0002800Y0030564D02*
X0034519Y0030564D01*
X0033720Y0029766D02*
X0002800Y0029766D01*
X0002800Y0028967D02*
X0032922Y0028967D01*
X0032123Y0028169D02*
X0002800Y0028169D01*
X0002800Y0027370D02*
X0031325Y0027370D01*
X0030526Y0026572D02*
X0002800Y0026572D01*
X0002800Y0025773D02*
X0029728Y0025773D01*
X0028929Y0024975D02*
X0002800Y0024975D01*
X0002800Y0024176D02*
X0028131Y0024176D01*
X0027332Y0023378D02*
X0002800Y0023378D01*
X0002800Y0022579D02*
X0012784Y0022579D01*
X0011985Y0021781D02*
X0002800Y0021781D01*
X0002800Y0020982D02*
X0011187Y0020982D01*
X0010388Y0020184D02*
X0009089Y0020184D01*
X0011650Y0018900D02*
X0014150Y0021400D01*
X0027900Y0021400D01*
X0047900Y0041400D01*
X0054760Y0041400D01*
X0054760Y0046400D02*
X0049150Y0046400D01*
X0046650Y0043900D01*
X0048450Y0048930D02*
X0049738Y0048930D01*
X0049030Y0049729D02*
X0044300Y0049729D01*
X0048450Y0050527D02*
X0049030Y0050527D01*
X0049030Y0051326D02*
X0048450Y0051326D01*
X0048450Y0052124D02*
X0049030Y0052124D01*
X0049030Y0052923D02*
X0048291Y0052923D01*
X0047723Y0053721D02*
X0049590Y0053721D01*
X0046650Y0036400D02*
X0026650Y0016400D01*
X0036650Y0006400D02*
X0041650Y0011400D01*
X0041650Y0018900D01*
X0052260Y0029510D01*
X0061650Y0029510D01*
X0054760Y0036400D02*
X0046650Y0036400D01*
X0011650Y0018900D02*
X0011650Y0011400D01*
X0006650Y0006400D01*
X0003413Y0019385D02*
X0002800Y0019385D01*
X0002800Y0020184D02*
X0004211Y0020184D01*
X0086650Y0029510D02*
X0086650Y0040150D01*
X0091650Y0036400D02*
X0092900Y0037650D01*
X0091650Y0036400D02*
X0091650Y0029510D01*
X0101650Y0029510D02*
X0101650Y0021400D01*
X0106650Y0016400D01*
X0111650Y0020150D02*
X0108540Y0023260D01*
X0108540Y0036400D01*
X0108540Y0041400D02*
X0101650Y0041400D01*
X0099150Y0038900D01*
X0099150Y0018900D01*
X0096650Y0016400D01*
X0121650Y0011400D02*
X0126650Y0006400D01*
X0129887Y0003415D02*
X0133413Y0003415D01*
X0132614Y0004213D02*
X0130686Y0004213D01*
X0131050Y0005012D02*
X0132250Y0005012D01*
X0132250Y0005810D02*
X0131050Y0005810D01*
X0131050Y0006609D02*
X0132250Y0006609D01*
X0132250Y0007407D02*
X0131050Y0007407D01*
X0131050Y0008206D02*
X0132250Y0008206D01*
X0133032Y0009004D02*
X0130268Y0009004D01*
X0129470Y0009803D02*
X0133830Y0009803D01*
X0134629Y0010601D02*
X0128671Y0010601D01*
X0128671Y0012199D02*
X0134629Y0012199D01*
X0133830Y0012997D02*
X0129470Y0012997D01*
X0130268Y0013796D02*
X0133032Y0013796D01*
X0132250Y0014594D02*
X0131050Y0014594D01*
X0131050Y0015393D02*
X0132250Y0015393D01*
X0132250Y0016191D02*
X0131050Y0016191D01*
X0131050Y0016990D02*
X0132250Y0016990D01*
X0132250Y0017788D02*
X0131050Y0017788D01*
X0130686Y0018587D02*
X0132614Y0018587D01*
X0133413Y0019385D02*
X0129887Y0019385D01*
X0139887Y0019385D02*
X0141119Y0019385D01*
X0140686Y0018587D02*
X0141918Y0018587D01*
X0142250Y0017788D02*
X0141050Y0017788D01*
X0141050Y0016990D02*
X0142250Y0016990D01*
X0144613Y0020982D02*
X0148391Y0020982D01*
X0149089Y0020184D02*
X0149189Y0020184D01*
X0149887Y0019385D02*
X0149988Y0019385D01*
X0150686Y0018587D02*
X0150786Y0018587D01*
X0151050Y0017788D02*
X0151585Y0017788D01*
X0151050Y0016990D02*
X0152250Y0016990D01*
X0152250Y0016191D02*
X0151050Y0016191D01*
X0151050Y0015393D02*
X0152250Y0015393D01*
X0152250Y0014594D02*
X0151050Y0014594D01*
X0150268Y0013796D02*
X0153032Y0013796D01*
X0153830Y0012997D02*
X0149470Y0012997D01*
X0148671Y0012199D02*
X0154629Y0012199D01*
X0154629Y0010601D02*
X0148671Y0010601D01*
X0149470Y0009803D02*
X0153830Y0009803D01*
X0153032Y0009004D02*
X0150268Y0009004D01*
X0151050Y0008206D02*
X0152250Y0008206D01*
X0152250Y0007407D02*
X0151050Y0007407D01*
X0158671Y0012199D02*
X0160250Y0012199D01*
X0160250Y0012997D02*
X0159470Y0012997D01*
X0159887Y0019385D02*
X0160250Y0019385D01*
X0160250Y0020184D02*
X0159089Y0020184D01*
X0160250Y0020982D02*
X0155745Y0020982D01*
X0154946Y0021781D02*
X0160250Y0021781D01*
X0160250Y0022579D02*
X0154148Y0022579D01*
X0153349Y0023378D02*
X0160250Y0023378D01*
X0160250Y0024176D02*
X0152551Y0024176D01*
X0151752Y0024975D02*
X0160250Y0024975D01*
X0160250Y0025773D02*
X0150954Y0025773D01*
X0150155Y0026572D02*
X0160250Y0026572D01*
X0160250Y0027370D02*
X0149334Y0027370D01*
X0147592Y0021781D02*
X0143815Y0021781D01*
X0131058Y0028169D02*
X0160250Y0028169D01*
X0160250Y0028967D02*
X0130260Y0028967D01*
X0129461Y0029766D02*
X0160250Y0029766D01*
X0160250Y0030564D02*
X0129250Y0030564D01*
X0129250Y0031363D02*
X0160250Y0031363D01*
X0160250Y0032161D02*
X0129250Y0032161D01*
X0129250Y0032960D02*
X0160250Y0032960D01*
X0160250Y0033758D02*
X0129250Y0033758D01*
X0129250Y0034557D02*
X0160250Y0034557D01*
X0160250Y0035355D02*
X0129250Y0035355D01*
X0129250Y0036154D02*
X0160250Y0036154D01*
X0160250Y0036952D02*
X0129250Y0036952D01*
X0129250Y0037751D02*
X0160250Y0037751D01*
X0160250Y0038549D02*
X0129250Y0038549D01*
X0129250Y0039348D02*
X0160250Y0039348D01*
X0160250Y0040146D02*
X0129250Y0040146D01*
X0129250Y0040945D02*
X0160250Y0040945D01*
X0160250Y0041743D02*
X0129250Y0041743D01*
X0129250Y0042542D02*
X0160250Y0042542D01*
X0160250Y0043340D02*
X0129250Y0043340D01*
X0129250Y0044139D02*
X0160250Y0044139D01*
X0160250Y0044937D02*
X0129250Y0044937D01*
X0129250Y0045736D02*
X0160250Y0045736D01*
X0160250Y0046534D02*
X0129250Y0046534D01*
X0129250Y0047333D02*
X0160250Y0047333D01*
X0160250Y0048132D02*
X0129250Y0048132D01*
X0129250Y0048930D02*
X0160250Y0048930D01*
X0160250Y0049729D02*
X0129250Y0049729D01*
X0129250Y0050527D02*
X0160250Y0050527D01*
X0160250Y0051326D02*
X0129250Y0051326D01*
X0129250Y0052124D02*
X0160250Y0052124D01*
X0160250Y0052923D02*
X0129250Y0052923D01*
X0129250Y0053721D02*
X0160250Y0053721D01*
X0160250Y0054520D02*
X0129250Y0054520D01*
X0129250Y0055318D02*
X0160250Y0055318D01*
X0160250Y0056117D02*
X0129250Y0056117D01*
X0129250Y0056915D02*
X0160250Y0056915D01*
X0160250Y0057714D02*
X0129250Y0057714D01*
X0129250Y0058512D02*
X0160250Y0058512D01*
X0160250Y0059311D02*
X0129250Y0059311D01*
X0129250Y0060109D02*
X0160250Y0060109D01*
X0160250Y0060908D02*
X0129250Y0060908D01*
X0129250Y0061706D02*
X0160250Y0061706D01*
X0160250Y0062505D02*
X0129519Y0062505D01*
X0129834Y0063303D02*
X0160250Y0063303D01*
X0160250Y0064102D02*
X0129834Y0064102D01*
X0129682Y0064900D02*
X0160250Y0064900D01*
X0160250Y0065699D02*
X0129352Y0065699D01*
X0128556Y0066497D02*
X0160250Y0066497D01*
X0115890Y0068893D02*
X0113539Y0068893D01*
X0114270Y0068094D02*
X0115155Y0068094D01*
X0114824Y0067296D02*
X0114270Y0067296D01*
D15*
X0117900Y0066400D03*
X0126650Y0063900D03*
X0116650Y0061400D03*
X0121650Y0056400D03*
X0131650Y0055150D03*
X0156650Y0062650D03*
X0156650Y0076400D03*
X0145400Y0076400D03*
X0127900Y0075150D03*
X0114150Y0076400D03*
X0090400Y0066400D03*
X0081650Y0063900D03*
X0075400Y0065150D03*
X0076650Y0057650D03*
X0071650Y0056400D03*
X0067900Y0053900D03*
X0075400Y0052650D03*
X0064150Y0046400D03*
X0066650Y0042650D03*
X0064150Y0037650D03*
X0074150Y0041400D03*
X0081650Y0045150D03*
X0086650Y0040150D03*
X0091650Y0045150D03*
X0100400Y0047650D03*
X0131650Y0035150D03*
X0156650Y0025150D03*
X0151650Y0011400D03*
X0141650Y0011400D03*
X0131650Y0011400D03*
X0156650Y0046400D03*
X0046650Y0063900D03*
X0036650Y0060150D03*
X0020400Y0061400D03*
X0029150Y0071400D03*
X0039150Y0076400D03*
X0016650Y0077650D03*
X0035400Y0050150D03*
X0039150Y0043900D03*
X0022900Y0048900D03*
X0025400Y0031400D03*
X0006650Y0025150D03*
D16*
X0043900Y0057587D02*
X0045087Y0056400D01*
X0054760Y0056400D01*
X0043900Y0057587D02*
X0039213Y0057587D01*
X0036650Y0060150D01*
X0126650Y0063900D02*
X0126650Y0028900D01*
X0130400Y0025150D01*
X0147900Y0025150D01*
X0156650Y0016400D01*
M02*
