G75*
%MOIN*%
%OFA0B0*%
%FSLAX25Y25*%
%IPPOS*%
%LPD*%
%AMOC8*
5,1,8,0,0,1.08239X$1,22.5*
%
%ADD10C,0.00800*%
%ADD11C,0.00600*%
%ADD12C,0.00500*%
%ADD13C,0.00300*%
D10*
X0008113Y0027268D02*
X0006045Y0029336D01*
X0008113Y0031405D01*
X0012250Y0031405D01*
X0012250Y0033713D02*
X0011216Y0033713D01*
X0011216Y0034748D01*
X0012250Y0034748D01*
X0012250Y0033713D01*
X0009147Y0031405D02*
X0009147Y0027268D01*
X0008113Y0027268D02*
X0012250Y0027268D01*
X0012250Y0036936D02*
X0006045Y0036936D01*
X0009147Y0037970D02*
X0012250Y0041073D01*
X0012250Y0043382D02*
X0011216Y0043382D01*
X0011216Y0044416D01*
X0012250Y0044416D01*
X0012250Y0043382D01*
X0006045Y0041073D02*
X0010182Y0036936D01*
X0012250Y0053050D02*
X0008113Y0057187D01*
X0007079Y0057187D01*
X0006045Y0056153D01*
X0006045Y0054084D01*
X0007079Y0053050D01*
X0012250Y0053050D02*
X0012250Y0057187D01*
X0011216Y0059495D02*
X0007079Y0063632D01*
X0011216Y0063632D01*
X0012250Y0062598D01*
X0012250Y0060530D01*
X0011216Y0059495D01*
X0007079Y0059495D01*
X0006045Y0060530D01*
X0006045Y0062598D01*
X0007079Y0063632D01*
X0007079Y0065941D02*
X0006045Y0066975D01*
X0006045Y0069044D01*
X0007079Y0070078D01*
X0008113Y0070078D01*
X0012250Y0065941D01*
X0012250Y0070078D01*
X0012250Y0072386D02*
X0008113Y0076523D01*
X0007079Y0076523D01*
X0006045Y0075489D01*
X0006045Y0073421D01*
X0007079Y0072386D01*
X0012250Y0072386D02*
X0012250Y0076523D01*
X0052398Y0071853D02*
X0056197Y0075652D01*
X0059898Y0075353D02*
X0059898Y0027447D01*
X0059697Y0027148D02*
X0052398Y0034447D01*
X0107103Y0027148D02*
X0110902Y0030947D01*
X0134545Y0030732D02*
X0134545Y0027629D01*
X0140750Y0027629D01*
X0138682Y0027629D02*
X0138682Y0030732D01*
X0137647Y0031766D01*
X0135579Y0031766D01*
X0134545Y0030732D01*
X0137647Y0034075D02*
X0139716Y0034075D01*
X0140750Y0035109D01*
X0140750Y0037177D01*
X0139716Y0038212D01*
X0137647Y0038212D01*
X0136613Y0037177D01*
X0136613Y0035109D01*
X0137647Y0034075D01*
X0145045Y0032463D02*
X0151250Y0032463D01*
X0151250Y0036600D01*
X0148147Y0034532D02*
X0148147Y0032463D01*
X0145045Y0032463D02*
X0145045Y0036600D01*
X0145045Y0038909D02*
X0151250Y0038909D01*
X0151250Y0043046D01*
X0148147Y0040977D02*
X0148147Y0038909D01*
X0145045Y0038909D02*
X0145045Y0043046D01*
X0140750Y0041555D02*
X0140750Y0044657D01*
X0145045Y0045354D02*
X0145045Y0048457D01*
X0146079Y0049491D01*
X0148147Y0049491D01*
X0149182Y0048457D01*
X0149182Y0045354D01*
X0151250Y0045354D02*
X0145045Y0045354D01*
X0140750Y0046966D02*
X0134545Y0046966D01*
X0136613Y0044657D02*
X0136613Y0041555D01*
X0137647Y0040520D01*
X0139716Y0040520D01*
X0140750Y0041555D01*
X0138682Y0046966D02*
X0136613Y0050068D01*
X0137647Y0052337D02*
X0136613Y0053371D01*
X0136613Y0055440D01*
X0137647Y0056474D01*
X0138682Y0056474D01*
X0138682Y0052337D01*
X0139716Y0052337D02*
X0137647Y0052337D01*
X0139716Y0052337D02*
X0140750Y0053371D01*
X0140750Y0055440D01*
X0145045Y0054903D02*
X0146079Y0055937D01*
X0148147Y0055937D01*
X0149182Y0054903D01*
X0149182Y0051800D01*
X0151250Y0051800D02*
X0145045Y0051800D01*
X0145045Y0054903D01*
X0149182Y0053868D02*
X0151250Y0055937D01*
X0150216Y0058245D02*
X0146079Y0058245D01*
X0145045Y0059280D01*
X0145045Y0061348D01*
X0146079Y0062382D01*
X0150216Y0062382D01*
X0151250Y0061348D01*
X0151250Y0059280D01*
X0150216Y0058245D01*
X0140750Y0060851D02*
X0139716Y0059817D01*
X0135579Y0059817D01*
X0136613Y0058783D02*
X0136613Y0060851D01*
X0137647Y0063080D02*
X0137647Y0066182D01*
X0138682Y0067216D01*
X0139716Y0067216D01*
X0140750Y0066182D01*
X0140750Y0064114D01*
X0139716Y0063080D01*
X0137647Y0063080D01*
X0135579Y0065148D01*
X0134545Y0067216D01*
X0134545Y0069525D02*
X0137647Y0069525D01*
X0136613Y0071594D01*
X0136613Y0072628D01*
X0137647Y0073662D01*
X0139716Y0073662D01*
X0140750Y0072628D01*
X0140750Y0070559D01*
X0139716Y0069525D01*
X0134545Y0069525D02*
X0134545Y0073662D01*
X0145045Y0068828D02*
X0151250Y0068828D01*
X0147113Y0066759D02*
X0145045Y0068828D01*
X0147113Y0066759D02*
X0145045Y0064691D01*
X0151250Y0064691D01*
X0140750Y0050068D02*
X0138682Y0046966D01*
X0110902Y0071853D02*
X0107103Y0075652D01*
D11*
X0004150Y0001400D02*
X0001650Y0003900D01*
X0001650Y0018900D01*
X0004150Y0021400D01*
X0009150Y0021400D01*
X0011650Y0018900D01*
X0011650Y0003900D01*
X0009150Y0001400D01*
X0004150Y0001400D01*
X0011650Y0003900D02*
X0014150Y0001400D01*
X0019150Y0001400D01*
X0021650Y0003900D01*
X0021650Y0018900D01*
X0024150Y0021400D01*
X0029150Y0021400D01*
X0031650Y0018900D01*
X0031650Y0003900D01*
X0029150Y0001400D01*
X0024150Y0001400D01*
X0021650Y0003900D01*
X0031650Y0003900D02*
X0034150Y0001400D01*
X0039150Y0001400D01*
X0041650Y0003900D01*
X0041650Y0018900D01*
X0044150Y0021400D01*
X0049150Y0021400D01*
X0051650Y0018900D01*
X0051650Y0003900D01*
X0049150Y0001400D01*
X0044150Y0001400D01*
X0041650Y0003900D01*
X0051650Y0003900D02*
X0054150Y0001400D01*
X0059150Y0001400D01*
X0061650Y0003900D01*
X0061650Y0018900D01*
X0064150Y0021400D01*
X0069150Y0021400D01*
X0071650Y0018900D01*
X0071650Y0003900D01*
X0069150Y0001400D01*
X0064150Y0001400D01*
X0061650Y0003900D01*
X0071650Y0003900D02*
X0074150Y0001400D01*
X0079150Y0001400D01*
X0081650Y0003900D01*
X0081650Y0018900D01*
X0084150Y0021400D01*
X0089150Y0021400D01*
X0091650Y0018900D01*
X0091650Y0003900D01*
X0089150Y0001400D01*
X0084150Y0001400D01*
X0081650Y0003900D01*
X0091650Y0003900D02*
X0094150Y0001400D01*
X0099150Y0001400D01*
X0101650Y0003900D01*
X0101650Y0018900D01*
X0099150Y0021400D01*
X0094150Y0021400D01*
X0091650Y0018900D01*
X0081650Y0018900D02*
X0079150Y0021400D01*
X0074150Y0021400D01*
X0071650Y0018900D01*
X0061650Y0018900D02*
X0059150Y0021400D01*
X0054150Y0021400D01*
X0051650Y0018900D01*
X0049143Y0023950D02*
X0044873Y0023950D01*
X0047008Y0023950D02*
X0047008Y0030355D01*
X0044873Y0028220D01*
X0042697Y0030355D02*
X0042697Y0025018D01*
X0041630Y0023950D01*
X0039495Y0023950D01*
X0038427Y0025018D01*
X0038427Y0030355D01*
X0039150Y0021400D02*
X0034150Y0021400D01*
X0031650Y0018900D01*
X0039150Y0021400D02*
X0041650Y0018900D01*
X0021650Y0018900D02*
X0019150Y0021400D01*
X0014150Y0021400D01*
X0011650Y0018900D01*
X0101650Y0018900D02*
X0104150Y0021400D01*
X0109150Y0021400D01*
X0111650Y0018900D01*
X0111650Y0003900D01*
X0109150Y0001400D01*
X0104150Y0001400D01*
X0101650Y0003900D01*
X0111650Y0003900D02*
X0114150Y0001400D01*
X0119150Y0001400D01*
X0121650Y0003900D01*
X0121650Y0018900D01*
X0119150Y0021400D01*
X0114150Y0021400D01*
X0111650Y0018900D01*
X0121650Y0018900D02*
X0124150Y0021400D01*
X0129150Y0021400D01*
X0131650Y0018900D01*
X0131650Y0003900D01*
X0129150Y0001400D01*
X0124150Y0001400D01*
X0121650Y0003900D01*
X0131650Y0003900D02*
X0134150Y0001400D01*
X0139150Y0001400D01*
X0141650Y0003900D01*
X0141650Y0018900D01*
X0139150Y0021400D01*
X0134150Y0021400D01*
X0131650Y0018900D01*
X0141650Y0018900D02*
X0144150Y0021400D01*
X0149150Y0021400D01*
X0151650Y0018900D01*
X0151650Y0003900D01*
X0149150Y0001400D01*
X0144150Y0001400D01*
X0141650Y0003900D01*
X0151650Y0003900D02*
X0154150Y0001400D01*
X0159150Y0001400D01*
X0161650Y0003900D01*
X0161650Y0018900D01*
X0159150Y0021400D01*
X0154150Y0021400D01*
X0151650Y0018900D01*
D12*
X0032860Y0023150D02*
X0029858Y0023150D01*
X0031359Y0023150D02*
X0031359Y0027654D01*
X0029858Y0026153D01*
X0028256Y0026903D02*
X0028256Y0025402D01*
X0027506Y0024651D01*
X0025254Y0024651D01*
X0025254Y0023150D02*
X0025254Y0027654D01*
X0027506Y0027654D01*
X0028256Y0026903D01*
X0023653Y0027654D02*
X0022151Y0027654D01*
X0022902Y0027654D02*
X0022902Y0023901D01*
X0022151Y0023150D01*
X0021401Y0023150D01*
X0020650Y0023901D01*
D13*
X0036469Y0047863D02*
X0035852Y0048480D01*
X0035852Y0049715D01*
X0036469Y0050332D01*
X0038938Y0050332D02*
X0039555Y0049715D01*
X0039555Y0048480D01*
X0038938Y0047863D01*
X0036469Y0047863D01*
X0037086Y0051546D02*
X0035852Y0052781D01*
X0039555Y0052781D01*
X0039555Y0054015D02*
X0039555Y0051546D01*
M02*
