%
M48
M72
T01C0.0197
T02C0.0320
T03C0.0354
T04C0.0400
T05C0.0470
T06C0.0710
T07C0.1260
%
T01
X4150Y3150
X4150Y5150
X7150Y5150
X7150Y11150
X7150Y18150
X4150Y18150
X7150Y24150
X4150Y24650
X4150Y31150
X6150Y31150
X7150Y37150
X6150Y41150
X6250Y44450
X7550Y46850
X7150Y47150
X8650Y46350
X4850Y47850
X4450Y48350
X1050Y48150
X1050Y49150
X1150Y50150
X1150Y51150
X1150Y52150
X1150Y53150
X1150Y54150
X1050Y47150
X1050Y46150
X1150Y45150
X1150Y44150
X1350Y43150
X1350Y41650
X4150Y37650
X12350Y39550
X13850Y39550
X14250Y39250
X14550Y38750
X14150Y36150
X14150Y29150
X14150Y23150
X14150Y16150
X14150Y10150
X14150Y5150
X22150Y3150
X22150Y10150
X22150Y16150
X22150Y23150
X22150Y29150
X22150Y36150
X19350Y41950
X20750Y43450
X23650Y43150
X26650Y43150
X29150Y42150
X29150Y41150
X30150Y41150
X30150Y42150
X31150Y42150
X31150Y41150
X32150Y41150
X33150Y41150
X33150Y40150
X33150Y39150
X33150Y38150
X33150Y37150
X33150Y36150
X33150Y35150
X33150Y44150
X30150Y45650
X33150Y50150
X33150Y51150
X33150Y52150
X33150Y53150
X33150Y54150
X16650Y43150
X15150Y44150
X15650Y45650
X31150Y2150
X31150Y1150
T02
X29650Y1650
X27650Y1650
X22150Y1650
X20150Y1650
X14150Y1650
X12150Y1650
X6650Y1650
X4650Y1650
X1650Y4150
X1650Y7150
X1650Y10650
X1650Y13650
X1650Y17150
X1650Y20150
X1650Y23650
X1650Y26650
X1650Y30150
X1650Y33150
X1650Y36650
X1650Y39650
X2650Y45650
X1650Y46650
X1650Y47650
X1650Y48650
X4650Y45650
X5650Y46650
X5650Y47650
X5650Y48650
X9650Y48650
X9650Y47650
X9650Y46650
X13650Y46650
X13650Y47650
X13650Y48650
X14650Y45650
X16650Y45650
X17650Y46650
X17650Y47650
X17650Y48650
X19150Y48650
X20150Y48650
X20150Y46650
X19150Y46650
X20150Y45150
X21150Y45150
X22150Y45150
X23150Y45150
X24150Y45150
X25150Y45150
X26150Y45150
X27150Y45150
X28150Y45150
X28150Y46650
X27150Y46650
X27150Y48650
X28150Y48650
X29650Y48650
X29650Y47650
X29650Y46650
X31150Y46650
X31450Y45650
X32150Y46650
X32150Y48650
X31150Y48650
X33450Y45650
X30650Y44650
X29650Y44650
X28150Y42150
X27150Y42150
X26150Y42150
X25150Y42150
X24150Y42150
X23150Y42150
X22150Y42150
X21150Y42150
X20150Y42150
X17850Y42950
X17850Y44350
X21650Y46650
X21650Y47650
X21650Y48650
X23150Y48650
X24150Y48650
X24150Y46650
X23150Y46650
X25650Y46650
X25650Y47650
X25650Y48650
T03
X25650Y49650
X25650Y50650
X25650Y51650
X25650Y52650
X25650Y53650
X24650Y53650
X24650Y52650
X24650Y51650
X24650Y50650
X24650Y49650
X21650Y49650
X21650Y50650
X21650Y51650
X21650Y52650
X21650Y53650
X20650Y53650
X20650Y52650
X20650Y51650
X20650Y50650
X20650Y49650
X17650Y49650
X17650Y50650
X17650Y51650
X17650Y52650
X17650Y53650
X16650Y53650
X16650Y52650
X16650Y51650
X16650Y50650
X16650Y49650
X13650Y49650
X13650Y50650
X13650Y51650
X13650Y52650
X13650Y53650
X12650Y53650
X12650Y52650
X12650Y51650
X12650Y50650
X12650Y49650
X9650Y49650
X9650Y50650
X9650Y51650
X9650Y52650
X9650Y53650
X8650Y53650
X8650Y52650
X8650Y51650
X8650Y50650
X8650Y49650
X5650Y49650
X5650Y50650
X5650Y51650
X5650Y52650
X5650Y53650
X4650Y53650
X4650Y52650
X4650Y51650
X4650Y50650
X4650Y49650
X1650Y49650
X1650Y50650
X1650Y51650
X1650Y52650
X1650Y53650
X28650Y53650
X28650Y52650
X28650Y51650
X28650Y50650
X28650Y49650
X29650Y49650
X29650Y50650
X29650Y51650
X29650Y52650
X29650Y53650
X32650Y53650
X32650Y52650
X32650Y51650
X32650Y50650
X32650Y49650
T04
X15650Y43650
X15650Y42650
X14650Y42650
X14650Y43650
X13650Y43650
X13650Y42650
X12650Y42650
X12650Y43650
X11650Y43650
X11650Y42650
X10650Y42650
X10650Y43650
X9650Y43650
X9650Y42650
X8650Y42650
X8650Y43650
X7650Y43650
X7650Y42650
X6650Y42650
X6650Y43650
X5650Y43650
X5650Y42650
X4650Y42650
X4650Y43650
X3650Y43650
X3650Y42650
X2650Y42650
X2650Y43650
T05
X3190Y38630
X3190Y36670
X3190Y32130
X3190Y30170
X3190Y25630
X3190Y23670
X3190Y19130
X3190Y17170
X3190Y12630
X3190Y10670
X3190Y6130
X3190Y4170
X8110Y4170
X8110Y6130
X10690Y6130
X10690Y4170
X10690Y10670
X10690Y12630
X8110Y12630
X8110Y10670
X8110Y17170
X8110Y19130
X10690Y19130
X10690Y17170
X10690Y23670
X10690Y25630
X8110Y25630
X8110Y23670
X8110Y30170
X8110Y32130
X10690Y32130
X10690Y30170
X10690Y36670
X10690Y38630
X8110Y38630
X8110Y36670
X15610Y36670
X15610Y38630
X18690Y38630
X18690Y36670
X18690Y32130
X18690Y30170
X18690Y25630
X18690Y23670
X18690Y19130
X18690Y17170
X15610Y17170
X15610Y19130
X15610Y23670
X15610Y25630
X15610Y30170
X15610Y32130
X23610Y32130
X23610Y30170
X26190Y30170
X26190Y32130
X26190Y36670
X26190Y38630
X23610Y38630
X23610Y36670
X23610Y25630
X23610Y23670
X26190Y23670
X26190Y25630
X26190Y19130
X26190Y17170
X23610Y17170
X23610Y19130
X23610Y12630
X23610Y10670
X26190Y10670
X26190Y12630
X26190Y6130
X26190Y4170
X23610Y4170
X23610Y6130
X18690Y6130
X18690Y4170
X15610Y4170
X15610Y6130
X15610Y10670
X15610Y12630
X18690Y12630
X18690Y10670
X31110Y10670
X31110Y12630
X31110Y17170
X31110Y19130
X31110Y23670
X31110Y25630
X31110Y30170
X31110Y32130
X31110Y36670
X31110Y38630
X31110Y6130
X31110Y4170
T06
X28650Y3380
X28650Y6920
X28650Y9880
X28650Y13420
X28650Y16380
X28650Y19920
X28650Y22880
X28650Y26420
X28650Y29380
X28650Y32920
X28650Y35880
X28650Y39420
X21150Y39420
X21150Y35880
X21150Y32920
X21150Y29380
X21150Y26420
X21150Y22880
X21150Y19920
X21150Y16380
X21150Y13420
X21150Y9880
X21150Y6920
X21150Y3380
X13150Y3380
X13150Y6920
X13150Y9880
X13150Y13420
X13150Y16380
X13150Y19920
X13150Y22880
X13150Y26420
X13150Y29380
X13150Y32920
X13150Y35880
X13150Y39420
X5650Y39420
X5650Y35880
X5650Y32920
X5650Y29380
X5650Y26420
X5650Y22880
X5650Y19920
X5650Y16380
X5650Y13420
X5650Y9880
X5650Y6920
X5650Y3380
T07
X1650Y1650
X32650Y1650
X32650Y43150
M30
