G75*
%MOIN*%
%OFA0B0*%
%FSLAX25Y25*%
%IPPOS*%
%LPD*%
%AMOC8*
5,1,8,0,0,1.08239X$1,22.5*
%
%ADD10C,0.13398*%
%ADD11C,0.01200*%
%ADD12C,0.07850*%
%ADD13C,0.07900*%
%ADD14C,0.06000*%
%ADD15OC8,0.06000*%
%ADD16OC8,0.06800*%
%ADD17OC8,0.07100*%
%ADD18C,0.07100*%
%ADD19C,0.06706*%
D10*
X0016500Y0016500D03*
X0326500Y0016500D03*
X0326500Y0431500D03*
D11*
X0326692Y0343262D02*
X0324390Y0343262D01*
X0322088Y0340960D01*
X0322088Y0336356D01*
X0324390Y0334054D01*
X0324390Y0329450D02*
X0322088Y0327148D01*
X0322088Y0322544D01*
X0324390Y0320242D01*
X0324390Y0315638D02*
X0333598Y0306430D01*
X0335900Y0308732D01*
X0335900Y0313336D01*
X0333598Y0315638D01*
X0324390Y0315638D01*
X0322088Y0313336D01*
X0322088Y0308732D01*
X0324390Y0306430D01*
X0333598Y0306430D01*
X0335900Y0301826D02*
X0335900Y0292618D01*
X0326692Y0301826D01*
X0324390Y0301826D01*
X0322088Y0299524D01*
X0322088Y0294920D01*
X0324390Y0292618D01*
X0333598Y0274203D02*
X0335900Y0274203D01*
X0335900Y0271901D01*
X0333598Y0271901D01*
X0333598Y0274203D01*
X0335900Y0267297D02*
X0328994Y0260391D01*
X0331296Y0258089D02*
X0322088Y0267297D01*
X0322088Y0258089D02*
X0335900Y0258089D01*
X0335900Y0253485D02*
X0335900Y0251183D01*
X0333598Y0251183D01*
X0333598Y0253485D01*
X0335900Y0253485D01*
X0335900Y0246579D02*
X0326692Y0246579D01*
X0322088Y0241975D01*
X0326692Y0237371D01*
X0335900Y0237371D01*
X0328994Y0237371D02*
X0328994Y0246579D01*
X0335900Y0320242D02*
X0326692Y0329450D01*
X0324390Y0329450D01*
X0335900Y0329450D02*
X0335900Y0320242D01*
X0335900Y0334054D02*
X0326692Y0343262D01*
X0335900Y0343262D02*
X0335900Y0334054D01*
X0333598Y0149896D02*
X0331296Y0149896D01*
X0328994Y0147594D01*
X0328994Y0140688D01*
X0328994Y0136085D02*
X0333598Y0136085D01*
X0335900Y0133783D01*
X0335900Y0129179D01*
X0333598Y0126877D01*
X0333598Y0122273D02*
X0331296Y0122273D01*
X0328994Y0119971D01*
X0328994Y0113065D01*
X0333598Y0113065D01*
X0335900Y0115367D01*
X0335900Y0119971D01*
X0333598Y0122273D01*
X0328994Y0126877D02*
X0326692Y0131481D01*
X0326692Y0133783D01*
X0328994Y0136085D01*
X0322088Y0136085D02*
X0322088Y0126877D01*
X0328994Y0126877D01*
X0322088Y0122273D02*
X0324390Y0117669D01*
X0328994Y0113065D01*
X0326692Y0108461D02*
X0326692Y0103857D01*
X0324390Y0106159D02*
X0333598Y0106159D01*
X0335900Y0108461D01*
X0331296Y0099253D02*
X0328994Y0099253D01*
X0326692Y0096951D01*
X0326692Y0092347D01*
X0328994Y0090045D01*
X0333598Y0090045D01*
X0335900Y0092347D01*
X0335900Y0096951D01*
X0331296Y0099253D02*
X0331296Y0090045D01*
X0326692Y0085441D02*
X0331296Y0078535D01*
X0335900Y0085441D01*
X0335900Y0078535D02*
X0322088Y0078535D01*
X0326692Y0073931D02*
X0326692Y0067026D01*
X0328994Y0064724D01*
X0333598Y0064724D01*
X0335900Y0067026D01*
X0335900Y0073931D01*
X0333598Y0060120D02*
X0328994Y0060120D01*
X0326692Y0057818D01*
X0326692Y0053214D01*
X0328994Y0050912D01*
X0333598Y0050912D01*
X0335900Y0053214D01*
X0335900Y0057818D01*
X0333598Y0060120D01*
X0328994Y0046308D02*
X0331296Y0044006D01*
X0331296Y0037100D01*
X0335900Y0037100D02*
X0322088Y0037100D01*
X0322088Y0044006D01*
X0324390Y0046308D01*
X0328994Y0046308D01*
X0322088Y0140688D02*
X0322088Y0147594D01*
X0324390Y0149896D01*
X0326692Y0149896D01*
X0328994Y0147594D01*
X0333598Y0149896D02*
X0335900Y0147594D01*
X0335900Y0140688D01*
X0322088Y0140688D01*
D12*
X0314625Y0126300D02*
X0307575Y0126300D01*
X0307575Y0106700D02*
X0314625Y0106700D01*
X0314625Y0061300D02*
X0307575Y0061300D01*
X0307575Y0041700D02*
X0314625Y0041700D01*
X0265425Y0041700D02*
X0258375Y0041700D01*
X0258375Y0061300D02*
X0265425Y0061300D01*
X0239625Y0061300D02*
X0232575Y0061300D01*
X0232575Y0041700D02*
X0239625Y0041700D01*
X0239625Y0106700D02*
X0232575Y0106700D01*
X0232575Y0126300D02*
X0239625Y0126300D01*
X0258375Y0126300D02*
X0265425Y0126300D01*
X0265425Y0106700D02*
X0258375Y0106700D01*
X0258375Y0171700D02*
X0265425Y0171700D01*
X0265425Y0191300D02*
X0258375Y0191300D01*
X0239625Y0191300D02*
X0232575Y0191300D01*
X0232575Y0171700D02*
X0239625Y0171700D01*
X0239625Y0236700D02*
X0232575Y0236700D01*
X0232575Y0256300D02*
X0239625Y0256300D01*
X0258375Y0256300D02*
X0265425Y0256300D01*
X0265425Y0236700D02*
X0258375Y0236700D01*
X0258375Y0301700D02*
X0265425Y0301700D01*
X0265425Y0321300D02*
X0258375Y0321300D01*
X0239625Y0321300D02*
X0232575Y0321300D01*
X0232575Y0301700D02*
X0239625Y0301700D01*
X0239625Y0366700D02*
X0232575Y0366700D01*
X0232575Y0386300D02*
X0239625Y0386300D01*
X0258375Y0386300D02*
X0265425Y0386300D01*
X0265425Y0366700D02*
X0258375Y0366700D01*
X0307575Y0366700D02*
X0314625Y0366700D01*
X0314625Y0386300D02*
X0307575Y0386300D01*
X0307575Y0321300D02*
X0314625Y0321300D01*
X0314625Y0301700D02*
X0307575Y0301700D01*
X0307575Y0256300D02*
X0314625Y0256300D01*
X0314625Y0236700D02*
X0307575Y0236700D01*
X0307575Y0191300D02*
X0314625Y0191300D01*
X0314625Y0171700D02*
X0307575Y0171700D01*
X0190425Y0171700D02*
X0183375Y0171700D01*
X0183375Y0191300D02*
X0190425Y0191300D01*
X0190425Y0236700D02*
X0183375Y0236700D01*
X0183375Y0256300D02*
X0190425Y0256300D01*
X0190425Y0301700D02*
X0183375Y0301700D01*
X0183375Y0321300D02*
X0190425Y0321300D01*
X0190425Y0366700D02*
X0183375Y0366700D01*
X0183375Y0386300D02*
X0190425Y0386300D01*
X0159625Y0386300D02*
X0152575Y0386300D01*
X0152575Y0366700D02*
X0159625Y0366700D01*
X0159625Y0321300D02*
X0152575Y0321300D01*
X0152575Y0301700D02*
X0159625Y0301700D01*
X0159625Y0256300D02*
X0152575Y0256300D01*
X0152575Y0236700D02*
X0159625Y0236700D01*
X0159625Y0191300D02*
X0152575Y0191300D01*
X0152575Y0171700D02*
X0159625Y0171700D01*
X0159625Y0126300D02*
X0152575Y0126300D01*
X0152575Y0106700D02*
X0159625Y0106700D01*
X0183375Y0106700D02*
X0190425Y0106700D01*
X0190425Y0126300D02*
X0183375Y0126300D01*
X0183375Y0061300D02*
X0190425Y0061300D01*
X0190425Y0041700D02*
X0183375Y0041700D01*
X0159625Y0041700D02*
X0152575Y0041700D01*
X0152575Y0061300D02*
X0159625Y0061300D01*
X0110425Y0061300D02*
X0103375Y0061300D01*
X0103375Y0041700D02*
X0110425Y0041700D01*
X0084625Y0041700D02*
X0077575Y0041700D01*
X0077575Y0061300D02*
X0084625Y0061300D01*
X0084625Y0106700D02*
X0077575Y0106700D01*
X0077575Y0126300D02*
X0084625Y0126300D01*
X0103375Y0126300D02*
X0110425Y0126300D01*
X0110425Y0106700D02*
X0103375Y0106700D01*
X0103375Y0171700D02*
X0110425Y0171700D01*
X0110425Y0191300D02*
X0103375Y0191300D01*
X0084625Y0191300D02*
X0077575Y0191300D01*
X0077575Y0171700D02*
X0084625Y0171700D01*
X0084625Y0236700D02*
X0077575Y0236700D01*
X0077575Y0256300D02*
X0084625Y0256300D01*
X0103375Y0256300D02*
X0110425Y0256300D01*
X0110425Y0236700D02*
X0103375Y0236700D01*
X0103375Y0301700D02*
X0110425Y0301700D01*
X0110425Y0321300D02*
X0103375Y0321300D01*
X0084625Y0321300D02*
X0077575Y0321300D01*
X0077575Y0301700D02*
X0084625Y0301700D01*
X0084625Y0366700D02*
X0077575Y0366700D01*
X0077575Y0386300D02*
X0084625Y0386300D01*
X0103375Y0386300D02*
X0110425Y0386300D01*
X0110425Y0366700D02*
X0103375Y0366700D01*
X0035425Y0366700D02*
X0028375Y0366700D01*
X0028375Y0386300D02*
X0035425Y0386300D01*
X0035425Y0321300D02*
X0028375Y0321300D01*
X0028375Y0301700D02*
X0035425Y0301700D01*
X0035425Y0256300D02*
X0028375Y0256300D01*
X0028375Y0236700D02*
X0035425Y0236700D01*
X0035425Y0191300D02*
X0028375Y0191300D01*
X0028375Y0171700D02*
X0035425Y0171700D01*
X0035425Y0126300D02*
X0028375Y0126300D01*
X0028375Y0106700D02*
X0035425Y0106700D01*
X0035425Y0061300D02*
X0028375Y0061300D01*
X0028375Y0041700D02*
X0035425Y0041700D01*
D13*
X0056500Y0033800D03*
X0056500Y0069200D03*
X0056500Y0098800D03*
X0056500Y0134200D03*
X0056500Y0163800D03*
X0056500Y0199200D03*
X0056500Y0228800D03*
X0056500Y0264200D03*
X0056500Y0293800D03*
X0056500Y0329200D03*
X0056500Y0358800D03*
X0056500Y0394200D03*
X0131500Y0394200D03*
X0131500Y0358800D03*
X0131500Y0329200D03*
X0131500Y0293800D03*
X0131500Y0264200D03*
X0131500Y0228800D03*
X0131500Y0199200D03*
X0131500Y0163800D03*
X0131500Y0134200D03*
X0131500Y0098800D03*
X0131500Y0069200D03*
X0131500Y0033800D03*
X0211500Y0033800D03*
X0211500Y0069200D03*
X0211500Y0098800D03*
X0211500Y0134200D03*
X0211500Y0163800D03*
X0211500Y0199200D03*
X0211500Y0228800D03*
X0211500Y0264200D03*
X0211500Y0293800D03*
X0211500Y0329200D03*
X0211500Y0358800D03*
X0211500Y0394200D03*
X0286500Y0394200D03*
X0286500Y0358800D03*
X0286500Y0329200D03*
X0286500Y0293800D03*
X0286500Y0264200D03*
X0286500Y0228800D03*
X0286500Y0199200D03*
X0286500Y0163800D03*
X0286500Y0134200D03*
X0286500Y0098800D03*
X0286500Y0069200D03*
X0286500Y0033800D03*
D14*
X0281500Y0418900D02*
X0281500Y0424100D01*
X0271500Y0424100D02*
X0271500Y0418900D01*
X0261500Y0418900D02*
X0261500Y0424100D01*
X0251500Y0424100D02*
X0251500Y0418900D01*
X0241500Y0418900D02*
X0241500Y0424100D01*
X0231500Y0424100D02*
X0231500Y0418900D01*
X0221500Y0418900D02*
X0221500Y0424100D01*
X0211500Y0424100D02*
X0211500Y0418900D01*
X0201500Y0418900D02*
X0201500Y0424100D01*
X0201500Y0448900D02*
X0201500Y0454100D01*
X0211500Y0454100D02*
X0211500Y0448900D01*
X0221500Y0448900D02*
X0221500Y0454100D01*
X0219100Y0466500D02*
X0213900Y0466500D01*
X0213900Y0476500D02*
X0219100Y0476500D01*
X0219100Y0486500D02*
X0213900Y0486500D01*
X0231500Y0454100D02*
X0231500Y0448900D01*
X0241500Y0448900D02*
X0241500Y0454100D01*
X0251500Y0454100D02*
X0251500Y0448900D01*
X0261500Y0448900D02*
X0261500Y0454100D01*
X0259100Y0466500D02*
X0253900Y0466500D01*
X0253900Y0476500D02*
X0259100Y0476500D01*
X0259100Y0486500D02*
X0253900Y0486500D01*
X0271500Y0454100D02*
X0271500Y0448900D01*
X0281500Y0448900D02*
X0281500Y0454100D01*
X0293900Y0466500D02*
X0299100Y0466500D01*
X0299100Y0476500D02*
X0293900Y0476500D01*
X0293900Y0486500D02*
X0299100Y0486500D01*
X0179100Y0486500D02*
X0173900Y0486500D01*
X0173900Y0476500D02*
X0179100Y0476500D01*
X0179100Y0466500D02*
X0173900Y0466500D01*
X0139100Y0466500D02*
X0133900Y0466500D01*
X0133900Y0476500D02*
X0139100Y0476500D01*
X0139100Y0486500D02*
X0133900Y0486500D01*
X0099100Y0486500D02*
X0093900Y0486500D01*
X0093900Y0476500D02*
X0099100Y0476500D01*
X0099100Y0466500D02*
X0093900Y0466500D01*
X0059100Y0466500D02*
X0053900Y0466500D01*
X0053900Y0476500D02*
X0059100Y0476500D01*
X0059100Y0486500D02*
X0053900Y0486500D01*
X0019100Y0486500D02*
X0013900Y0486500D01*
X0013900Y0476500D02*
X0019100Y0476500D01*
X0019100Y0466500D02*
X0013900Y0466500D01*
X0016500Y0399100D02*
X0016500Y0393900D01*
X0016500Y0369100D02*
X0016500Y0363900D01*
X0016500Y0334100D02*
X0016500Y0328900D01*
X0016500Y0304100D02*
X0016500Y0298900D01*
X0016500Y0269100D02*
X0016500Y0263900D01*
X0016500Y0239100D02*
X0016500Y0233900D01*
X0016500Y0204100D02*
X0016500Y0198900D01*
X0016500Y0174100D02*
X0016500Y0168900D01*
X0016500Y0139100D02*
X0016500Y0133900D01*
X0016500Y0109100D02*
X0016500Y0103900D01*
X0016500Y0074100D02*
X0016500Y0068900D01*
X0016500Y0044100D02*
X0016500Y0038900D01*
D15*
X0046500Y0016500D03*
X0066500Y0016500D03*
X0121500Y0016500D03*
X0141500Y0016500D03*
X0201500Y0016500D03*
X0221500Y0016500D03*
X0276500Y0016500D03*
X0296500Y0016500D03*
X0296500Y0446500D03*
X0306500Y0446500D03*
X0314500Y0456500D03*
X0311500Y0466500D03*
X0321500Y0466500D03*
X0321500Y0486500D03*
X0311500Y0486500D03*
X0334500Y0456500D03*
X0281500Y0466500D03*
X0271500Y0466500D03*
X0271500Y0486500D03*
X0281500Y0486500D03*
X0241500Y0486500D03*
X0231500Y0486500D03*
X0231500Y0466500D03*
X0241500Y0466500D03*
X0201500Y0466500D03*
X0191500Y0466500D03*
X0191500Y0486500D03*
X0201500Y0486500D03*
X0166500Y0456500D03*
X0146500Y0456500D03*
X0046500Y0456500D03*
X0026500Y0456500D03*
D16*
X0026500Y0436500D03*
X0026500Y0426500D03*
X0036500Y0426500D03*
X0036500Y0436500D03*
X0046500Y0436500D03*
X0046500Y0426500D03*
X0056500Y0426500D03*
X0056500Y0436500D03*
X0066500Y0436500D03*
X0066500Y0426500D03*
X0076500Y0426500D03*
X0076500Y0436500D03*
X0086500Y0436500D03*
X0086500Y0426500D03*
X0096500Y0426500D03*
X0096500Y0436500D03*
X0106500Y0436500D03*
X0106500Y0426500D03*
X0116500Y0426500D03*
X0116500Y0436500D03*
X0126500Y0436500D03*
X0126500Y0426500D03*
X0136500Y0426500D03*
X0136500Y0436500D03*
X0146500Y0436500D03*
X0146500Y0426500D03*
X0156500Y0426500D03*
X0156500Y0436500D03*
D17*
X0178500Y0429500D03*
D18*
X0178500Y0443500D03*
D19*
X0176500Y0496500D03*
X0176500Y0506500D03*
X0176500Y0516500D03*
X0176500Y0526500D03*
X0176500Y0536500D03*
X0166500Y0536500D03*
X0166500Y0526500D03*
X0166500Y0516500D03*
X0166500Y0506500D03*
X0166500Y0496500D03*
X0136500Y0496500D03*
X0136500Y0506500D03*
X0136500Y0516500D03*
X0136500Y0526500D03*
X0136500Y0536500D03*
X0126500Y0536500D03*
X0126500Y0526500D03*
X0126500Y0516500D03*
X0126500Y0506500D03*
X0126500Y0496500D03*
X0096500Y0496500D03*
X0096500Y0506500D03*
X0096500Y0516500D03*
X0096500Y0526500D03*
X0096500Y0536500D03*
X0086500Y0536500D03*
X0086500Y0526500D03*
X0086500Y0516500D03*
X0086500Y0506500D03*
X0086500Y0496500D03*
X0056500Y0496500D03*
X0056500Y0506500D03*
X0056500Y0516500D03*
X0056500Y0526500D03*
X0056500Y0536500D03*
X0046500Y0536500D03*
X0046500Y0526500D03*
X0046500Y0516500D03*
X0046500Y0506500D03*
X0046500Y0496500D03*
X0016500Y0496500D03*
X0016500Y0506500D03*
X0016500Y0516500D03*
X0016500Y0526500D03*
X0016500Y0536500D03*
X0206500Y0536500D03*
X0206500Y0526500D03*
X0206500Y0516500D03*
X0206500Y0506500D03*
X0206500Y0496500D03*
X0216500Y0496500D03*
X0216500Y0506500D03*
X0216500Y0516500D03*
X0216500Y0526500D03*
X0216500Y0536500D03*
X0246500Y0536500D03*
X0246500Y0526500D03*
X0246500Y0516500D03*
X0246500Y0506500D03*
X0246500Y0496500D03*
X0256500Y0496500D03*
X0256500Y0506500D03*
X0256500Y0516500D03*
X0256500Y0526500D03*
X0256500Y0536500D03*
X0286500Y0536500D03*
X0286500Y0526500D03*
X0286500Y0516500D03*
X0286500Y0506500D03*
X0286500Y0496500D03*
X0296500Y0496500D03*
X0296500Y0506500D03*
X0296500Y0516500D03*
X0296500Y0526500D03*
X0296500Y0536500D03*
X0326500Y0536500D03*
X0326500Y0526500D03*
X0326500Y0516500D03*
X0326500Y0506500D03*
X0326500Y0496500D03*
M02*
