%
M48
M72
T01C0.01969
T02C0.03200
T03C0.03543
T04C0.03937
T05C0.04000
T06C0.04331
T07C0.04700
T08C0.05906
T09C0.05950
T10C0.07100
T11C0.12598
%
T01
X51752Y31500
X51752Y51500
X81752Y51500
X81752Y111500
X81752Y181500
X81752Y241500
X71752Y311500
X51752Y311500
X51752Y246500
X51752Y181500
X81752Y371500
X71752Y411500
X71752Y446500
X65752Y459500
X61752Y446500
X65752Y481500
X76752Y457500
X81752Y446500
X91752Y446500
X101752Y446500
X102752Y471500
X111752Y476500
X116752Y446500
X127752Y461500
X136752Y446500
X147752Y476500
X146752Y481500
X161752Y441500
X166752Y456500
X168752Y481500
X168752Y516500
X171752Y566500
X161752Y566500
X161752Y586500
X161752Y596500
X152752Y627500
X160752Y632500
X156752Y641500
X154752Y648500
X150752Y651500
X146752Y661500
X136752Y659500
X133752Y654500
X130752Y663500
X135752Y682500
X142752Y713500
X136752Y731500
X126752Y724500
X123752Y716500
X120752Y712500
X116752Y736500
X109752Y709500
X102752Y719500
X98752Y722500
X96752Y711500
X86752Y736500
X86752Y746500
X96752Y741500
X99752Y746500
X103752Y749500
X106752Y736500
X121752Y771500
X126752Y793500
X122752Y797500
X116752Y826500
X111752Y831500
X95752Y865500
X98752Y873500
X109752Y891500
X93752Y843500
X81752Y839500
X71752Y836500
X71752Y826500
X61752Y826500
X61752Y836500
X76752Y802500
X86752Y797500
X101752Y790500
X126752Y741500
X146752Y741500
X151752Y745500
X151752Y790500
X140752Y821500
X133752Y831500
X136752Y841500
X146752Y826500
X139752Y882500
X142752Y923500
X142752Y940500
X142752Y949500
X138752Y952500
X132752Y946500
X128752Y943500
X125752Y947500
X122752Y941500
X116752Y949500
X112752Y946500
X101752Y941500
X90752Y945500
X86752Y941500
X79752Y939500
X79752Y952500
X89752Y923500
X77752Y878500
X83752Y873500
X61752Y876500
X61752Y886500
X61752Y896500
X47752Y911500
X42752Y915500
X31752Y906500
X31752Y896500
X31752Y886500
X31752Y876500
X31752Y866500
X31752Y856500
X31752Y846500
X21752Y846500
X21752Y836500
X21752Y826500
X21752Y816500
X21752Y806500
X21752Y796500
X21752Y786500
X21752Y776500
X21752Y766500
X21752Y756500
X21752Y746500
X21752Y736500
X21752Y726500
X21752Y716500
X21752Y706500
X21752Y696500
X21752Y686500
X21752Y676500
X21752Y666500
X21752Y656500
X21752Y646500
X21752Y636500
X21752Y626500
X21752Y616500
X21752Y606500
X21752Y596500
X21752Y586500
X31752Y586500
X31752Y596500
X31752Y606500
X31752Y616500
X31752Y626500
X31752Y636500
X31752Y646500
X31752Y656500
X31752Y666500
X31752Y676500
X31752Y686500
X31752Y696500
X31752Y706500
X31752Y716500
X31752Y726500
X31752Y736500
X31752Y746500
X31752Y756500
X31752Y766500
X31752Y776500
X31752Y786500
X31752Y796500
X31752Y806500
X31752Y816500
X21752Y856500
X21752Y866500
X21752Y876500
X21752Y886500
X21752Y896500
X21752Y906500
X21752Y915500
X21752Y936500
X31752Y936500
X39752Y949500
X51752Y952500
X56752Y952500
X58752Y941500
X62752Y938500
X66752Y945500
X71752Y995500
X71752Y1016500
X71752Y1026500
X61752Y1026500
X61752Y1016500
X54752Y1005500
X51752Y1016500
X47752Y1011500
X43752Y1007500
X49752Y1003500
X41752Y1016500
X31752Y1006500
X26752Y1000500
X29752Y996500
X21752Y996500
X21752Y986500
X26752Y1025500
X26752Y1056500
X26752Y1066500
X16752Y1056500
X46752Y1066500
X56752Y1051500
X51752Y1026500
X66752Y1051500
X81752Y1046500
X81752Y1036500
X81752Y1026500
X87752Y1004500
X91752Y1036500
X91752Y1046500
X99752Y1046500
X101752Y1036500
X111752Y1036500
X117752Y1041500
X117752Y1062500
X127752Y1051500
X131752Y1056500
X136752Y1041500
X130752Y1024500
X134752Y1020500
X144752Y1004500
X161752Y1032500
X171752Y1005500
X177752Y1002500
X180752Y998500
X184752Y1001500
X189752Y1003500
X188752Y994500
X191752Y990500
X195752Y987500
X205752Y990500
X206752Y995500
X213752Y989500
X211752Y1016500
X211752Y1036500
X230752Y989500
X235752Y987500
X246752Y1006500
X246752Y1036500
X260752Y993500
X265752Y996500
X270752Y999500
X274752Y1002500
X276752Y996500
X278752Y981500
X276752Y961500
X276752Y951500
X283752Y944500
X286752Y954500
X298752Y943500
X301752Y947500
X304752Y951500
X307752Y955500
X296752Y938500
X299752Y924500
X286752Y901500
X291752Y891500
X285752Y888500
X283752Y883500
X286752Y876500
X286752Y866500
X280752Y843500
X277752Y831500
X281752Y821500
X271752Y821500
X267752Y834500
X264752Y839500
X269752Y841500
X261752Y831500
X259752Y837500
X261752Y821500
X256752Y796500
X251752Y787500
X250752Y753500
X251752Y736500
X246752Y726500
X251752Y716500
X239752Y711500
X236752Y726500
X236752Y736500
X221752Y711500
X216752Y726500
X216752Y741500
X212752Y754500
X201752Y741500
X201752Y726500
X196752Y686500
X201752Y660500
X196752Y656500
X206752Y657500
X211752Y679500
X221752Y690500
X229752Y657500
X236752Y656500
X241752Y651500
X246752Y656500
X254752Y660500
X258752Y655500
X266752Y651500
X276752Y651500
X276752Y671500
X283752Y654500
X288752Y638500
X292752Y636500
X291752Y606500
X291752Y596500
X291752Y586500
X291752Y576500
X291752Y566500
X281752Y566500
X271752Y566500
X271752Y576500
X281752Y586500
X281752Y596500
X281752Y606500
X271752Y606500
X280752Y630500
X295752Y663500
X301752Y688500
X304752Y684500
X307752Y690500
X306752Y676500
X296752Y696500
X286752Y711500
X277752Y731500
X280752Y741500
X283752Y745500
X281752Y756500
X271752Y761500
X266752Y751500
X266752Y736500
X261752Y726500
X266752Y706500
X276752Y691500
X296752Y741500
X296752Y761500
X306752Y791500
X296752Y800500
X291752Y820500
X296752Y831500
X288752Y837500
X299752Y859500
X296752Y876500
X283752Y921500
X276752Y899500
X271752Y919500
X271752Y931500
X266752Y949500
X266752Y966500
X256752Y941500
X252752Y947500
X246752Y943500
X241752Y945500
X231752Y936500
X231752Y916500
X236752Y891500
X231752Y871500
X236752Y869500
X226752Y871500
X226752Y889500
X216752Y873500
X206752Y875500
X206752Y887500
X196752Y885500
X196752Y877500
X186752Y879500
X176752Y882500
X168752Y882500
X176752Y911500
X161752Y920500
X156752Y926500
X156752Y882500
X172752Y845500
X176752Y851500
X181752Y798500
X191752Y790500
X187752Y745500
X181752Y741500
X172752Y694500
X181752Y692500
X176752Y661500
X180752Y649500
X186752Y661500
X172752Y633500
X176752Y625500
X181752Y596500
X181752Y586500
X181752Y566500
X191752Y566500
X201752Y566500
X201752Y576500
X191752Y586500
X211752Y576500
X211752Y566500
X221752Y566500
X221752Y576500
X226752Y601500
X231752Y611500
X236752Y601500
X231752Y581500
X231752Y566500
X241752Y566500
X251752Y566500
X251752Y576500
X261752Y576500
X261752Y566500
X261752Y606500
X251752Y633500
X241752Y633500
X251752Y691500
X231752Y771500
X236752Y795500
X231752Y821500
X221752Y819500
X221752Y771500
X246752Y867500
X256752Y865500
X262752Y869500
X259752Y873500
X266752Y863500
X276752Y861500
X275752Y878500
X266752Y897500
X256752Y895500
X249752Y892500
X216752Y946500
X206752Y949500
X189752Y1040500
X176752Y949500
X141752Y1056500
X127752Y975500
X122752Y973500
X116752Y974500
X105752Y975500
X101752Y986500
X96752Y973500
X101752Y1019500
X101752Y1066500
X41752Y766500
X46752Y751500
X41752Y716500
X41752Y706500
X41752Y696500
X41752Y686500
X41752Y676500
X41752Y656500
X41752Y636500
X41752Y626500
X41752Y606500
X41752Y586500
X41752Y576500
X41752Y566500
X51752Y566500
X51752Y576500
X51752Y581500
X61752Y576500
X61752Y566500
X71752Y566500
X81752Y566500
X91752Y566500
X101752Y566500
X111752Y566500
X121752Y566500
X131752Y566500
X136752Y591500
X141752Y586500
X151752Y586500
X151752Y596500
X151752Y566500
X141752Y566500
X133752Y606500
X133752Y632500
X121752Y610500
X116752Y601500
X121752Y598500
X111752Y631500
X101752Y631500
X100752Y611500
X97752Y601500
X91752Y631500
X96752Y653500
X101752Y679500
X106752Y686500
X116752Y656500
X86752Y660500
X82752Y657500
X79752Y653500
X81752Y631500
X71752Y631500
X61752Y611500
X61752Y601500
X56752Y606500
X56752Y651500
X61752Y661500
X61752Y681500
X71752Y656500
X67752Y710500
X67752Y718500
X59752Y731500
X61752Y741500
X77752Y715500
X21752Y541500
X21752Y531500
X21752Y521500
X21752Y511500
X21752Y501500
X21752Y491500
X21752Y481500
X21752Y471500
X21752Y461500
X21752Y451500
X21752Y441500
X23752Y431500
X23752Y416500
X46752Y471500
X48752Y481500
X48752Y516500
X46752Y521500
X86752Y521500
X116752Y511500
X127752Y516500
X133752Y395500
X148752Y395500
X152752Y392500
X155752Y387500
X151752Y361500
X151752Y291500
X151752Y231500
X151752Y161500
X151752Y101500
X151752Y51500
X231752Y31500
X231752Y101500
X231752Y161500
X231752Y231500
X231752Y291500
X231752Y361500
X216752Y431500
X216752Y439500
X226752Y476500
X233752Y479500
X248752Y516500
X271752Y476500
X281752Y476500
X286752Y438500
X276752Y431500
X256752Y439500
X246752Y431500
X206752Y516500
X191752Y476500
X176752Y431500
X211752Y611500
X160752Y691500
X156752Y676500
X156752Y656500
X51752Y376500
X278752Y1038500
X291752Y1039500
X296752Y1034500
X301752Y1016500
X301752Y1006500
X301752Y996500
X296752Y982500
X302752Y981500
X308752Y980500
X311752Y996500
X311752Y1006500
X311752Y1016500
X311752Y1026500
X321752Y1026500
X321752Y1016500
X321752Y1006500
X321752Y996500
X321752Y986500
X321752Y976500
X331752Y966500
X341752Y966500
X341752Y1006500
X341752Y1016500
X341752Y1026500
X331752Y1026500
X331752Y1016500
X331752Y1006500
X321752Y1036500
X321752Y1046500
X341752Y1066500
X341752Y856500
X341752Y846500
X341752Y836500
X341752Y826500
X341752Y816500
X341752Y806500
X341752Y796500
X341752Y786500
X341752Y776500
X341752Y766500
X341752Y756500
X341752Y746500
X341752Y736500
X341752Y726500
X341752Y716500
X341752Y706500
X341752Y696500
X341752Y686500
X341752Y676500
X341752Y666500
X341752Y656500
X341752Y646500
X341752Y636500
X341752Y626500
X341752Y616500
X341752Y606500
X341752Y596500
X341752Y586500
X331752Y586500
X331752Y596500
X331752Y606500
X331752Y616500
X331752Y626500
X331752Y636500
X331752Y646500
X331752Y656500
X331752Y666500
X331752Y676500
X331752Y686500
X331752Y696500
X331752Y706500
X331752Y716500
X331752Y726500
X331752Y736500
X331752Y746500
X331752Y756500
X331752Y766500
X331752Y776500
X331752Y786500
X331752Y796500
X331752Y806500
X331752Y816500
X331752Y826500
X331752Y836500
X331752Y846500
X331752Y856500
X322752Y849500
X321752Y841500
X317752Y844500
X315752Y836500
X311752Y827500
X316752Y796500
X319752Y768500
X311752Y756500
X312752Y748500
X316752Y741500
X316752Y711500
X316752Y691500
X316752Y661500
X323752Y656500
X321752Y646500
X321752Y636500
X321752Y626500
X321752Y616500
X321752Y606500
X321752Y596500
X321752Y586500
X321752Y576500
X321752Y566500
X311752Y566500
X311752Y576500
X311752Y586500
X311752Y596500
X311752Y606500
X311752Y616500
X311752Y626500
X311752Y636500
X306752Y651500
X301752Y636500
X301752Y626500
X301752Y616500
X301752Y606500
X301752Y596500
X301752Y586500
X301752Y576500
X301752Y566500
X287752Y521500
X311752Y456500
X316752Y476500
X329752Y442500
X321752Y421500
X321752Y411500
X331752Y411500
X341752Y411500
X341752Y401500
X341752Y391500
X341752Y381500
X341752Y371500
X341752Y361500
X341752Y351500
X341752Y341500
X341752Y331500
X341752Y321500
X341752Y311500
X341752Y301500
X341752Y291500
X341752Y281500
X341752Y271500
X311752Y411500
X311752Y421500
X301752Y421500
X301752Y411500
X298752Y445500
X341752Y441500
X341752Y501500
X341752Y511500
X341752Y521500
X341752Y531500
X341752Y541500
X286752Y796500
X321752Y21500
X321752Y11500
T02
X306752Y16500
X286752Y16500
X231752Y16500
X211752Y16500
X151752Y16500
X131752Y16500
X76752Y16500
X56752Y16500
X26752Y41500
X26752Y71500
X26752Y106500
X26752Y136500
X26752Y171500
X26752Y201500
X26752Y236500
X26752Y266500
X26752Y301500
X26752Y331500
X26752Y366500
X26752Y396500
X36752Y456500
X41752Y466500
X41752Y486500
X31752Y486500
X31752Y466500
X56752Y466500
X56752Y456500
X56752Y476500
X56752Y486500
X71752Y486500
X71752Y466500
X81752Y466500
X81752Y486500
X96752Y486500
X96752Y476500
X96752Y466500
X111752Y466500
X111752Y486500
X121752Y486500
X121752Y466500
X136752Y466500
X136752Y476500
X136752Y486500
X151752Y486500
X151752Y466500
X156752Y456500
X161752Y466500
X161752Y486500
X176752Y486500
X176752Y476500
X176752Y466500
X176752Y456500
X188752Y443500
X188752Y429500
X191752Y466500
X201752Y466500
X201752Y486500
X191752Y486500
X211752Y451500
X216752Y466500
X216752Y476500
X216752Y486500
X221752Y451500
X221752Y421500
X211752Y421500
X231752Y421500
X241752Y421500
X241752Y451500
X231752Y451500
X231752Y466500
X241752Y466500
X241752Y486500
X231752Y486500
X251752Y451500
X256752Y466500
X256752Y476500
X256752Y486500
X271752Y486500
X281752Y486500
X281752Y466500
X271752Y466500
X271752Y451500
X281752Y451500
X281752Y421500
X271752Y421500
X261752Y421500
X261752Y451500
X251752Y421500
X291752Y421500
X291752Y451500
X296752Y466500
X296752Y476500
X296752Y486500
X311752Y486500
X311752Y466500
X306752Y446500
X316752Y446500
X324752Y456500
X321752Y466500
X321752Y486500
X336752Y486500
X336752Y476500
X336752Y466500
X344752Y456500
X286752Y617500
X286752Y625500
X286752Y646500
X296752Y641500
X296752Y631500
X296752Y651500
X301752Y666500
X306752Y659000
X311752Y666500
X316752Y651500
X316752Y641500
X316752Y631500
X316752Y681500
X316752Y701500
X296752Y681500
X286752Y676500
X286752Y701500
X271752Y701500
X266752Y686500
X266752Y671500
X256752Y671500
X256752Y641500
X266752Y641500
X266752Y621500
X256752Y621500
X246752Y621500
X246752Y641500
X246752Y671500
X246752Y686500
X246752Y701500
X236752Y701500
X236752Y686500
X236752Y671500
X236752Y641500
X236752Y621500
X226752Y621500
X226752Y641500
X226752Y671500
X216752Y671500
X206752Y671500
X206752Y686500
X206752Y701500
X216752Y701500
X216752Y686500
X226752Y701500
X216752Y641500
X206752Y641500
X206752Y621500
X216752Y621500
X216752Y591500
X206752Y591500
X196752Y596500
X196752Y616500
X196752Y641500
X196752Y671500
X186752Y671500
X186752Y686500
X186752Y701500
X176752Y701500
X176752Y686500
X176752Y671500
X166752Y666500
X166752Y646500
X176752Y641500
X171752Y621500
X161752Y621500
X151752Y621500
X141752Y621500
X141752Y601500
X136752Y576500
X126752Y576500
X126752Y591500
X116752Y591500
X106752Y591500
X106752Y576500
X96752Y576500
X96752Y591500
X86752Y591500
X76752Y591500
X76752Y576500
X66752Y591500
X56752Y591500
X46752Y596500
X46752Y616500
X56752Y621500
X56752Y641500
X56752Y671500
X51752Y691500
X51752Y711500
X66752Y701500
X66752Y686500
X66752Y671500
X66752Y641500
X66752Y621500
X76752Y621500
X86752Y621500
X86752Y641500
X76752Y641500
X76752Y671500
X86752Y671500
X86752Y686500
X86752Y701500
X76752Y701500
X96752Y701500
X96752Y686500
X96752Y671500
X96752Y641500
X96752Y621500
X106752Y621500
X106752Y641500
X106752Y671500
X116752Y671500
X116752Y686500
X116752Y701500
X106752Y701500
X116752Y641500
X116752Y621500
X126752Y621500
X126752Y641500
X136752Y641500
X136752Y671500
X126752Y671500
X126752Y686500
X126752Y701500
X136752Y701500
X146752Y701500
X146752Y686500
X146752Y671500
X146752Y641500
X156752Y686500
X156752Y701500
X166752Y701500
X186752Y641500
X181752Y621500
X186752Y576500
X166752Y576500
X156752Y576500
X196752Y701500
X196752Y761500
X196752Y781500
X186752Y781500
X186752Y761500
X176752Y761500
X176752Y781500
X166752Y781500
X166752Y761500
X156752Y761500
X156752Y781500
X146752Y781500
X146752Y761500
X136752Y761500
X136752Y781500
X126752Y786500
X126752Y806500
X136752Y811500
X141752Y831500
X136752Y851500
X126752Y851500
X121752Y831500
X116752Y811500
X106752Y811500
X96752Y811500
X86752Y811500
X76752Y811500
X66752Y811500
X56752Y811500
X46752Y806500
X46752Y786500
X56752Y781500
X66752Y781500
X66752Y761500
X76752Y761500
X76752Y781500
X86752Y781500
X86752Y761500
X96752Y761500
X96752Y781500
X106752Y781500
X106752Y761500
X116752Y761500
X116752Y781500
X126752Y761500
X146752Y811500
X156752Y811500
X156752Y831500
X156752Y851500
X146752Y851500
X146752Y911500
X146752Y931500
X136752Y931500
X126752Y931500
X126752Y911500
X136752Y911500
X116752Y911500
X116752Y931500
X106752Y931500
X106752Y911500
X96752Y911500
X96752Y931500
X86752Y931500
X76752Y931500
X76752Y911500
X86752Y911500
X66752Y911500
X61752Y921500
X66752Y931500
X56752Y931500
X56752Y911500
X46752Y936500
X46752Y956500
X56752Y961500
X66752Y961500
X76752Y961500
X86752Y961500
X96752Y961500
X106752Y961500
X116752Y961500
X126752Y961500
X136752Y961500
X146752Y961500
X156752Y956500
X156752Y936500
X166752Y931500
X176752Y931500
X166752Y911500
X156752Y911500
X166752Y961500
X176752Y961500
X186752Y961500
X196752Y961500
X206752Y961500
X216752Y961500
X226752Y961500
X236752Y961500
X246752Y961500
X256752Y961500
X256752Y931500
X256752Y911500
X266752Y911500
X276752Y911500
X286752Y911500
X296752Y911500
X296752Y851500
X286752Y851500
X276752Y851500
X266752Y851500
X256752Y851500
X246752Y851500
X236752Y851500
X236752Y831500
X236752Y806500
X236752Y786500
X236752Y761500
X226752Y761500
X226752Y781500
X216752Y781500
X216752Y761500
X206752Y761500
X206752Y781500
X206752Y811500
X216752Y811500
X216752Y831500
X206752Y831500
X206752Y851500
X216752Y851500
X226752Y851500
X226752Y831500
X226752Y811500
X246752Y811500
X256752Y811500
X266752Y811500
X276752Y811500
X286752Y811500
X296752Y811500
X306752Y811500
X316752Y811500
X316752Y781500
X316752Y761500
X306752Y781500
X296752Y781500
X286752Y781500
X286752Y761500
X276752Y781500
X266752Y781500
X256752Y781500
X256752Y761500
X246752Y761500
X246752Y781500
X271752Y721500
X256752Y701500
X256752Y591500
X266752Y591500
X246752Y591500
X236752Y591500
X226752Y591500
X196752Y811500
X196752Y831500
X196752Y851500
X186752Y851500
X186752Y831500
X186752Y811500
X176752Y811500
X166752Y811500
X166752Y831500
X176752Y831500
X166752Y851500
X186752Y911500
X186752Y931500
X196752Y931500
X196752Y911500
X206752Y911500
X216752Y911500
X216752Y931500
X206752Y931500
X226752Y931500
X226752Y911500
X236752Y911500
X236752Y931500
X246752Y931500
X246752Y911500
X334256Y1036500
X334256Y1046500
X334256Y1056500
X347248Y1056500
X347248Y1046500
X347248Y1036500
X116752Y851500
X106752Y851500
X96752Y851500
X86752Y851500
X76752Y851500
X66752Y851500
X56752Y851500
X36752Y838500
X36752Y824500
X38752Y758500
X38752Y744500
X46752Y666500
X46752Y646500
X41752Y921500
T03
X26752Y536500
X26752Y526500
X26752Y516500
X26752Y506500
X26752Y496500
X56752Y496500
X56752Y506500
X56752Y516500
X56752Y526500
X56752Y536500
X66752Y536500
X66752Y526500
X66752Y516500
X66752Y506500
X66752Y496500
X96752Y496500
X96752Y506500
X96752Y516500
X96752Y526500
X96752Y536500
X106752Y536500
X106752Y526500
X106752Y516500
X106752Y506500
X106752Y496500
X136752Y496500
X136752Y506500
X136752Y516500
X136752Y526500
X136752Y536500
X146752Y536500
X146752Y526500
X146752Y516500
X146752Y506500
X146752Y496500
X176752Y496500
X176752Y506500
X176752Y516500
X176752Y526500
X176752Y536500
X186752Y536500
X186752Y526500
X186752Y516500
X186752Y506500
X186752Y496500
X216752Y496500
X216752Y506500
X216752Y516500
X216752Y526500
X216752Y536500
X226752Y536500
X226752Y526500
X226752Y516500
X226752Y506500
X226752Y496500
X256752Y496500
X256752Y506500
X256752Y516500
X256752Y526500
X256752Y536500
X266752Y536500
X266752Y526500
X266752Y516500
X266752Y506500
X266752Y496500
X296752Y496500
X296752Y506500
X296752Y516500
X296752Y526500
X296752Y536500
X306752Y536500
X306752Y526500
X306752Y516500
X306752Y506500
X306752Y496500
X336752Y496500
X336752Y506500
X336752Y516500
X336752Y526500
X336752Y536500
T04
X109075Y1008941
X109075Y1018783
X109075Y1054217
X109075Y1064059
X21752Y945358
X21752Y927642
X18524Y1008941
X18524Y1064059
T05
X36752Y991500
X36752Y981500
X46752Y981500
X46752Y991500
X56752Y991500
X56752Y981500
X66752Y981500
X66752Y991500
X76752Y991500
X76752Y981500
X86752Y981500
X86752Y991500
X96752Y991500
X96752Y981500
X106752Y981500
X106752Y991500
X116752Y991500
X116752Y981500
X126752Y981500
X126752Y991500
X136752Y991500
X136752Y981500
X146752Y981500
X146752Y991500
X156752Y991500
X156752Y981500
X166752Y981500
X166752Y991500
X166752Y1046500
X166752Y1056500
X176752Y1056500
X176752Y1046500
X186752Y1046500
X186752Y1056500
X196752Y1056500
X196752Y1046500
X206752Y1046500
X206752Y1056500
X216752Y1056500
X216752Y1046500
X226752Y1046500
X226752Y1056500
X236752Y1056500
X236752Y1046500
X246752Y1046500
X246752Y1056500
X256752Y1056500
X256752Y1046500
X266752Y1046500
X266752Y1056500
X276752Y1056500
X276752Y1046500
X286752Y1046500
X286752Y1056500
X296752Y1056500
X296752Y1046500
X306752Y1046500
X306752Y1056500
X156752Y1056500
X156752Y1046500
X156752Y436500
X156752Y426500
X146752Y426500
X146752Y436500
X136752Y436500
X136752Y426500
X126752Y426500
X126752Y436500
X116752Y436500
X116752Y426500
X106752Y426500
X106752Y436500
X96752Y436500
X96752Y426500
X86752Y426500
X86752Y436500
X76752Y436500
X76752Y426500
X66752Y426500
X66752Y436500
X56752Y436500
X56752Y426500
X46752Y426500
X46752Y436500
X36752Y436500
X36752Y426500
X166752Y426500
X166752Y436500
T06
X176752Y591657
X176752Y611343
T07
X166352Y386300
X166352Y366700
X166352Y321300
X166352Y301700
X166352Y256300
X166352Y236700
X166352Y191300
X166352Y171700
X166352Y126300
X166352Y106700
X166352Y61300
X166352Y41700
X197152Y41700
X197152Y61300
X197152Y106700
X197152Y126300
X197152Y171700
X197152Y191300
X197152Y236700
X197152Y256300
X197152Y301700
X197152Y321300
X197152Y366700
X197152Y386300
X246352Y386300
X246352Y366700
X246352Y321300
X246352Y301700
X246352Y256300
X246352Y236700
X246352Y191300
X246352Y171700
X246352Y126300
X246352Y106700
X246352Y61300
X246352Y41700
X272152Y41700
X272152Y61300
X272152Y106700
X272152Y126300
X272152Y171700
X272152Y191300
X272152Y236700
X272152Y256300
X272152Y301700
X272152Y321300
X272152Y366700
X272152Y386300
X321352Y386300
X321352Y366700
X321352Y321300
X321352Y301700
X321352Y256300
X321352Y236700
X321352Y191300
X321352Y171700
X321352Y126300
X321352Y106700
X321352Y61300
X321352Y41700
X117152Y41700
X117152Y61300
X117152Y106700
X117152Y126300
X117152Y171700
X117152Y191300
X117152Y236700
X117152Y256300
X117152Y301700
X117152Y321300
X117152Y366700
X117152Y386300
X91352Y386300
X91352Y366700
X91352Y321300
X91352Y301700
X91352Y256300
X91352Y236700
X91352Y191300
X91352Y171700
X91352Y126300
X91352Y106700
X91352Y61300
X91352Y41700
X42152Y41700
X42152Y61300
X42152Y106700
X42152Y126300
X42152Y171700
X42152Y191300
X42152Y236700
X42152Y256300
X42152Y301700
X42152Y321300
X42152Y366700
X42152Y386300
T08
X31595Y922720
X31595Y950280
T09
X127752Y1035500
X156752Y1023500
T10
X141752Y394200
X141752Y358800
X141752Y329200
X141752Y293800
X141752Y264200
X141752Y228800
X141752Y199200
X141752Y163800
X141752Y134200
X141752Y98800
X141752Y69200
X141752Y33800
X66752Y33800
X66752Y69200
X66752Y98800
X66752Y134200
X66752Y163800
X66752Y199200
X66752Y228800
X66752Y264200
X66752Y293800
X66752Y329200
X66752Y358800
X66752Y394200
X221752Y394200
X221752Y358800
X221752Y329200
X221752Y293800
X221752Y264200
X221752Y228800
X221752Y199200
X221752Y163800
X221752Y134200
X221752Y98800
X221752Y69200
X221752Y33800
X296752Y33800
X296752Y69200
X296752Y98800
X296752Y134200
X296752Y163800
X296752Y199200
X296752Y228800
X296752Y264200
X296752Y293800
X296752Y329200
X296752Y358800
X296752Y394200
T11
X26752Y16500
X26752Y571500
X336752Y571500
X336752Y431500
X336752Y16500
X336752Y986500
M30
