G75*
%MOIN*%
%OFA0B0*%
%FSLAX25Y25*%
%IPPOS*%
%LPD*%
%AMOC8*
5,1,8,0,0,1.08239X$1,22.5*
%
%ADD10C,0.13398*%
%ADD11OC8,0.06000*%
%ADD12C,0.07296*%
%ADD13C,0.06000*%
%ADD14C,0.06000*%
%ADD15OC8,0.06800*%
%ADD16C,0.09658*%
%ADD17C,0.06737*%
%ADD18C,0.07850*%
%ADD19C,0.07900*%
%ADD20C,0.06706*%
%ADD21R,0.08400X0.08400*%
%ADD22R,0.04343X0.03162*%
%ADD23R,0.10249X0.10249*%
%ADD24R,0.07099X0.05918*%
%ADD25R,0.06706X0.05918*%
%ADD26R,0.07887X0.14973*%
%ADD27C,0.14300*%
%ADD28R,0.07100X0.05400*%
%ADD29R,0.07200X0.00600*%
%ADD30OC8,0.07100*%
%ADD31C,0.07100*%
D10*
X0026752Y0016500D03*
X0026752Y0571500D03*
X0336752Y0571500D03*
X0336752Y0431500D03*
X0336752Y0016500D03*
X0336752Y0986500D03*
D11*
X0334256Y1046500D03*
X0347248Y1046500D03*
X0271752Y0721500D03*
X0271752Y0701500D03*
X0266752Y0686500D03*
X0246752Y0686500D03*
X0236752Y0686500D03*
X0216752Y0686500D03*
X0206752Y0686500D03*
X0186752Y0686500D03*
X0176752Y0686500D03*
X0166752Y0666500D03*
X0166752Y0646500D03*
X0171752Y0621500D03*
X0181752Y0621500D03*
X0196752Y0616500D03*
X0196752Y0596500D03*
X0186752Y0576500D03*
X0166752Y0576500D03*
X0156752Y0576500D03*
X0141752Y0601500D03*
X0141752Y0621500D03*
X0136752Y0576500D03*
X0126752Y0576500D03*
X0106752Y0576500D03*
X0096752Y0576500D03*
X0076752Y0576500D03*
X0071752Y0486500D03*
X0071752Y0466500D03*
X0081752Y0466500D03*
X0081752Y0486500D03*
X0056752Y0456500D03*
X0041752Y0466500D03*
X0036752Y0456500D03*
X0031752Y0466500D03*
X0031752Y0486500D03*
X0041752Y0486500D03*
X0046752Y0596500D03*
X0046752Y0616500D03*
X0046752Y0646500D03*
X0046752Y0666500D03*
X0051752Y0691500D03*
X0051752Y0711500D03*
X0066752Y0686500D03*
X0086752Y0686500D03*
X0096752Y0686500D03*
X0116752Y0686500D03*
X0126752Y0686500D03*
X0146752Y0686500D03*
X0156752Y0686500D03*
X0126752Y0786500D03*
X0126752Y0806500D03*
X0121752Y0831500D03*
X0141752Y0831500D03*
X0156752Y0936500D03*
X0156752Y0956500D03*
X0236752Y0806500D03*
X0236752Y0786500D03*
X0286752Y0625500D03*
X0296752Y0631500D03*
X0296752Y0641500D03*
X0296752Y0651500D03*
X0301752Y0666500D03*
X0306752Y0659000D03*
X0311752Y0666500D03*
X0316752Y0651500D03*
X0316752Y0641500D03*
X0316752Y0631500D03*
X0316752Y0681500D03*
X0296752Y0681500D03*
X0281752Y0486500D03*
X0271752Y0486500D03*
X0271752Y0466500D03*
X0281752Y0466500D03*
X0306752Y0446500D03*
X0311752Y0466500D03*
X0311752Y0486500D03*
X0321752Y0486500D03*
X0321752Y0466500D03*
X0324752Y0456500D03*
X0316752Y0446500D03*
X0344752Y0456500D03*
X0241752Y0466500D03*
X0231752Y0466500D03*
X0231752Y0486500D03*
X0241752Y0486500D03*
X0201752Y0486500D03*
X0191752Y0486500D03*
X0191752Y0466500D03*
X0201752Y0466500D03*
X0176752Y0456500D03*
X0161752Y0466500D03*
X0156752Y0456500D03*
X0151752Y0466500D03*
X0151752Y0486500D03*
X0161752Y0486500D03*
X0121752Y0486500D03*
X0121752Y0466500D03*
X0111752Y0466500D03*
X0111752Y0486500D03*
X0046752Y0786500D03*
X0046752Y0806500D03*
X0041752Y0921500D03*
X0046752Y0936500D03*
X0046752Y0956500D03*
X0061752Y0921500D03*
X0056752Y0016500D03*
X0076752Y0016500D03*
X0131752Y0016500D03*
X0151752Y0016500D03*
X0211752Y0016500D03*
X0231752Y0016500D03*
X0286752Y0016500D03*
X0306752Y0016500D03*
D12*
X0176752Y0591657D03*
X0176752Y0611343D03*
D13*
X0161752Y0621500D03*
X0151752Y0621500D03*
X0286752Y0617500D03*
X0286752Y0701500D03*
X0286752Y0761500D03*
X0316752Y0761500D03*
X0316752Y0701500D03*
X0334256Y1036500D03*
X0334256Y1056500D03*
X0347248Y1056500D03*
X0347248Y1036500D03*
D14*
X0296752Y0914100D02*
X0296752Y0908900D01*
X0286752Y0908900D02*
X0286752Y0914100D01*
X0276752Y0914100D02*
X0276752Y0908900D01*
X0266752Y0908900D02*
X0266752Y0914100D01*
X0256752Y0914100D02*
X0256752Y0908900D01*
X0256752Y0928900D02*
X0256752Y0934100D01*
X0246752Y0934100D02*
X0246752Y0928900D01*
X0246752Y0914100D02*
X0246752Y0908900D01*
X0236752Y0908900D02*
X0236752Y0914100D01*
X0236752Y0928900D02*
X0236752Y0934100D01*
X0226752Y0934100D02*
X0226752Y0928900D01*
X0226752Y0914100D02*
X0226752Y0908900D01*
X0216752Y0908900D02*
X0216752Y0914100D01*
X0206752Y0914100D02*
X0206752Y0908900D01*
X0206752Y0928900D02*
X0206752Y0934100D01*
X0216752Y0934100D02*
X0216752Y0928900D01*
X0216752Y0958900D02*
X0216752Y0964100D01*
X0206752Y0964100D02*
X0206752Y0958900D01*
X0196752Y0958900D02*
X0196752Y0964100D01*
X0186752Y0964100D02*
X0186752Y0958900D01*
X0176752Y0958900D02*
X0176752Y0964100D01*
X0166752Y0964100D02*
X0166752Y0958900D01*
X0166752Y0934100D02*
X0166752Y0928900D01*
X0176752Y0928900D02*
X0176752Y0934100D01*
X0166752Y0914100D02*
X0166752Y0908900D01*
X0156752Y0908900D02*
X0156752Y0914100D01*
X0146752Y0914100D02*
X0146752Y0908900D01*
X0146752Y0928900D02*
X0146752Y0934100D01*
X0136752Y0934100D02*
X0136752Y0928900D01*
X0126752Y0928900D02*
X0126752Y0934100D01*
X0126752Y0914100D02*
X0126752Y0908900D01*
X0136752Y0908900D02*
X0136752Y0914100D01*
X0116752Y0914100D02*
X0116752Y0908900D01*
X0116752Y0928900D02*
X0116752Y0934100D01*
X0106752Y0934100D02*
X0106752Y0928900D01*
X0106752Y0914100D02*
X0106752Y0908900D01*
X0096752Y0908900D02*
X0096752Y0914100D01*
X0096752Y0928900D02*
X0096752Y0934100D01*
X0086752Y0934100D02*
X0086752Y0928900D01*
X0076752Y0928900D02*
X0076752Y0934100D01*
X0076752Y0914100D02*
X0076752Y0908900D01*
X0086752Y0908900D02*
X0086752Y0914100D01*
X0066752Y0914100D02*
X0066752Y0908900D01*
X0066752Y0928900D02*
X0066752Y0934100D01*
X0056752Y0934100D02*
X0056752Y0928900D01*
X0056752Y0914100D02*
X0056752Y0908900D01*
X0056752Y0958900D02*
X0056752Y0964100D01*
X0066752Y0964100D02*
X0066752Y0958900D01*
X0076752Y0958900D02*
X0076752Y0964100D01*
X0086752Y0964100D02*
X0086752Y0958900D01*
X0096752Y0958900D02*
X0096752Y0964100D01*
X0106752Y0964100D02*
X0106752Y0958900D01*
X0116752Y0958900D02*
X0116752Y0964100D01*
X0126752Y0964100D02*
X0126752Y0958900D01*
X0136752Y0958900D02*
X0136752Y0964100D01*
X0146752Y0964100D02*
X0146752Y0958900D01*
X0146752Y0854100D02*
X0146752Y0848900D01*
X0136752Y0848900D02*
X0136752Y0854100D01*
X0126752Y0854100D02*
X0126752Y0848900D01*
X0116752Y0848900D02*
X0116752Y0854100D01*
X0106752Y0854100D02*
X0106752Y0848900D01*
X0096752Y0848900D02*
X0096752Y0854100D01*
X0086752Y0854100D02*
X0086752Y0848900D01*
X0076752Y0848900D02*
X0076752Y0854100D01*
X0066752Y0854100D02*
X0066752Y0848900D01*
X0056752Y0848900D02*
X0056752Y0854100D01*
X0056752Y0814100D02*
X0056752Y0808900D01*
X0056752Y0784100D02*
X0056752Y0778900D01*
X0066752Y0778900D02*
X0066752Y0784100D01*
X0066752Y0764100D02*
X0066752Y0758900D01*
X0076752Y0758900D02*
X0076752Y0764100D01*
X0076752Y0778900D02*
X0076752Y0784100D01*
X0086752Y0784100D02*
X0086752Y0778900D01*
X0086752Y0764100D02*
X0086752Y0758900D01*
X0096752Y0758900D02*
X0096752Y0764100D01*
X0096752Y0778900D02*
X0096752Y0784100D01*
X0096752Y0808900D02*
X0096752Y0814100D01*
X0086752Y0814100D02*
X0086752Y0808900D01*
X0076752Y0808900D02*
X0076752Y0814100D01*
X0066752Y0814100D02*
X0066752Y0808900D01*
X0066752Y0704100D02*
X0066752Y0698900D01*
X0066752Y0674100D02*
X0066752Y0668900D01*
X0066752Y0644100D02*
X0066752Y0638900D01*
X0066752Y0624100D02*
X0066752Y0618900D01*
X0056752Y0618900D02*
X0056752Y0624100D01*
X0056752Y0638900D02*
X0056752Y0644100D01*
X0056752Y0668900D02*
X0056752Y0674100D01*
X0076752Y0674100D02*
X0076752Y0668900D01*
X0086752Y0668900D02*
X0086752Y0674100D01*
X0086752Y0698900D02*
X0086752Y0704100D01*
X0076752Y0704100D02*
X0076752Y0698900D01*
X0096752Y0698900D02*
X0096752Y0704100D01*
X0096752Y0674100D02*
X0096752Y0668900D01*
X0096752Y0644100D02*
X0096752Y0638900D01*
X0096752Y0624100D02*
X0096752Y0618900D01*
X0086752Y0618900D02*
X0086752Y0624100D01*
X0076752Y0624100D02*
X0076752Y0618900D01*
X0076752Y0638900D02*
X0076752Y0644100D01*
X0086752Y0644100D02*
X0086752Y0638900D01*
X0086752Y0594100D02*
X0086752Y0588900D01*
X0076752Y0588900D02*
X0076752Y0594100D01*
X0066752Y0594100D02*
X0066752Y0588900D01*
X0056752Y0588900D02*
X0056752Y0594100D01*
X0054152Y0486500D02*
X0059352Y0486500D01*
X0059352Y0476500D02*
X0054152Y0476500D01*
X0054152Y0466500D02*
X0059352Y0466500D01*
X0026752Y0399100D02*
X0026752Y0393900D01*
X0026752Y0369100D02*
X0026752Y0363900D01*
X0026752Y0334100D02*
X0026752Y0328900D01*
X0026752Y0304100D02*
X0026752Y0298900D01*
X0026752Y0269100D02*
X0026752Y0263900D01*
X0026752Y0239100D02*
X0026752Y0233900D01*
X0026752Y0204100D02*
X0026752Y0198900D01*
X0026752Y0174100D02*
X0026752Y0168900D01*
X0026752Y0139100D02*
X0026752Y0133900D01*
X0026752Y0109100D02*
X0026752Y0103900D01*
X0026752Y0074100D02*
X0026752Y0068900D01*
X0026752Y0044100D02*
X0026752Y0038900D01*
X0094152Y0466500D02*
X0099352Y0466500D01*
X0099352Y0476500D02*
X0094152Y0476500D01*
X0094152Y0486500D02*
X0099352Y0486500D01*
X0096752Y0588900D02*
X0096752Y0594100D01*
X0106752Y0594100D02*
X0106752Y0588900D01*
X0116752Y0588900D02*
X0116752Y0594100D01*
X0126752Y0594100D02*
X0126752Y0588900D01*
X0126752Y0618900D02*
X0126752Y0624100D01*
X0126752Y0638900D02*
X0126752Y0644100D01*
X0136752Y0644100D02*
X0136752Y0638900D01*
X0136752Y0668900D02*
X0136752Y0674100D01*
X0126752Y0674100D02*
X0126752Y0668900D01*
X0116752Y0668900D02*
X0116752Y0674100D01*
X0116752Y0698900D02*
X0116752Y0704100D01*
X0106752Y0704100D02*
X0106752Y0698900D01*
X0106752Y0674100D02*
X0106752Y0668900D01*
X0106752Y0644100D02*
X0106752Y0638900D01*
X0106752Y0624100D02*
X0106752Y0618900D01*
X0116752Y0618900D02*
X0116752Y0624100D01*
X0116752Y0638900D02*
X0116752Y0644100D01*
X0126752Y0698900D02*
X0126752Y0704100D01*
X0136752Y0704100D02*
X0136752Y0698900D01*
X0146752Y0698900D02*
X0146752Y0704100D01*
X0146752Y0674100D02*
X0146752Y0668900D01*
X0146752Y0644100D02*
X0146752Y0638900D01*
X0156752Y0698900D02*
X0156752Y0704100D01*
X0166752Y0704100D02*
X0166752Y0698900D01*
X0176752Y0698900D02*
X0176752Y0704100D01*
X0176752Y0674100D02*
X0176752Y0668900D01*
X0176752Y0644100D02*
X0176752Y0638900D01*
X0186752Y0638900D02*
X0186752Y0644100D01*
X0186752Y0668900D02*
X0186752Y0674100D01*
X0186752Y0698900D02*
X0186752Y0704100D01*
X0196752Y0704100D02*
X0196752Y0698900D01*
X0196752Y0674100D02*
X0196752Y0668900D01*
X0196752Y0644100D02*
X0196752Y0638900D01*
X0206752Y0638900D02*
X0206752Y0644100D01*
X0216752Y0644100D02*
X0216752Y0638900D01*
X0216752Y0624100D02*
X0216752Y0618900D01*
X0206752Y0618900D02*
X0206752Y0624100D01*
X0206752Y0594100D02*
X0206752Y0588900D01*
X0216752Y0588900D02*
X0216752Y0594100D01*
X0226752Y0594100D02*
X0226752Y0588900D01*
X0236752Y0588900D02*
X0236752Y0594100D01*
X0246752Y0594100D02*
X0246752Y0588900D01*
X0256752Y0588900D02*
X0256752Y0594100D01*
X0266752Y0594100D02*
X0266752Y0588900D01*
X0266752Y0618900D02*
X0266752Y0624100D01*
X0256752Y0624100D02*
X0256752Y0618900D01*
X0256752Y0638900D02*
X0256752Y0644100D01*
X0266752Y0644100D02*
X0266752Y0638900D01*
X0266752Y0668900D02*
X0266752Y0674100D01*
X0256752Y0674100D02*
X0256752Y0668900D01*
X0246752Y0668900D02*
X0246752Y0674100D01*
X0246752Y0698900D02*
X0246752Y0704100D01*
X0236752Y0704100D02*
X0236752Y0698900D01*
X0236752Y0674100D02*
X0236752Y0668900D01*
X0236752Y0644100D02*
X0236752Y0638900D01*
X0236752Y0624100D02*
X0236752Y0618900D01*
X0226752Y0618900D02*
X0226752Y0624100D01*
X0226752Y0638900D02*
X0226752Y0644100D01*
X0226752Y0668900D02*
X0226752Y0674100D01*
X0226752Y0698900D02*
X0226752Y0704100D01*
X0216752Y0704100D02*
X0216752Y0698900D01*
X0206752Y0698900D02*
X0206752Y0704100D01*
X0206752Y0674100D02*
X0206752Y0668900D01*
X0216752Y0668900D02*
X0216752Y0674100D01*
X0216752Y0758900D02*
X0216752Y0764100D01*
X0216752Y0778900D02*
X0216752Y0784100D01*
X0206752Y0784100D02*
X0206752Y0778900D01*
X0206752Y0764100D02*
X0206752Y0758900D01*
X0196752Y0758900D02*
X0196752Y0764100D01*
X0196752Y0778900D02*
X0196752Y0784100D01*
X0196752Y0808900D02*
X0196752Y0814100D01*
X0196752Y0828900D02*
X0196752Y0834100D01*
X0196752Y0848900D02*
X0196752Y0854100D01*
X0186752Y0854100D02*
X0186752Y0848900D01*
X0186752Y0834100D02*
X0186752Y0828900D01*
X0186752Y0814100D02*
X0186752Y0808900D01*
X0186752Y0784100D02*
X0186752Y0778900D01*
X0186752Y0764100D02*
X0186752Y0758900D01*
X0176752Y0758900D02*
X0176752Y0764100D01*
X0176752Y0778900D02*
X0176752Y0784100D01*
X0166752Y0784100D02*
X0166752Y0778900D01*
X0166752Y0764100D02*
X0166752Y0758900D01*
X0156752Y0758900D02*
X0156752Y0764100D01*
X0156752Y0778900D02*
X0156752Y0784100D01*
X0156752Y0808900D02*
X0156752Y0814100D01*
X0156752Y0828900D02*
X0156752Y0834100D01*
X0156752Y0848900D02*
X0156752Y0854100D01*
X0166752Y0854100D02*
X0166752Y0848900D01*
X0166752Y0834100D02*
X0166752Y0828900D01*
X0176752Y0828900D02*
X0176752Y0834100D01*
X0176752Y0814100D02*
X0176752Y0808900D01*
X0166752Y0808900D02*
X0166752Y0814100D01*
X0146752Y0814100D02*
X0146752Y0808900D01*
X0146752Y0784100D02*
X0146752Y0778900D01*
X0146752Y0764100D02*
X0146752Y0758900D01*
X0136752Y0758900D02*
X0136752Y0764100D01*
X0136752Y0778900D02*
X0136752Y0784100D01*
X0126752Y0764100D02*
X0126752Y0758900D01*
X0116752Y0758900D02*
X0116752Y0764100D01*
X0116752Y0778900D02*
X0116752Y0784100D01*
X0116752Y0808900D02*
X0116752Y0814100D01*
X0106752Y0814100D02*
X0106752Y0808900D01*
X0106752Y0784100D02*
X0106752Y0778900D01*
X0106752Y0764100D02*
X0106752Y0758900D01*
X0136752Y0808900D02*
X0136752Y0814100D01*
X0186752Y0908900D02*
X0186752Y0914100D01*
X0186752Y0928900D02*
X0186752Y0934100D01*
X0196752Y0934100D02*
X0196752Y0928900D01*
X0196752Y0914100D02*
X0196752Y0908900D01*
X0206752Y0854100D02*
X0206752Y0848900D01*
X0216752Y0848900D02*
X0216752Y0854100D01*
X0216752Y0834100D02*
X0216752Y0828900D01*
X0206752Y0828900D02*
X0206752Y0834100D01*
X0206752Y0814100D02*
X0206752Y0808900D01*
X0216752Y0808900D02*
X0216752Y0814100D01*
X0226752Y0814100D02*
X0226752Y0808900D01*
X0226752Y0828900D02*
X0226752Y0834100D01*
X0226752Y0848900D02*
X0226752Y0854100D01*
X0236752Y0854100D02*
X0236752Y0848900D01*
X0236752Y0834100D02*
X0236752Y0828900D01*
X0246752Y0814100D02*
X0246752Y0808900D01*
X0246752Y0784100D02*
X0246752Y0778900D01*
X0246752Y0764100D02*
X0246752Y0758900D01*
X0236752Y0758900D02*
X0236752Y0764100D01*
X0226752Y0764100D02*
X0226752Y0758900D01*
X0226752Y0778900D02*
X0226752Y0784100D01*
X0246752Y0848900D02*
X0246752Y0854100D01*
X0256752Y0854100D02*
X0256752Y0848900D01*
X0266752Y0848900D02*
X0266752Y0854100D01*
X0276752Y0854100D02*
X0276752Y0848900D01*
X0286752Y0848900D02*
X0286752Y0854100D01*
X0296752Y0854100D02*
X0296752Y0848900D01*
X0296752Y0814100D02*
X0296752Y0808900D01*
X0306752Y0808900D02*
X0306752Y0814100D01*
X0306752Y0784100D02*
X0306752Y0778900D01*
X0296752Y0778900D02*
X0296752Y0784100D01*
X0286752Y0784100D02*
X0286752Y0778900D01*
X0276752Y0778900D02*
X0276752Y0784100D01*
X0276752Y0808900D02*
X0276752Y0814100D01*
X0266752Y0814100D02*
X0266752Y0808900D01*
X0256752Y0808900D02*
X0256752Y0814100D01*
X0256752Y0784100D02*
X0256752Y0778900D01*
X0256752Y0764100D02*
X0256752Y0758900D01*
X0266752Y0778900D02*
X0266752Y0784100D01*
X0286752Y0808900D02*
X0286752Y0814100D01*
X0316752Y0814100D02*
X0316752Y0808900D01*
X0316752Y0784100D02*
X0316752Y0778900D01*
X0286752Y0679100D02*
X0286752Y0673900D01*
X0286752Y0649100D02*
X0286752Y0643900D01*
X0256752Y0698900D02*
X0256752Y0704100D01*
X0246752Y0644100D02*
X0246752Y0638900D01*
X0246752Y0624100D02*
X0246752Y0618900D01*
X0254152Y0486500D02*
X0259352Y0486500D01*
X0259352Y0476500D02*
X0254152Y0476500D01*
X0254152Y0466500D02*
X0259352Y0466500D01*
X0261752Y0454100D02*
X0261752Y0448900D01*
X0261752Y0424100D02*
X0261752Y0418900D01*
X0251752Y0418900D02*
X0251752Y0424100D01*
X0251752Y0448900D02*
X0251752Y0454100D01*
X0241752Y0454100D02*
X0241752Y0448900D01*
X0231752Y0448900D02*
X0231752Y0454100D01*
X0221752Y0454100D02*
X0221752Y0448900D01*
X0219352Y0466500D02*
X0214152Y0466500D01*
X0214152Y0476500D02*
X0219352Y0476500D01*
X0219352Y0486500D02*
X0214152Y0486500D01*
X0211752Y0454100D02*
X0211752Y0448900D01*
X0211752Y0424100D02*
X0211752Y0418900D01*
X0221752Y0418900D02*
X0221752Y0424100D01*
X0231752Y0424100D02*
X0231752Y0418900D01*
X0241752Y0418900D02*
X0241752Y0424100D01*
X0271752Y0424100D02*
X0271752Y0418900D01*
X0281752Y0418900D02*
X0281752Y0424100D01*
X0281752Y0448900D02*
X0281752Y0454100D01*
X0271752Y0454100D02*
X0271752Y0448900D01*
X0291752Y0448900D02*
X0291752Y0454100D01*
X0294152Y0466500D02*
X0299352Y0466500D01*
X0299352Y0476500D02*
X0294152Y0476500D01*
X0294152Y0486500D02*
X0299352Y0486500D01*
X0291752Y0424100D02*
X0291752Y0418900D01*
X0334152Y0466500D02*
X0339352Y0466500D01*
X0339352Y0476500D02*
X0334152Y0476500D01*
X0334152Y0486500D02*
X0339352Y0486500D01*
X0256752Y0958900D02*
X0256752Y0964100D01*
X0246752Y0964100D02*
X0246752Y0958900D01*
X0236752Y0958900D02*
X0236752Y0964100D01*
X0226752Y0964100D02*
X0226752Y0958900D01*
X0179352Y0486500D02*
X0174152Y0486500D01*
X0174152Y0476500D02*
X0179352Y0476500D01*
X0179352Y0466500D02*
X0174152Y0466500D01*
X0139352Y0466500D02*
X0134152Y0466500D01*
X0134152Y0476500D02*
X0139352Y0476500D01*
X0139352Y0486500D02*
X0134152Y0486500D01*
D15*
X0136752Y0436500D03*
X0136752Y0426500D03*
X0126752Y0426500D03*
X0126752Y0436500D03*
X0116752Y0436500D03*
X0116752Y0426500D03*
X0106752Y0426500D03*
X0106752Y0436500D03*
X0096752Y0436500D03*
X0096752Y0426500D03*
X0086752Y0426500D03*
X0086752Y0436500D03*
X0076752Y0436500D03*
X0076752Y0426500D03*
X0066752Y0426500D03*
X0066752Y0436500D03*
X0056752Y0436500D03*
X0056752Y0426500D03*
X0046752Y0426500D03*
X0046752Y0436500D03*
X0036752Y0436500D03*
X0036752Y0426500D03*
X0146752Y0426500D03*
X0146752Y0436500D03*
X0156752Y0436500D03*
X0156752Y0426500D03*
X0166752Y0426500D03*
X0166752Y0436500D03*
X0166752Y0981500D03*
X0166752Y0991500D03*
X0156752Y0991500D03*
X0156752Y0981500D03*
X0146752Y0981500D03*
X0146752Y0991500D03*
X0136752Y0991500D03*
X0136752Y0981500D03*
X0126752Y0981500D03*
X0126752Y0991500D03*
X0116752Y0991500D03*
X0116752Y0981500D03*
X0106752Y0981500D03*
X0106752Y0991500D03*
X0096752Y0991500D03*
X0096752Y0981500D03*
X0086752Y0981500D03*
X0086752Y0991500D03*
X0076752Y0991500D03*
X0076752Y0981500D03*
X0066752Y0981500D03*
X0066752Y0991500D03*
X0056752Y0991500D03*
X0056752Y0981500D03*
X0046752Y0981500D03*
X0046752Y0991500D03*
X0036752Y0991500D03*
X0036752Y0981500D03*
X0156752Y1046500D03*
X0156752Y1056500D03*
X0166752Y1056500D03*
X0166752Y1046500D03*
X0176752Y1046500D03*
X0176752Y1056500D03*
X0186752Y1056500D03*
X0186752Y1046500D03*
X0196752Y1046500D03*
X0196752Y1056500D03*
X0206752Y1056500D03*
X0206752Y1046500D03*
X0216752Y1046500D03*
X0216752Y1056500D03*
X0226752Y1056500D03*
X0226752Y1046500D03*
X0236752Y1046500D03*
X0236752Y1056500D03*
X0246752Y1056500D03*
X0246752Y1046500D03*
X0256752Y1046500D03*
X0256752Y1056500D03*
X0266752Y1056500D03*
X0266752Y1046500D03*
X0276752Y1046500D03*
X0276752Y1056500D03*
X0286752Y1056500D03*
X0286752Y1046500D03*
X0296752Y1046500D03*
X0296752Y1056500D03*
X0306752Y1056500D03*
X0306752Y1046500D03*
D16*
X0031595Y0950280D03*
X0031595Y0922720D03*
D17*
X0021752Y0927642D03*
X0021752Y0945358D03*
D18*
X0038627Y0386300D02*
X0045677Y0386300D01*
X0045677Y0366700D02*
X0038627Y0366700D01*
X0038627Y0321300D02*
X0045677Y0321300D01*
X0045677Y0301700D02*
X0038627Y0301700D01*
X0038627Y0256300D02*
X0045677Y0256300D01*
X0045677Y0236700D02*
X0038627Y0236700D01*
X0038627Y0191300D02*
X0045677Y0191300D01*
X0045677Y0171700D02*
X0038627Y0171700D01*
X0038627Y0126300D02*
X0045677Y0126300D01*
X0045677Y0106700D02*
X0038627Y0106700D01*
X0038627Y0061300D02*
X0045677Y0061300D01*
X0045677Y0041700D02*
X0038627Y0041700D01*
X0087827Y0041700D02*
X0094877Y0041700D01*
X0094877Y0061300D02*
X0087827Y0061300D01*
X0087827Y0106700D02*
X0094877Y0106700D01*
X0094877Y0126300D02*
X0087827Y0126300D01*
X0087827Y0171700D02*
X0094877Y0171700D01*
X0094877Y0191300D02*
X0087827Y0191300D01*
X0087827Y0236700D02*
X0094877Y0236700D01*
X0094877Y0256300D02*
X0087827Y0256300D01*
X0087827Y0301700D02*
X0094877Y0301700D01*
X0094877Y0321300D02*
X0087827Y0321300D01*
X0087827Y0366700D02*
X0094877Y0366700D01*
X0094877Y0386300D02*
X0087827Y0386300D01*
X0113627Y0386300D02*
X0120677Y0386300D01*
X0120677Y0366700D02*
X0113627Y0366700D01*
X0113627Y0321300D02*
X0120677Y0321300D01*
X0120677Y0301700D02*
X0113627Y0301700D01*
X0113627Y0256300D02*
X0120677Y0256300D01*
X0120677Y0236700D02*
X0113627Y0236700D01*
X0113627Y0191300D02*
X0120677Y0191300D01*
X0120677Y0171700D02*
X0113627Y0171700D01*
X0113627Y0126300D02*
X0120677Y0126300D01*
X0120677Y0106700D02*
X0113627Y0106700D01*
X0113627Y0061300D02*
X0120677Y0061300D01*
X0120677Y0041700D02*
X0113627Y0041700D01*
X0162827Y0041700D02*
X0169877Y0041700D01*
X0169877Y0061300D02*
X0162827Y0061300D01*
X0162827Y0106700D02*
X0169877Y0106700D01*
X0169877Y0126300D02*
X0162827Y0126300D01*
X0162827Y0171700D02*
X0169877Y0171700D01*
X0169877Y0191300D02*
X0162827Y0191300D01*
X0162827Y0236700D02*
X0169877Y0236700D01*
X0169877Y0256300D02*
X0162827Y0256300D01*
X0162827Y0301700D02*
X0169877Y0301700D01*
X0169877Y0321300D02*
X0162827Y0321300D01*
X0162827Y0366700D02*
X0169877Y0366700D01*
X0169877Y0386300D02*
X0162827Y0386300D01*
X0193627Y0386300D02*
X0200677Y0386300D01*
X0200677Y0366700D02*
X0193627Y0366700D01*
X0193627Y0321300D02*
X0200677Y0321300D01*
X0200677Y0301700D02*
X0193627Y0301700D01*
X0193627Y0256300D02*
X0200677Y0256300D01*
X0200677Y0236700D02*
X0193627Y0236700D01*
X0193627Y0191300D02*
X0200677Y0191300D01*
X0200677Y0171700D02*
X0193627Y0171700D01*
X0193627Y0126300D02*
X0200677Y0126300D01*
X0200677Y0106700D02*
X0193627Y0106700D01*
X0193627Y0061300D02*
X0200677Y0061300D01*
X0200677Y0041700D02*
X0193627Y0041700D01*
X0242827Y0041700D02*
X0249877Y0041700D01*
X0249877Y0061300D02*
X0242827Y0061300D01*
X0242827Y0106700D02*
X0249877Y0106700D01*
X0249877Y0126300D02*
X0242827Y0126300D01*
X0242827Y0171700D02*
X0249877Y0171700D01*
X0249877Y0191300D02*
X0242827Y0191300D01*
X0242827Y0236700D02*
X0249877Y0236700D01*
X0249877Y0256300D02*
X0242827Y0256300D01*
X0242827Y0301700D02*
X0249877Y0301700D01*
X0249877Y0321300D02*
X0242827Y0321300D01*
X0242827Y0366700D02*
X0249877Y0366700D01*
X0249877Y0386300D02*
X0242827Y0386300D01*
X0268627Y0386300D02*
X0275677Y0386300D01*
X0275677Y0366700D02*
X0268627Y0366700D01*
X0268627Y0321300D02*
X0275677Y0321300D01*
X0275677Y0301700D02*
X0268627Y0301700D01*
X0268627Y0256300D02*
X0275677Y0256300D01*
X0275677Y0236700D02*
X0268627Y0236700D01*
X0268627Y0191300D02*
X0275677Y0191300D01*
X0275677Y0171700D02*
X0268627Y0171700D01*
X0268627Y0126300D02*
X0275677Y0126300D01*
X0275677Y0106700D02*
X0268627Y0106700D01*
X0268627Y0061300D02*
X0275677Y0061300D01*
X0275677Y0041700D02*
X0268627Y0041700D01*
X0317827Y0041700D02*
X0324877Y0041700D01*
X0324877Y0061300D02*
X0317827Y0061300D01*
X0317827Y0106700D02*
X0324877Y0106700D01*
X0324877Y0126300D02*
X0317827Y0126300D01*
X0317827Y0171700D02*
X0324877Y0171700D01*
X0324877Y0191300D02*
X0317827Y0191300D01*
X0317827Y0236700D02*
X0324877Y0236700D01*
X0324877Y0256300D02*
X0317827Y0256300D01*
X0317827Y0301700D02*
X0324877Y0301700D01*
X0324877Y0321300D02*
X0317827Y0321300D01*
X0317827Y0366700D02*
X0324877Y0366700D01*
X0324877Y0386300D02*
X0317827Y0386300D01*
D19*
X0296752Y0394200D03*
X0296752Y0358800D03*
X0296752Y0329200D03*
X0296752Y0293800D03*
X0296752Y0264200D03*
X0296752Y0228800D03*
X0296752Y0199200D03*
X0296752Y0163800D03*
X0296752Y0134200D03*
X0296752Y0098800D03*
X0296752Y0069200D03*
X0296752Y0033800D03*
X0221752Y0033800D03*
X0221752Y0069200D03*
X0221752Y0098800D03*
X0221752Y0134200D03*
X0221752Y0163800D03*
X0221752Y0199200D03*
X0221752Y0228800D03*
X0221752Y0264200D03*
X0221752Y0293800D03*
X0221752Y0329200D03*
X0221752Y0358800D03*
X0221752Y0394200D03*
X0141752Y0394200D03*
X0141752Y0358800D03*
X0141752Y0329200D03*
X0141752Y0293800D03*
X0141752Y0264200D03*
X0141752Y0228800D03*
X0141752Y0199200D03*
X0141752Y0163800D03*
X0141752Y0134200D03*
X0141752Y0098800D03*
X0141752Y0069200D03*
X0141752Y0033800D03*
X0066752Y0033800D03*
X0066752Y0069200D03*
X0066752Y0098800D03*
X0066752Y0134200D03*
X0066752Y0163800D03*
X0066752Y0199200D03*
X0066752Y0228800D03*
X0066752Y0264200D03*
X0066752Y0293800D03*
X0066752Y0329200D03*
X0066752Y0358800D03*
X0066752Y0394200D03*
D20*
X0066752Y0496500D03*
X0066752Y0506500D03*
X0066752Y0516500D03*
X0066752Y0526500D03*
X0066752Y0536500D03*
X0056752Y0536500D03*
X0056752Y0526500D03*
X0056752Y0516500D03*
X0056752Y0506500D03*
X0056752Y0496500D03*
X0026752Y0496500D03*
X0026752Y0506500D03*
X0026752Y0516500D03*
X0026752Y0526500D03*
X0026752Y0536500D03*
X0096752Y0536500D03*
X0096752Y0526500D03*
X0096752Y0516500D03*
X0096752Y0506500D03*
X0096752Y0496500D03*
X0106752Y0496500D03*
X0106752Y0506500D03*
X0106752Y0516500D03*
X0106752Y0526500D03*
X0106752Y0536500D03*
X0136752Y0536500D03*
X0136752Y0526500D03*
X0136752Y0516500D03*
X0136752Y0506500D03*
X0136752Y0496500D03*
X0146752Y0496500D03*
X0146752Y0506500D03*
X0146752Y0516500D03*
X0146752Y0526500D03*
X0146752Y0536500D03*
X0176752Y0536500D03*
X0176752Y0526500D03*
X0176752Y0516500D03*
X0176752Y0506500D03*
X0176752Y0496500D03*
X0186752Y0496500D03*
X0186752Y0506500D03*
X0186752Y0516500D03*
X0186752Y0526500D03*
X0186752Y0536500D03*
X0216752Y0536500D03*
X0216752Y0526500D03*
X0216752Y0516500D03*
X0216752Y0506500D03*
X0216752Y0496500D03*
X0226752Y0496500D03*
X0226752Y0506500D03*
X0226752Y0516500D03*
X0226752Y0526500D03*
X0226752Y0536500D03*
X0256752Y0536500D03*
X0256752Y0526500D03*
X0256752Y0516500D03*
X0256752Y0506500D03*
X0256752Y0496500D03*
X0266752Y0496500D03*
X0266752Y0506500D03*
X0266752Y0516500D03*
X0266752Y0526500D03*
X0266752Y0536500D03*
X0296752Y0536500D03*
X0296752Y0526500D03*
X0296752Y0516500D03*
X0296752Y0506500D03*
X0296752Y0496500D03*
X0306752Y0496500D03*
X0306752Y0506500D03*
X0306752Y0516500D03*
X0306752Y0526500D03*
X0306752Y0536500D03*
X0336752Y0536500D03*
X0336752Y0526500D03*
X0336752Y0516500D03*
X0336752Y0506500D03*
X0336752Y0496500D03*
D21*
X0109075Y1008941D03*
X0109075Y1018783D03*
X0109075Y1054217D03*
X0109075Y1064059D03*
X0018524Y1064059D03*
X0018524Y1008941D03*
D22*
X0042225Y1036760D03*
X0042225Y1040500D03*
X0042225Y1044240D03*
X0051280Y1044240D03*
X0051280Y1040500D03*
X0051280Y1036760D03*
D23*
X0055414Y1060500D03*
X0038091Y1060500D03*
D24*
X0031752Y1049437D03*
X0031752Y1041563D03*
X0021752Y1041563D03*
X0021752Y1049437D03*
X0081752Y1056563D03*
X0081752Y1064437D03*
X0091752Y1064437D03*
X0091752Y1056563D03*
D25*
X0071752Y1056760D03*
X0071752Y1064240D03*
X0071752Y1044240D03*
X0071752Y1036760D03*
X0061752Y1036760D03*
X0061752Y1044240D03*
D26*
X0034626Y1025500D03*
X0018878Y1025500D03*
D27*
X0127752Y1035500D03*
X0156752Y1023500D03*
D28*
X0091752Y0609500D03*
X0091752Y0603500D03*
X0081752Y0603500D03*
X0081752Y0609500D03*
X0071752Y0609500D03*
X0071752Y0603500D03*
D29*
X0071752Y0606500D03*
X0081752Y0606500D03*
X0091752Y0606500D03*
D30*
X0038752Y0758500D03*
X0036752Y0838500D03*
X0188752Y0429500D03*
D31*
X0188752Y0443500D03*
X0038752Y0744500D03*
X0036752Y0824500D03*
M02*
